SplineFontDB: 3.2
FontName: PPLXSansRegularBetav2
FullName: PPLX Sans Beta v2
FamilyName: PPLX Sans Beta v2
Weight: Regular
Copyright: 
UComments: "changed name meta data"
Version: 2.0;Glyphs 3.5 (3513)
ItalicAngle: 0.8
UnderlinePosition: -125
UnderlineWidth: 50
Ascent: 800
Descent: 200
InvalidEm: 0
sfntRevision: 0x00020000
LayerCount: 2
Layer: 0 1 "Back" 1
Layer: 1 1 "Fore" 0
HasVMetrics: 1
XUID: [1021 382 509860542 11791100]
UseXUID: 1
StyleMap: 0x0040
FSType: 8
OS2Version: 4
OS2_WeightWidthSlopeOnly: 0
OS2_UseTypoMetrics: 1
CreationTime: 1769419704
ModificationTime: 1776384891
PfmFamily: 81
TTFWeight: 400
TTFWidth: 5
LineGap: 0
VLineGap: 0
Panose: 0 0 0 0 0 0 0 0 0 0
OS2TypoAscent: 970
OS2TypoAOffset: 0
OS2TypoDescent: -190
OS2TypoDOffset: 0
OS2TypoLinegap: 0
OS2WinAscent: 970
OS2WinAOffset: 0
OS2WinDescent: 190
OS2WinDOffset: 0
HheadAscent: 970
HheadAOffset: 0
HheadDescent: -190
HheadDOffset: 0
OS2SubXSize: 650
OS2SubYSize: 600
OS2SubXOff: 0
OS2SubYOff: 75
OS2SupXSize: 650
OS2SupYSize: 600
OS2SupXOff: 0
OS2SupYOff: 350
OS2StrikeYSize: 50
OS2StrikeYPos: 255
OS2CapHeight: 745
OS2XHeight: 555
OS2Vendor: 'UKWN'
OS2CodePages: 20000093.00000000
OS2UnicodeRanges: a000007f.4000a47b.00000000.00000000
Lookup: 1 0 0 "'aalt' Access All Alternates in Latin lookup 0" { "'aalt' Access All Alternates in Latin lookup 0 subtable"  } ['aalt' ('DFLT' <'dflt' > 'latn' <'AZE ' 'CAT ' 'CRT ' 'DEU ' 'KAZ ' 'MOL ' 'NLD ' 'ROM ' 'TAT ' 'TRK ' 'dflt' > ) ]
Lookup: 3 0 0 "'aalt' Access All Alternates in Latin lookup 1" { "'aalt' Access All Alternates in Latin lookup 1 subtable"  } ['aalt' ('DFLT' <'dflt' > 'latn' <'AZE ' 'CAT ' 'CRT ' 'DEU ' 'KAZ ' 'MOL ' 'NLD ' 'ROM ' 'TAT ' 'TRK ' 'dflt' > ) ]

StartChar: .notdef
Encoding: 65536 -1 0
Width: 574
GlyphClass: 1
Flags: W
LayerCount: 2
Fore
SplineSet
-13 745 m 1,0,-1
 587 745 l 1,1,-1
 587 -125 l 1,2,-1
 -13 -125 l 1,3,-1
 -13 745 l 1,0,-1
547 -85 m 1,4,-1
 547 705 l 1,5,-1
 27 705 l 1,6,-1
 27 -85 l 1,7,-1
 547 -85 l 1,4,-1
263 310 m 1,8,-1
 5 713 l 1,9,-1
 53 713 l 1,10,-1
 287 347 l 1,11,-1
 521 713 l 1,12,-1
 569 713 l 1,13,-1
 311 310 l 1,14,-1
 569 -93 l 1,15,-1
 521 -93 l 1,16,-1
 287 273 l 1,17,-1
 53 -93 l 1,18,-1
 5 -93 l 1,19,-1
 263 310 l 1,8,-1
EndSplineSet
Validated: 5
EndChar

StartChar: A
Encoding: 65 65 3
Width: 766
GlyphClass: 2
Flags: W
AnchorPoint: "Anchor-4" 667 0 basechar 0
AnchorPoint: "Anchor-3" 401 705 basechar 0
AnchorPoint: "Anchor-2" 401 0 basechar 0
LayerCount: 2
Fore
SplineSet
271 745 m 1,0,-1
 495 745 l 1,1,-1
 755 40 l 1,2,-1
 553 40 l 1,3,-1
 452 375 l 2,4,5
 419 482 419 482 388 590 c 1,6,-1
 378 590 l 1,7,8
 347 482 347 482 314 375 c 2,9,-1
 213 40 l 1,10,-1
 11 40 l 1,11,-1
 271 745 l 1,0,-1
203 313 m 1,12,-1
 563 313 l 1,13,-1
 563 173 l 1,14,-1
 203 173 l 1,15,-1
 203 313 l 1,12,-1
EndSplineSet
Validated: 5
Substitution2: "Single Substitution lookup 37 subtable" ordfeminine
Substitution2: "'aalt' Access All Alternates in Latin lookup 0 subtable" ordfeminine
EndChar

StartChar: B
Encoding: 66 66 4
Width: 711
GlyphClass: 2
Flags: W
AnchorPoint: "Anchor-3" 354 705 basechar 0
AnchorPoint: "Anchor-2" 354 0 basechar 0
LayerCount: 2
Fore
SplineSet
87 745 m 1,0,-1
 408 745 l 2,1,2
 481 745 481 745 533 724.5 c 128,-1,3
 585 704 585 704 612.5 665 c 128,-1,4
 640 626 640 626 640 571 c 0,5,6
 640 510 640 510 602 467.5 c 128,-1,7
 564 425 564 425 496 410 c 1,8,-1
 496 400 l 1,9,10
 573 391 573 391 616 347 c 128,-1,11
 659 303 659 303 659 232 c 0,12,13
 659 175 659 175 630 131.5 c 128,-1,14
 601 88 601 88 548 64 c 128,-1,15
 495 40 495 40 425 40 c 2,16,-1
 87 40 l 1,17,-1
 87 745 l 1,0,-1
442.5 191.5 m 128,-1,19
 463 213 463 213 463 251 c 2,20,-1
 463 252 l 2,21,22
 463 291 463 291 442.5 312.5 c 128,-1,23
 422 334 422 334 385 334 c 2,24,-1
 276 334 l 1,25,-1
 276 170 l 1,26,-1
 385 170 l 2,27,18
 422 170 422 170 442.5 191.5 c 128,-1,19
424.5 479.5 m 128,-1,29
 444 500 444 500 444 536 c 0,30,31
 444 573 444 573 424 594 c 128,-1,32
 404 615 404 615 370 615 c 2,33,-1
 276 615 l 1,34,-1
 276 459 l 1,35,-1
 370 459 l 2,36,28
 405 459 405 459 424.5 479.5 c 128,-1,29
EndSplineSet
Validated: 1
EndChar

StartChar: C
Encoding: 67 67 5
Width: 754
GlyphClass: 2
Flags: W
AnchorPoint: "Anchor-3" 405 705 basechar 0
AnchorPoint: "Anchor-2" 405 0 basechar 0
LayerCount: 2
Fore
SplineSet
216.5 71.5 m 128,-1,1
 137 118 137 118 92 201.5 c 128,-1,2
 47 285 47 285 47 392 c 256,3,4
 47 499 47 499 92 583 c 128,-1,5
 137 667 137 667 216.5 713.5 c 128,-1,6
 296 760 296 760 397 760 c 0,7,8
 477 760 477 760 544.5 731.5 c 128,-1,9
 612 703 612 703 656 651.5 c 128,-1,10
 700 600 700 600 712 535 c 1,11,-1
 514 535 l 1,12,13
 502 575 502 575 471 597.5 c 128,-1,14
 440 620 440 620 397 620 c 0,15,16
 350 620 350 620 315 593 c 128,-1,17
 280 566 280 566 261.5 514.5 c 128,-1,18
 243 463 243 463 243 392 c 0,19,20
 243 322 243 322 262 270.5 c 128,-1,21
 281 219 281 219 315.5 192 c 128,-1,22
 350 165 350 165 397 165 c 0,23,24
 440 165 440 165 471 187.5 c 128,-1,25
 502 210 502 210 514 250 c 1,26,-1
 712 250 l 1,27,28
 700 185 700 185 656 133.5 c 128,-1,29
 612 82 612 82 544.5 53.5 c 128,-1,30
 477 25 477 25 397 25 c 0,31,0
 296 25 296 25 216.5 71.5 c 128,-1,1
EndSplineSet
Validated: 1
EndChar

StartChar: D
Encoding: 68 68 6
Width: 759
GlyphClass: 2
Flags: W
AnchorPoint: "Anchor-3" 339 705 basechar 0
AnchorPoint: "Anchor-2" 389 0 basechar 0
LayerCount: 2
Fore
SplineSet
87 745 m 1,0,-1
 376 745 l 2,1,2
 466 745 466 745 543.5 699 c 128,-1,3
 621 653 621 653 666.5 572 c 128,-1,4
 712 491 712 491 712 392 c 256,5,6
 712 293 712 293 666.5 212.5 c 128,-1,7
 621 132 621 132 543.5 86 c 128,-1,8
 466 40 466 40 376 40 c 2,9,-1
 87 40 l 1,10,-1
 87 745 l 1,0,-1
432.5 213.5 m 128,-1,12
 470 237 470 237 493.5 282.5 c 128,-1,13
 517 328 517 328 517 392 c 256,14,15
 517 456 517 456 493.5 502 c 128,-1,16
 470 548 470 548 432.5 571.5 c 128,-1,17
 395 595 395 595 353 595 c 2,18,-1
 277 595 l 1,19,-1
 277 190 l 1,20,-1
 353 190 l 2,21,11
 395 190 395 190 432.5 213.5 c 128,-1,12
EndSplineSet
Validated: 1
EndChar

StartChar: E
Encoding: 69 69 7
Width: 626
GlyphClass: 2
Flags: W
AnchorPoint: "Anchor-4" 522 0 basechar 0
AnchorPoint: "Anchor-3" 341 705 basechar 0
AnchorPoint: "Anchor-2" 341 0 basechar 0
LayerCount: 2
Fore
SplineSet
87 745 m 1,0,-1
 277 745 l 1,1,-1
 277 40 l 1,2,-1
 87 40 l 1,3,-1
 87 745 l 1,0,-1
182 180 m 1,4,-1
 569 180 l 1,5,-1
 569 40 l 1,6,-1
 277 40 l 1,7,-1
 182 180 l 1,4,-1
162 470 m 1,8,-1
 546 470 l 1,9,-1
 546 330 l 1,10,-1
 162 330 l 1,11,-1
 162 470 l 1,8,-1
277 745 m 1,12,-1
 569 745 l 1,13,-1
 569 605 l 1,14,-1
 182 605 l 1,15,-1
 277 745 l 1,12,-1
EndSplineSet
Validated: 5
EndChar

StartChar: F
Encoding: 70 70 8
Width: 601
GlyphClass: 2
Flags: W
AnchorPoint: "Anchor-3" 314 705 basechar 0
AnchorPoint: "Anchor-2" 314 0 basechar 0
LayerCount: 2
Fore
SplineSet
87 745 m 1,0,-1
 277 745 l 1,1,-1
 277 40 l 1,2,-1
 87 40 l 1,3,-1
 87 745 l 1,0,-1
196 452 m 1,4,-1
 536 452 l 1,5,-1
 536 302 l 1,6,-1
 196 302 l 1,7,-1
 196 452 l 1,4,-1
277 745 m 1,8,-1
 559 745 l 1,9,-1
 559 595 l 1,10,-1
 224 595 l 1,11,-1
 277 745 l 1,8,-1
EndSplineSet
Validated: 5
EndChar

StartChar: G
Encoding: 71 71 9
Width: 782
GlyphClass: 2
Flags: W
AnchorPoint: "Anchor-3" 396 705 basechar 0
AnchorPoint: "Anchor-2" 396 0 basechar 0
LayerCount: 2
Fore
SplineSet
190.5 72 m 128,-1,1
 122 119 122 119 84.5 202.5 c 128,-1,2
 47 286 47 286 47 393 c 0,3,4
 47 498 47 498 91.5 581.5 c 128,-1,5
 136 665 136 665 214.5 712.5 c 128,-1,6
 293 760 293 760 392 760 c 0,7,8
 476 760 476 760 541.5 733.5 c 128,-1,9
 607 707 607 707 647.5 661.5 c 128,-1,10
 688 616 688 616 701 560 c 1,11,-1
 499 560 l 1,12,13
 489 586 489 586 462 603 c 128,-1,14
 435 620 435 620 398 620 c 0,15,16
 354 620 354 620 319 596 c 128,-1,17
 284 572 284 572 263 521 c 128,-1,18
 242 470 242 470 242 393 c 0,19,20
 242 315 242 315 263.5 264 c 128,-1,21
 285 213 285 213 321.5 189 c 128,-1,22
 358 165 358 165 404 165 c 0,23,24
 457 165 457 165 500 198 c 128,-1,25
 543 231 543 231 549 295 c 1,26,-1
 362 295 l 1,27,-1
 362 430 l 1,28,-1
 710 430 l 1,29,-1
 710 40 l 1,30,-1
 550 40 l 1,31,-1
 550 137 l 1,32,-1
 545 137 l 1,33,34
 519 83 519 83 469.5 54 c 128,-1,35
 420 25 420 25 350 25 c 0,36,0
 259 25 259 25 190.5 72 c 128,-1,1
EndSplineSet
Validated: 1
EndChar

StartChar: H
Encoding: 72 72 10
Width: 793
GlyphClass: 2
Flags: W
AnchorPoint: "Anchor-3" 410 705 basechar 0
AnchorPoint: "Anchor-2" 410 0 basechar 0
LayerCount: 2
Fore
SplineSet
87 745 m 1,0,-1
 277 745 l 1,1,-1
 277 480 l 1,2,-1
 516 480 l 1,3,-1
 516 745 l 1,4,-1
 706 745 l 1,5,-1
 706 40 l 1,6,-1
 516 40 l 1,7,-1
 516 330 l 1,8,-1
 277 330 l 1,9,-1
 277 40 l 1,10,-1
 87 40 l 1,11,-1
 87 745 l 1,0,-1
EndSplineSet
Validated: 1
EndChar

StartChar: I
Encoding: 73 73 11
Width: 364
GlyphClass: 2
Flags: W
AnchorPoint: "Anchor-4" 195 0 basechar 0
AnchorPoint: "Anchor-3" 195 705 basechar 0
AnchorPoint: "Anchor-2" 195 0 basechar 0
LayerCount: 2
Fore
SplineSet
87 745 m 1,0,-1
 277 745 l 1,1,-1
 277 40 l 1,2,-1
 87 40 l 1,3,-1
 87 745 l 1,0,-1
EndSplineSet
Validated: 1
Substitution2: "'ss07' Style Set 7 in Latin lookup 31 subtable" I.ss07
Substitution2: "'aalt' Access All Alternates in Latin lookup 0 subtable" I.ss07
EndChar

StartChar: J
Encoding: 74 74 12
Width: 443
GlyphClass: 2
Flags: W
AnchorPoint: "Anchor-3" 289 705 basechar 0
AnchorPoint: "Anchor-2" 232 0 basechar 0
LayerCount: 2
Fore
SplineSet
17 41 m 1,1,-1
 17 191 l 1,2,3
 57 183 57 183 85 183 c 0,4,5
 128 183 128 183 154.5 202 c 128,-1,6
 181 221 181 221 181 265 c 2,7,-1
 181 745 l 1,8,-1
 371 745 l 1,9,-1
 371 264 l 2,10,11
 371 133 371 133 304.5 79 c 128,-1,12
 238 25 238 25 136 25 c 0,13,0
 65 25 65 25 17 41 c 1,1,-1
EndSplineSet
Validated: 1
Substitution2: "Single Substitution lookup 35 subtable" uni004A0301
Substitution2: "'aalt' Access All Alternates in Latin lookup 0 subtable" uni004A0301
EndChar

StartChar: K
Encoding: 75 75 13
Width: 745
GlyphClass: 2
Flags: W
AnchorPoint: "Anchor-3" 401 705 basechar 0
AnchorPoint: "Anchor-2" 402 0 basechar 0
LayerCount: 2
Fore
SplineSet
87 745 m 1,0,-1
 277 745 l 1,1,-1
 277 457 l 1,2,-1
 287 457 l 1,3,-1
 490 745 l 1,4,-1
 707 745 l 1,5,-1
 465 458 l 1,6,-1
 720 40 l 1,7,-1
 509 40 l 1,8,-1
 351 333 l 1,9,-1
 277 249 l 1,10,-1
 277 40 l 1,11,-1
 87 40 l 1,12,-1
 87 745 l 1,0,-1
EndSplineSet
Validated: 1
EndChar

StartChar: L
Encoding: 76 76 14
Width: 559
GlyphClass: 2
Flags: W
AnchorPoint: "Anchor-3" 195 705 basechar 0
AnchorPoint: "Anchor-2" 333 0 basechar 0
LayerCount: 2
Fore
SplineSet
87 745 m 1,0,-1
 277 745 l 1,1,-1
 277 40 l 1,2,-1
 87 40 l 1,3,-1
 87 745 l 1,0,-1
177 190 m 1,4,-1
 542 190 l 1,5,-1
 542 40 l 1,6,-1
 277 40 l 1,7,-1
 177 190 l 1,4,-1
EndSplineSet
Validated: 5
EndChar

StartChar: M
Encoding: 77 77 15
Width: 977
GlyphClass: 2
Flags: W
AnchorPoint: "Anchor-3" 502 705 basechar 0
AnchorPoint: "Anchor-2" 502 0 basechar 0
LayerCount: 2
Fore
SplineSet
87 745 m 1,0,-1
 340 745 l 1,1,-1
 433 427 l 2,2,3
 442 393 442 393 446.5 377 c 128,-1,4
 451 361 451 361 460 328 c 0,5,6
 478 255 478 255 483 191 c 1,7,-1
 494 191 l 1,8,9
 499 247 499 247 510.5 298.5 c 128,-1,10
 522 350 522 350 544 427 c 2,11,-1
 637 745 l 1,12,-1
 890 745 l 1,13,-1
 890 40 l 1,14,-1
 717 40 l 1,15,-1
 717 338 l 2,16,17
 717 481 717 481 727 611 c 1,18,-1
 717 611 l 1,19,20
 704 511 704 511 691 449 c 256,21,22
 678 387 678 387 662 338 c 2,23,-1
 619 206 l 1,24,-1
 564 40 l 1,25,-1
 413 40 l 1,26,-1
 358 206 l 1,27,-1
 315 338 l 2,28,29
 296 396 296 396 283.5 460 c 128,-1,30
 271 524 271 524 260 611 c 1,31,-1
 250 611 l 1,32,33
 260 481 260 481 260 338 c 2,34,-1
 260 40 l 1,35,-1
 87 40 l 1,36,-1
 87 745 l 1,0,-1
EndSplineSet
Validated: 1
EndChar

StartChar: N
Encoding: 78 78 16
Width: 820
GlyphClass: 2
Flags: W
AnchorPoint: "Anchor-3" 423 705 basechar 0
AnchorPoint: "Anchor-2" 423 0 basechar 0
LayerCount: 2
Fore
SplineSet
87 745 m 1,0,-1
 298 745 l 1,1,-1
 454 466 l 2,2,3
 492 398 492 398 514 350 c 128,-1,4
 536 302 536 302 553 246 c 1,5,-1
 563 246 l 1,6,7
 559 289 559 289 557 331.5 c 128,-1,8
 555 374 555 374 554 417 c 0,9,10
 553 435 553 435 553 470 c 2,11,-1
 553 745 l 1,12,-1
 733 745 l 1,13,-1
 733 40 l 1,14,-1
 522 40 l 1,15,-1
 361 319 l 2,16,17
 332 370 332 370 309 423 c 0,18,19
 296 451 296 451 286 479 c 128,-1,20
 276 507 276 507 267 539 c 1,21,-1
 257 539 l 1,22,23
 261 496 261 496 263.5 452.5 c 128,-1,24
 266 409 266 409 267 366 c 0,25,26
 267 341 267 341 267 315 c 2,27,-1
 267 40 l 1,28,-1
 87 40 l 1,29,-1
 87 745 l 1,0,-1
EndSplineSet
Validated: 1
EndChar

StartChar: O
Encoding: 79 79 17
Width: 796
GlyphClass: 2
Flags: W
AnchorPoint: "Anchor-4" 527 0 basechar 0
AnchorPoint: "Anchor-3" 411 705 basechar 0
AnchorPoint: "Anchor-2" 411 0 basechar 0
LayerCount: 2
Fore
SplineSet
214.5 71.5 m 128,-1,1
 135 118 135 118 91 201 c 128,-1,2
 47 284 47 284 47 391 c 0,3,4
 47 499 47 499 91 583 c 128,-1,5
 135 667 135 667 214.5 713.5 c 128,-1,6
 294 760 294 760 398 760 c 256,7,8
 502 760 502 760 581.5 713.5 c 128,-1,9
 661 667 661 667 705 583 c 128,-1,10
 749 499 749 499 749 391 c 0,11,12
 749 284 749 284 705 201 c 128,-1,13
 661 118 661 118 581.5 71.5 c 128,-1,14
 502 25 502 25 398 25 c 256,15,0
 294 25 294 25 214.5 71.5 c 128,-1,1
482 192 m 128,-1,17
 517 219 517 219 535.5 270 c 128,-1,18
 554 321 554 321 554 391 c 0,19,20
 554 462 554 462 535.5 513.5 c 128,-1,21
 517 565 517 565 482 592.5 c 128,-1,22
 447 620 447 620 398 620 c 256,23,24
 349 620 349 620 314 592.5 c 128,-1,25
 279 565 279 565 260.5 513.5 c 128,-1,26
 242 462 242 462 242 391 c 0,27,28
 242 321 242 321 260.5 270 c 128,-1,29
 279 219 279 219 314 192 c 128,-1,30
 349 165 349 165 398 165 c 256,31,16
 447 165 447 165 482 192 c 128,-1,17
EndSplineSet
Validated: 1
Substitution2: "Single Substitution lookup 37 subtable" ordmasculine
Substitution2: "'aalt' Access All Alternates in Latin lookup 0 subtable" ordmasculine
EndChar

StartChar: P
Encoding: 80 80 18
Width: 666
GlyphClass: 2
Flags: W
AnchorPoint: "Anchor-3" 369 705 basechar 0
AnchorPoint: "Anchor-2" 369 0 basechar 0
LayerCount: 2
Fore
SplineSet
87 745 m 1,0,-1
 398 745 l 2,1,2
 462 745 462 745 521 717.5 c 128,-1,3
 580 690 580 690 617 635 c 128,-1,4
 654 580 654 580 654 503 c 256,5,6
 654 426 654 426 617 371 c 128,-1,7
 580 316 580 316 521 288.5 c 128,-1,8
 462 261 462 261 398 261 c 2,9,-1
 277 261 l 1,10,-1
 277 40 l 1,11,-1
 87 40 l 1,12,-1
 87 745 l 1,0,-1
431.5 428 m 128,-1,14
 459 453 459 453 459 503 c 256,15,16
 459 553 459 553 431.5 578 c 128,-1,17
 404 603 404 603 361 603 c 2,18,-1
 277 603 l 1,19,-1
 277 403 l 1,20,-1
 361 403 l 2,21,13
 404 403 404 403 431.5 428 c 128,-1,14
EndSplineSet
Validated: 1
EndChar

StartChar: Q
Encoding: 81 81 19
Width: 796
GlyphClass: 2
Flags: W
AnchorPoint: "Anchor-4" 525 0 basechar 0
AnchorPoint: "Anchor-3" 414 705 basechar 0
AnchorPoint: "Anchor-2" 414 0 basechar 0
LayerCount: 2
Fore
SplineSet
214.5 71.5 m 128,-1,1
 135 118 135 118 91 201 c 128,-1,2
 47 284 47 284 47 391 c 0,3,4
 47 499 47 499 91 583 c 128,-1,5
 135 667 135 667 214.5 713.5 c 128,-1,6
 294 760 294 760 398 760 c 256,7,8
 502 760 502 760 581.5 713.5 c 128,-1,9
 661 667 661 667 705 583 c 128,-1,10
 749 499 749 499 749 391 c 0,11,12
 749 284 749 284 705 201 c 128,-1,13
 661 118 661 118 581.5 71.5 c 128,-1,14
 502 25 502 25 398 25 c 256,15,0
 294 25 294 25 214.5 71.5 c 128,-1,1
300 337 m 1,16,-1
 480 337 l 1,17,-1
 770 10 l 1,18,-1
 591 10 l 1,19,-1
 300 337 l 1,16,-1
482 192 m 128,-1,21
 517 219 517 219 535.5 270 c 128,-1,22
 554 321 554 321 554 391 c 0,23,24
 554 462 554 462 535.5 513.5 c 128,-1,25
 517 565 517 565 482 592.5 c 128,-1,26
 447 620 447 620 398 620 c 256,27,28
 349 620 349 620 314 592.5 c 128,-1,29
 279 565 279 565 260.5 513.5 c 128,-1,30
 242 462 242 462 242 391 c 0,31,32
 242 321 242 321 260.5 270 c 128,-1,33
 279 219 279 219 314 192 c 128,-1,34
 349 165 349 165 398 165 c 256,35,20
 447 165 447 165 482 192 c 128,-1,21
EndSplineSet
Validated: 5
Substitution2: "'ss04' Style Set 4 in Latin lookup 29 subtable" Q.ss04
Substitution2: "'aalt' Access All Alternates in Latin lookup 0 subtable" Q.ss04
EndChar

StartChar: R
Encoding: 82 82 20
Width: 721
GlyphClass: 2
Flags: W
AnchorPoint: "Anchor-3" 364 705 basechar 0
AnchorPoint: "Anchor-2" 364 0 basechar 0
LayerCount: 2
Fore
SplineSet
87 745 m 1,0,-1
 402 745 l 2,1,2
 511 745 511 745 575 692 c 128,-1,3
 639 639 639 639 639 549 c 0,4,5
 639 479 639 479 596.5 432 c 128,-1,6
 554 385 554 385 477 368 c 1,7,-1
 477 358 l 1,8,9
 541 349 541 349 573.5 322.5 c 128,-1,10
 606 296 606 296 620 241 c 2,11,-1
 650 120 l 2,12,13
 662 80 662 80 674 40 c 1,14,-1
 472 40 l 1,15,16
 466 54 466 54 461 73 c 0,17,18
 457 89 457 89 455.5 96.5 c 128,-1,19
 454 104 454 104 450 119 c 2,20,-1
 425 233 l 2,21,22
 418 267 418 267 401.5 282.5 c 128,-1,23
 385 298 385 298 352 298 c 2,24,-1
 277 298 l 1,25,-1
 277 40 l 1,26,-1
 87 40 l 1,27,-1
 87 745 l 1,0,-1
420 448 m 128,-1,29
 444 473 444 473 444 517 c 0,30,31
 444 560 444 560 420 585 c 128,-1,32
 396 610 396 610 355 610 c 2,33,-1
 277 610 l 1,34,-1
 277 423 l 1,35,-1
 355 423 l 2,36,28
 396 423 396 423 420 448 c 128,-1,29
EndSplineSet
Validated: 1
EndChar

StartChar: S
Encoding: 83 83 21
Width: 653
GlyphClass: 2
Flags: W
AnchorPoint: "Anchor-3" 334 705 basechar 0
AnchorPoint: "Anchor-2" 334 0 basechar 0
LayerCount: 2
Fore
SplineSet
186.5 49.5 m 128,-1,1
 127 74 127 74 91.5 118 c 128,-1,2
 56 162 56 162 48 218 c 1,3,-1
 244 218 l 1,4,5
 249 199 249 199 261 185.5 c 128,-1,6
 273 172 273 172 291 165 c 128,-1,7
 309 158 309 158 331 158 c 0,8,9
 371 158 371 158 393 180.5 c 128,-1,10
 415 203 415 203 415 242 c 0,11,12
 415 271 415 271 399.5 287.5 c 128,-1,13
 384 304 384 304 352 311 c 2,14,-1
 220 340 l 2,15,16
 139 358 139 358 95.5 411 c 128,-1,17
 52 464 52 464 52 538 c 0,18,19
 52 604 52 604 86.5 654 c 128,-1,20
 121 704 121 704 182.5 732 c 128,-1,21
 244 760 244 760 323 760 c 0,22,23
 395 760 395 760 453.5 736 c 128,-1,24
 512 712 512 712 548.5 668.5 c 128,-1,25
 585 625 585 625 593 567 c 1,26,-1
 397 567 l 1,27,28
 390 595 390 595 369 611 c 128,-1,29
 348 627 348 627 317 627 c 0,30,31
 282 627 282 627 260 607 c 128,-1,32
 238 587 238 587 238 553 c 0,33,34
 238 528 238 528 252 512 c 128,-1,35
 266 496 266 496 298 488 c 2,36,-1
 432 456 l 2,37,38
 512 437 512 437 556 387.5 c 128,-1,39
 600 338 600 338 600 257 c 0,40,41
 600 184 600 184 564.5 131.5 c 128,-1,42
 529 79 529 79 466 52 c 128,-1,43
 403 25 403 25 321 25 c 0,44,0
 246 25 246 25 186.5 49.5 c 128,-1,1
EndSplineSet
Validated: 1
EndChar

StartChar: T
Encoding: 84 84 22
Width: 614
GlyphClass: 2
Flags: W
AnchorPoint: "Anchor-3" 320 705 basechar 0
AnchorPoint: "Anchor-2" 320 0 basechar 0
LayerCount: 2
Fore
SplineSet
212 685 m 1,0,-1
 402 685 l 1,1,-1
 402 40 l 1,2,-1
 212 40 l 1,3,-1
 212 685 l 1,0,-1
17 745 m 1,4,-1
 597 745 l 1,5,-1
 597 595 l 1,6,-1
 17 595 l 1,7,-1
 17 745 l 1,4,-1
EndSplineSet
Validated: 5
EndChar

StartChar: U
Encoding: 85 85 23
Width: 740
GlyphClass: 2
Flags: W
AnchorPoint: "Anchor-4" 495 0 basechar 0
AnchorPoint: "Anchor-3" 383 705 basechar 0
AnchorPoint: "Anchor-2" 383 0 basechar 0
LayerCount: 2
Fore
SplineSet
212.5 57.5 m 128,-1,1
 145 90 145 90 108.5 149 c 128,-1,2
 72 208 72 208 72 286 c 2,3,-1
 72 745 l 1,4,-1
 262 745 l 1,5,-1
 262 294 l 2,6,7
 262 236 262 236 287 203 c 128,-1,8
 312 170 312 170 370 170 c 256,9,10
 428 170 428 170 453 203 c 128,-1,11
 478 236 478 236 478 294 c 2,12,-1
 478 745 l 1,13,-1
 668 745 l 1,14,-1
 668 286 l 2,15,16
 668 208 668 208 631.5 149 c 128,-1,17
 595 90 595 90 527.5 57.5 c 128,-1,18
 460 25 460 25 370 25 c 256,19,0
 280 25 280 25 212.5 57.5 c 128,-1,1
EndSplineSet
Validated: 1
EndChar

StartChar: V
Encoding: 86 86 24
Width: 721
GlyphClass: 2
Flags: W
AnchorPoint: "Anchor-3" 374 705 basechar 0
AnchorPoint: "Anchor-2" 374 0 basechar 0
LayerCount: 2
Fore
SplineSet
11 745 m 1,0,-1
 223 745 l 1,1,-1
 313 417 l 2,2,3
 325 374 325 374 339 310 c 0,4,5
 350 251 350 251 355 205 c 1,6,-1
 366 205 l 1,7,8
 375 275 375 275 388 335 c 0,9,10
 392 354 392 354 397 374.5 c 128,-1,11
 402 395 402 395 408 417 c 2,12,-1
 498 745 l 1,13,-1
 710 745 l 1,14,-1
 461 40 l 1,15,-1
 260 40 l 1,16,-1
 11 745 l 1,0,-1
EndSplineSet
Validated: 1
EndChar

StartChar: W
Encoding: 87 87 25
Width: 1030
GlyphClass: 2
Flags: W
AnchorPoint: "Anchor-3" 528 705 basechar 0
AnchorPoint: "Anchor-2" 528 0 basechar 0
LayerCount: 2
Fore
SplineSet
24 745 m 1,0,-1
 225 745 l 1,1,-1
 282 405 l 2,2,3
 291 349 291 349 297.5 300.5 c 128,-1,4
 304 252 304 252 307 210 c 1,5,-1
 317 210 l 1,6,7
 322 258 322 258 329 298.5 c 128,-1,8
 336 339 336 339 350 406 c 2,9,-1
 421 745 l 1,10,-1
 609 745 l 1,11,-1
 680 406 l 2,12,13
 685 383 685 383 698 316 c 0,14,15
 707 271 707 271 713 210 c 1,16,-1
 723 210 l 1,17,18
 726 252 726 252 732.5 300.5 c 128,-1,19
 739 349 739 349 748 405 c 2,20,-1
 805 745 l 1,21,-1
 1006 745 l 1,22,-1
 815 40 l 1,23,-1
 625 40 l 1,24,-1
 548 388 l 2,25,26
 541 416 541 416 536 444 c 128,-1,27
 531 472 531 472 527 503 c 0,28,29
 525 519 525 519 523.5 536.5 c 128,-1,30
 522 554 522 554 520 574 c 1,31,-1
 510 574 l 1,32,33
 505 516 505 516 498.5 474 c 128,-1,34
 492 432 492 432 482 388 c 2,35,-1
 405 40 l 1,36,-1
 215 40 l 1,37,-1
 24 745 l 1,0,-1
EndSplineSet
Validated: 1
EndChar

StartChar: X
Encoding: 88 88 26
Width: 805
GlyphClass: 2
Flags: W
AnchorPoint: "Anchor-3" 417 705 basechar 0
AnchorPoint: "Anchor-2" 417 0 basechar 0
LayerCount: 2
Fore
SplineSet
284 410 m 1,0,-1
 50 745 l 1,1,-1
 278 745 l 1,2,-1
 352 611 l 2,3,4
 358 598 358 598 365 584 c 128,-1,5
 372 570 372 570 378 555 c 0,6,7
 392 521 392 521 397 505 c 1,8,-1
 407 505 l 1,9,10
 425 561 425 561 452 611 c 2,11,-1
 526 745 l 1,12,-1
 759 745 l 1,13,-1
 526 415 l 1,14,-1
 780 40 l 1,15,-1
 549 40 l 1,16,-1
 458 203 l 2,17,18
 428 256 428 256 410 314 c 1,19,-1
 400 314 l 1,20,21
 395 297 395 297 388.5 280.5 c 128,-1,22
 382 264 382 264 374 248 c 0,23,24
 367 230 367 230 352 203 c 2,25,-1
 260 40 l 1,26,-1
 25 40 l 1,27,-1
 284 410 l 1,0,-1
EndSplineSet
Validated: 1
EndChar

StartChar: Y
Encoding: 89 89 27
Width: 694
GlyphClass: 2
Flags: W
AnchorPoint: "Anchor-3" 360 705 basechar 0
AnchorPoint: "Anchor-2" 360 0 basechar 0
LayerCount: 2
Fore
SplineSet
252 311 m 1,0,-1
 6 745 l 1,1,-1
 221 745 l 1,2,-1
 299 569 l 2,3,4
 329 502 329 502 342 454 c 1,5,-1
 352 454 l 1,6,7
 360 487 360 487 375 523 c 0,8,9
 385 546 385 546 395 569 c 2,10,-1
 473 745 l 1,11,-1
 688 745 l 1,12,-1
 442 311 l 1,13,-1
 442 40 l 1,14,-1
 252 40 l 1,15,-1
 252 311 l 1,0,-1
EndSplineSet
Validated: 1
EndChar

StartChar: Z
Encoding: 90 90 28
Width: 667
GlyphClass: 2
Flags: W
AnchorPoint: "Anchor-3" 363 705 basechar 0
AnchorPoint: "Anchor-2" 362 0 basechar 0
LayerCount: 2
Fore
SplineSet
47 195 m 1,0,-1
 393 590 l 1,1,-1
 393 600 l 1,2,-1
 65 600 l 1,3,-1
 65 745 l 1,4,-1
 605 745 l 1,5,-1
 605 590 l 1,6,-1
 259 195 l 1,7,-1
 259 185 l 1,8,-1
 620 185 l 1,9,-1
 620 40 l 1,10,-1
 47 40 l 1,11,-1
 47 195 l 1,0,-1
EndSplineSet
Validated: 1
EndChar

StartChar: AE
Encoding: 198 198 34
Width: 1014
GlyphClass: 2
Flags: W
AnchorPoint: "Anchor-3" 682 705 basechar 0
AnchorPoint: "Anchor-2" 515 0 basechar 0
LayerCount: 2
Fore
SplineSet
392 745 m 1,0,-1
 495 745 l 1,1,-1
 539 605 l 1,2,-1
 485 605 l 1,3,4
 480 586 480 586 473 567 c 128,-1,5
 466 548 466 548 458 530 c 256,6,7
 450 512 450 512 441 494 c 2,8,-1
 222 40 l 1,9,-1
 11 40 l 1,10,-1
 392 745 l 1,0,-1
208 322 m 1,11,-1
 548 322 l 1,12,-1
 548 182 l 1,13,-1
 208 182 l 1,14,-1
 208 322 l 1,11,-1
595 181 m 1,15,-1
 957 181 l 1,16,-1
 957 40 l 1,17,-1
 680 40 l 1,18,-1
 595 181 l 1,15,-1
495 745 m 1,19,-1
 680 745 l 1,20,-1
 680 40 l 1,21,-1
 495 40 l 1,22,-1
 495 745 l 1,19,-1
595 471 m 1,23,-1
 934 471 l 1,24,-1
 934 331 l 1,25,-1
 595 331 l 1,26,-1
 595 471 l 1,23,-1
680 745 m 1,27,-1
 957 745 l 1,28,-1
 957 605 l 1,29,-1
 595 605 l 1,30,-1
 680 745 l 1,27,-1
EndSplineSet
Validated: 5
EndChar

StartChar: Eth
Encoding: 208 208 59
Width: 759
GlyphClass: 2
Flags: W
AnchorPoint: "Anchor-3" 339 705 basechar 0
AnchorPoint: "Anchor-2" 389 0 basechar 0
LayerCount: 2
Fore
SplineSet
87 745 m 1,0,-1
 376 745 l 2,1,2
 466 745 466 745 543.5 699 c 128,-1,3
 621 653 621 653 666.5 572 c 128,-1,4
 712 491 712 491 712 392 c 256,5,6
 712 293 712 293 666.5 212.5 c 128,-1,7
 621 132 621 132 543.5 86 c 128,-1,8
 466 40 466 40 376 40 c 2,9,-1
 87 40 l 1,10,-1
 87 745 l 1,0,-1
432.5 213.5 m 128,-1,12
 470 237 470 237 493.5 282.5 c 128,-1,13
 517 328 517 328 517 392 c 256,14,15
 517 456 517 456 493.5 502 c 128,-1,16
 470 548 470 548 432.5 571.5 c 128,-1,17
 395 595 395 595 353 595 c 2,18,-1
 277 595 l 1,19,-1
 277 190 l 1,20,-1
 353 190 l 2,21,11
 395 190 395 190 432.5 213.5 c 128,-1,12
5 448 m 1,22,-1
 443 448 l 1,23,-1
 443 339 l 1,24,-1
 5 339 l 1,25,-1
 5 448 l 1,22,-1
EndSplineSet
Validated: 5
EndChar

StartChar: Hbar
Encoding: 294 294 65
Width: 793
GlyphClass: 2
Flags: W
AnchorPoint: "Anchor-3" 410 705 basechar 0
AnchorPoint: "Anchor-2" 410 0 basechar 0
LayerCount: 2
Fore
SplineSet
87 745 m 1,0,-1
 277 745 l 1,1,-1
 277 480 l 1,2,-1
 516 480 l 1,3,-1
 516 745 l 1,4,-1
 706 745 l 1,5,-1
 706 40 l 1,6,-1
 516 40 l 1,7,-1
 516 330 l 1,8,-1
 277 330 l 1,9,-1
 277 40 l 1,10,-1
 87 40 l 1,11,-1
 87 745 l 1,0,-1
9 665 m 1,12,-1
 784 665 l 1,13,-1
 784 565 l 1,14,-1
 9 565 l 1,15,-1
 9 665 l 1,12,-1
EndSplineSet
Validated: 5
EndChar

StartChar: Lcaron
Encoding: 317 317 82
Width: 559
GlyphClass: 2
Flags: W
AnchorPoint: "Anchor-3" 195 705 basechar 0
AnchorPoint: "Anchor-2" 333 0 basechar 0
LayerCount: 2
Fore
SplineSet
87 745 m 1,0,-1
 277 745 l 1,1,-1
 277 40 l 1,2,-1
 87 40 l 1,3,-1
 87 745 l 1,0,-1
177 190 m 1,4,-1
 542 190 l 1,5,-1
 542 40 l 1,6,-1
 277 40 l 1,7,-1
 177 190 l 1,4,-1
380 745 m 1,8,-1
 522 745 l 1,9,-1
 460 595 l 1,10,-1
 345 595 l 1,11,-1
 380 745 l 1,8,-1
EndSplineSet
Validated: 5
EndChar

StartChar: Ldot
Encoding: 319 319 84
Width: 559
GlyphClass: 2
Flags: W
AnchorPoint: "Anchor-3" 195 705 basechar 0
AnchorPoint: "Anchor-2" 333 0 basechar 0
LayerCount: 2
Fore
SplineSet
87 745 m 1,0,-1
 277 745 l 1,1,-1
 277 40 l 1,2,-1
 87 40 l 1,3,-1
 87 745 l 1,0,-1
177 190 m 1,4,-1
 542 190 l 1,5,-1
 542 40 l 1,6,-1
 277 40 l 1,7,-1
 177 190 l 1,4,-1
383.5 367.5 m 128,-1,9
 356 395 356 395 356 434 c 256,10,11
 356 473 356 473 383.5 501 c 128,-1,12
 411 529 411 529 450 529 c 0,13,14
 488 529 488 529 516.5 500.5 c 128,-1,15
 545 472 545 472 545 434 c 0,16,17
 545 395 545 395 517 367.5 c 128,-1,18
 489 340 489 340 450 340 c 256,19,8
 411 340 411 340 383.5 367.5 c 128,-1,9
EndSplineSet
Validated: 5
Ligature2: "Ligature Substitution lookup 34 subtable" L periodcentered
Substitution2: "'ss06' Style Set 6 in Latin lookup 30 subtable" Ldot.ss06
Substitution2: "'aalt' Access All Alternates in Latin lookup 0 subtable" Ldot.ss06
EndChar

StartChar: Lslash
Encoding: 321 321 85
Width: 559
GlyphClass: 2
Flags: W
AnchorPoint: "Anchor-3" 195 705 basechar 0
AnchorPoint: "Anchor-2" 333 0 basechar 0
LayerCount: 2
Fore
SplineSet
87 745 m 1,0,-1
 277 745 l 1,1,-1
 277 40 l 1,2,-1
 87 40 l 1,3,-1
 87 745 l 1,0,-1
177 190 m 1,4,-1
 542 190 l 1,5,-1
 542 40 l 1,6,-1
 277 40 l 1,7,-1
 177 190 l 1,4,-1
30 418 m 1,8,-1
 420 587 l 1,9,-1
 420 467 l 1,10,-1
 30 297 l 1,11,-1
 30 418 l 1,8,-1
EndSplineSet
Validated: 5
EndChar

StartChar: Eng
Encoding: 330 330 90
Width: 820
GlyphClass: 2
Flags: W
AnchorPoint: "Anchor-3" 423 705 basechar 0
AnchorPoint: "Anchor-2" 423 0 basechar 0
LayerCount: 2
Fore
SplineSet
87 745 m 1,0,-1
 298 745 l 1,1,-1
 454 466 l 2,2,3
 492 398 492 398 514 350 c 128,-1,4
 536 302 536 302 553 246 c 1,5,-1
 563 246 l 1,6,7
 559 289 559 289 557 331.5 c 128,-1,8
 555 374 555 374 554 417 c 0,9,10
 553 435 553 435 553 470 c 2,11,-1
 553 745 l 1,12,-1
 733 745 l 1,13,-1
 733 40 l 1,14,-1
 522 40 l 1,15,-1
 361 319 l 2,16,17
 332 370 332 370 309 423 c 0,18,19
 296 451 296 451 286 479 c 128,-1,20
 276 507 276 507 267 539 c 1,21,-1
 257 539 l 1,22,23
 261 496 261 496 263.5 452.5 c 128,-1,24
 266 409 266 409 267 366 c 0,25,26
 267 341 267 341 267 315 c 2,27,-1
 267 40 l 1,28,-1
 87 40 l 1,29,-1
 87 745 l 1,0,-1
493 -133 m 1,31,-1
 493 0 l 1,32,33
 503 -2 503 -2 517 -2 c 0,34,35
 534 -2 534 -2 543.5 5.5 c 128,-1,36
 553 13 553 13 553 28 c 2,37,-1
 553 54 l 1,38,-1
 733 54 l 1,39,-1
 733 2 l 2,40,41
 733 -75 733 -75 689.5 -107.5 c 128,-1,42
 646 -140 646 -140 562 -140 c 0,43,30
 528 -140 528 -140 493 -133 c 1,31,-1
EndSplineSet
Validated: 5
EndChar

StartChar: uni019D
Encoding: 413 413 91
Width: 820
GlyphClass: 2
Flags: W
AnchorPoint: "Anchor-3" 423 705 basechar 0
AnchorPoint: "Anchor-2" 423 0 basechar 0
LayerCount: 2
Fore
SplineSet
87 745 m 1,0,-1
 298 745 l 1,1,-1
 454 466 l 2,2,3
 492 398 492 398 514 350 c 128,-1,4
 536 302 536 302 553 246 c 1,5,-1
 563 246 l 1,6,7
 559 289 559 289 557 331.5 c 128,-1,8
 555 374 555 374 554 417 c 0,9,10
 553 435 553 435 553 470 c 2,11,-1
 553 745 l 1,12,-1
 733 745 l 1,13,-1
 733 40 l 1,14,-1
 522 40 l 1,15,-1
 361 319 l 2,16,17
 332 370 332 370 309 423 c 0,18,19
 296 451 296 451 286 479 c 128,-1,20
 276 507 276 507 267 539 c 1,21,-1
 257 539 l 1,22,23
 261 496 261 496 263.5 452.5 c 128,-1,24
 266 409 266 409 267 366 c 0,25,26
 267 341 267 341 267 315 c 2,27,-1
 267 40 l 1,28,-1
 87 40 l 1,29,-1
 87 745 l 1,0,-1
27 -133 m 1,31,-1
 27 0 l 1,32,33
 37 -2 37 -2 51 -2 c 0,34,35
 68 -2 68 -2 77.5 5.5 c 128,-1,36
 87 13 87 13 87 28 c 2,37,-1
 87 54 l 1,38,-1
 267 54 l 1,39,-1
 267 2 l 2,40,41
 267 -75 267 -75 223.5 -107.5 c 128,-1,42
 180 -140 180 -140 96 -140 c 0,43,30
 62 -140 62 -140 27 -133 c 1,31,-1
EndSplineSet
Validated: 5
EndChar

StartChar: OE
Encoding: 338 338 97
Width: 972
GlyphClass: 2
Flags: W
AnchorPoint: "Anchor-3" 499 705 basechar 0
AnchorPoint: "Anchor-2" 499 0 basechar 0
LayerCount: 2
Fore
SplineSet
232.5 83.5 m 128,-1,1
 145 127 145 127 96 206.5 c 128,-1,2
 47 286 47 286 47 391 c 256,3,4
 47 496 47 496 95.5 576.5 c 128,-1,5
 144 657 144 657 231.5 701 c 128,-1,6
 319 745 319 745 433 745 c 2,7,-1
 453 745 l 1,8,-1
 501 610 l 1,9,-1
 431 610 l 2,10,11
 378 610 378 610 335 585 c 128,-1,12
 292 560 292 560 267 510.5 c 128,-1,13
 242 461 242 461 242 391 c 0,14,15
 242 322 242 322 267 273 c 128,-1,16
 292 224 292 224 335 199.5 c 128,-1,17
 378 175 378 175 431 175 c 2,18,-1
 501 175 l 1,19,-1
 453 40 l 1,20,-1
 433 40 l 2,21,0
 320 40 320 40 232.5 83.5 c 128,-1,1
574 180 m 1,22,-1
 915 180 l 1,23,-1
 915 40 l 1,24,-1
 643 40 l 1,25,-1
 574 180 l 1,22,-1
453 745 m 1,26,-1
 643 745 l 1,27,-1
 643 40 l 1,28,-1
 453 40 l 1,29,-1
 453 745 l 1,26,-1
538 470 m 1,30,-1
 892 470 l 1,31,-1
 892 330 l 1,32,-1
 538 330 l 1,33,-1
 538 470 l 1,30,-1
643 745 m 1,34,-1
 915 745 l 1,35,-1
 915 605 l 1,36,-1
 560 605 l 1,37,-1
 643 745 l 1,34,-1
EndSplineSet
Validated: 5
EndChar

StartChar: Oslash
Encoding: 216 216 101
Width: 796
GlyphClass: 2
Flags: W
AnchorPoint: "Anchor-4" 527 0 basechar 0
AnchorPoint: "Anchor-3" 411 705 basechar 0
AnchorPoint: "Anchor-2" 411 0 basechar 0
LayerCount: 2
Fore
SplineSet
214.5 71.5 m 128,-1,1
 135 118 135 118 91 201 c 128,-1,2
 47 284 47 284 47 391 c 0,3,4
 47 499 47 499 91 583 c 128,-1,5
 135 667 135 667 214.5 713.5 c 128,-1,6
 294 760 294 760 398 760 c 256,7,8
 502 760 502 760 581.5 713.5 c 128,-1,9
 661 667 661 667 705 583 c 128,-1,10
 749 499 749 499 749 391 c 0,11,12
 749 284 749 284 705 201 c 128,-1,13
 661 118 661 118 581.5 71.5 c 128,-1,14
 502 25 502 25 398 25 c 256,15,0
 294 25 294 25 214.5 71.5 c 128,-1,1
482 192 m 128,-1,17
 517 219 517 219 535.5 270 c 128,-1,18
 554 321 554 321 554 391 c 0,19,20
 554 462 554 462 535.5 513.5 c 128,-1,21
 517 565 517 565 482 592.5 c 128,-1,22
 447 620 447 620 398 620 c 256,23,24
 349 620 349 620 314 592.5 c 128,-1,25
 279 565 279 565 260.5 513.5 c 128,-1,26
 242 462 242 462 242 391 c 0,27,28
 242 321 242 321 260.5 270 c 128,-1,29
 279 219 279 219 314 192 c 128,-1,30
 349 165 349 165 398 165 c 256,31,16
 447 165 447 165 482 192 c 128,-1,17
652 758 m 1,32,-1
 776 758 l 1,33,-1
 143 28 l 1,34,-1
 19 28 l 1,35,-1
 652 758 l 1,32,-1
EndSplineSet
Validated: 5
EndChar

StartChar: Oslashacute
Encoding: 510 510 102
Width: 796
GlyphClass: 2
Flags: W
AnchorPoint: "Anchor-4" 527 0 basechar 0
AnchorPoint: "Anchor-3" 464 930 basechar 0
AnchorPoint: "Anchor-2" 411 0 basechar 0
LayerCount: 2
Fore
SplineSet
214.5 71.5 m 128,-1,1
 135 118 135 118 91 201 c 128,-1,2
 47 284 47 284 47 391 c 0,3,4
 47 499 47 499 91 583 c 128,-1,5
 135 667 135 667 214.5 713.5 c 128,-1,6
 294 760 294 760 398 760 c 256,7,8
 502 760 502 760 581.5 713.5 c 128,-1,9
 661 667 661 667 705 583 c 128,-1,10
 749 499 749 499 749 391 c 0,11,12
 749 284 749 284 705 201 c 128,-1,13
 661 118 661 118 581.5 71.5 c 128,-1,14
 502 25 502 25 398 25 c 256,15,0
 294 25 294 25 214.5 71.5 c 128,-1,1
482 192 m 128,-1,17
 517 219 517 219 535.5 270 c 128,-1,18
 554 321 554 321 554 391 c 0,19,20
 554 462 554 462 535.5 513.5 c 128,-1,21
 517 565 517 565 482 592.5 c 128,-1,22
 447 620 447 620 398 620 c 256,23,24
 349 620 349 620 314 592.5 c 128,-1,25
 279 565 279 565 260.5 513.5 c 128,-1,26
 242 462 242 462 242 391 c 0,27,28
 242 321 242 321 260.5 270 c 128,-1,29
 279 219 279 219 314 192 c 128,-1,30
 349 165 349 165 398 165 c 256,31,16
 447 165 447 165 482 192 c 128,-1,17
652 758 m 1,32,-1
 776 758 l 1,33,-1
 143 28 l 1,34,-1
 19 28 l 1,35,-1
 652 758 l 1,32,-1
406 970 m 1,36,-1
 604 970 l 1,37,-1
 479 815 l 1,38,-1
 317 815 l 1,39,-1
 406 970 l 1,36,-1
EndSplineSet
Validated: 5
EndChar

StartChar: Tbar
Encoding: 358 358 112
Width: 614
GlyphClass: 2
Flags: W
AnchorPoint: "Anchor-3" 320 705 basechar 0
AnchorPoint: "Anchor-2" 320 0 basechar 0
LayerCount: 2
Fore
SplineSet
212 685 m 1,0,-1
 402 685 l 1,1,-1
 402 40 l 1,2,-1
 212 40 l 1,3,-1
 212 685 l 1,0,-1
17 745 m 1,4,-1
 597 745 l 1,5,-1
 597 595 l 1,6,-1
 17 595 l 1,7,-1
 17 745 l 1,4,-1
86 408 m 1,8,-1
 524 408 l 1,9,-1
 524 299 l 1,10,-1
 86 299 l 1,11,-1
 86 408 l 1,8,-1
EndSplineSet
Validated: 5
EndChar

StartChar: Thorn
Encoding: 222 222 116
Width: 674
GlyphClass: 2
Flags: W
AnchorPoint: "Anchor-3" 368 705 basechar 0
AnchorPoint: "Anchor-2" 368 0 basechar 0
LayerCount: 2
Fore
SplineSet
87 745 m 1,0,-1
 277 745 l 1,1,-1
 277 635 l 1,2,-1
 400 635 l 2,3,4
 469 635 469 635 529 609 c 128,-1,5
 589 583 589 583 625.5 531.5 c 128,-1,6
 662 480 662 480 662 406 c 256,7,8
 662 332 662 332 625.5 280 c 128,-1,9
 589 228 589 228 529 202 c 128,-1,10
 469 176 469 176 400 176 c 2,11,-1
 277 176 l 1,12,-1
 277 40 l 1,13,-1
 87 40 l 1,14,-1
 87 745 l 1,0,-1
444.5 345.5 m 128,-1,16
 467 365 467 365 467 406 c 0,17,18
 467 448 467 448 445 466.5 c 128,-1,19
 423 485 423 485 382 485 c 2,20,-1
 277 485 l 1,21,-1
 277 326 l 1,22,-1
 382 326 l 2,23,15
 422 326 422 326 444.5 345.5 c 128,-1,16
EndSplineSet
Validated: 1
EndChar

StartChar: uni1E9E
Encoding: 7838 7838 142
Width: 769
GlyphClass: 1
Flags: W
LayerCount: 2
Fore
SplineSet
399 29.5 m 128,-1,1
 365 34 365 34 346 41 c 1,2,-1
 346 190 l 1,3,4
 369 183 369 183 392.5 179 c 128,-1,5
 416 175 416 175 436 175 c 0,6,7
 481 175 481 175 501.5 200.5 c 128,-1,8
 522 226 522 226 522 267 c 0,9,10
 522 302 522 302 503.5 321.5 c 128,-1,11
 485 341 485 341 450 341 c 2,12,-1
 371 341 l 1,13,-1
 371 478 l 1,14,-1
 459 595 l 1,15,-1
 459 605 l 1,16,-1
 277 605 l 1,17,-1
 277 40 l 1,18,-1
 87 40 l 1,19,-1
 87 745 l 1,20,-1
 650 745 l 1,21,-1
 650 588 l 1,22,-1
 566 477 l 1,23,-1
 566 467 l 1,24,-1
 566 467 l 1,25,26
 634 458 634 458 675.5 405 c 128,-1,27
 717 352 717 352 717 263 c 0,28,29
 717 199 717 199 689.5 144.5 c 128,-1,30
 662 90 662 90 606 57.5 c 128,-1,31
 550 25 550 25 470 25 c 0,32,0
 433 25 433 25 399 29.5 c 128,-1,1
EndSplineSet
Validated: 5
EndChar

StartChar: uni018F
Encoding: 399 399 143
Width: 822
GlyphClass: 2
Flags: W
AnchorPoint: "Anchor-3" 427 705 basechar 0
AnchorPoint: "Anchor-2" 427 0 basechar 0
LayerCount: 2
Fore
SplineSet
220 72 m 128,-1,1
 137 119 137 119 92 202.5 c 128,-1,2
 47 286 47 286 47 391 c 0,3,4
 47 421 47 421 51 437 c 1,5,-1
 589 437 l 1,6,-1
 589 317 l 1,7,-1
 253 317 l 1,8,9
 256 266 256 266 278 232 c 128,-1,10
 300 198 300 198 334.5 181.5 c 128,-1,11
 369 165 369 165 411 165 c 0,12,13
 464 165 464 165 502 190.5 c 128,-1,14
 540 216 540 216 560 267.5 c 128,-1,15
 580 319 580 319 580 393 c 1,16,-1
 580 393 l 1,17,18
 580 467 580 467 559 518 c 128,-1,19
 538 569 538 569 498 594.5 c 128,-1,20
 458 620 458 620 403 620 c 0,21,22
 353 620 353 620 318 596 c 128,-1,23
 283 572 283 572 268 533 c 1,24,-1
 69 533 l 1,25,26
 84 598 84 598 128.5 649.5 c 128,-1,27
 173 701 173 701 243.5 730.5 c 128,-1,28
 314 760 314 760 403 760 c 0,29,30
 514 760 514 760 598.5 714.5 c 128,-1,31
 683 669 683 669 729 585.5 c 128,-1,32
 775 502 775 502 775 392 c 0,33,34
 775 283 775 283 728.5 199.5 c 128,-1,35
 682 116 682 116 599 70.5 c 128,-1,36
 516 25 516 25 411 25 c 0,37,0
 303 25 303 25 220 72 c 128,-1,1
EndSplineSet
Validated: 5
EndChar

StartChar: a
Encoding: 97 97 144
Width: 591
GlyphClass: 2
Flags: W
AnchorPoint: "Anchor-4" 484 0 basechar 0
AnchorPoint: "Anchor-3" 310 515 basechar 0
AnchorPoint: "Anchor-2" 310 0 basechar 0
LayerCount: 2
Fore
SplineSet
83 66.5 m 128,-1,1
 37 108 37 108 37 176 c 0,2,3
 37 241 37 241 76 280.5 c 128,-1,4
 115 320 115 320 194 338 c 2,5,-1
 290 361 l 2,6,7
 320 368 320 368 332 379 c 128,-1,8
 344 390 344 390 344 414 c 0,9,10
 344 436 344 436 330 449 c 128,-1,11
 316 462 316 462 293 462 c 0,12,13
 268 462 268 462 253 448 c 128,-1,14
 238 434 238 434 236 411 c 1,15,-1
 51 411 l 1,16,17
 57 461 57 461 87.5 497 c 128,-1,18
 118 533 118 533 171 551.5 c 128,-1,19
 224 570 224 570 295 570 c 0,20,21
 403 570 403 570 462.5 523 c 128,-1,22
 522 476 522 476 522 391 c 2,23,-1
 522 189 l 2,24,25
 522 179 522 179 527 174 c 128,-1,26
 532 169 532 169 542 169 c 0,27,28
 548 169 548 169 559 171 c 1,29,-1
 559 44 l 1,30,31
 534 36 534 36 516.5 33 c 128,-1,32
 499 30 499 30 478 30 c 0,33,34
 427 30 427 30 397.5 49 c 128,-1,35
 368 68 368 68 360 106 c 1,36,-1
 350 106 l 1,37,38
 329 66 329 66 291.5 45.5 c 128,-1,39
 254 25 254 25 203 25 c 0,40,0
 129 25 129 25 83 66.5 c 128,-1,1
327.5 163 m 128,-1,42
 344 183 344 183 344 222 c 2,43,-1
 344 296 l 1,44,45
 339 291 339 291 327.5 286 c 128,-1,46
 316 281 316 281 302 277 c 2,47,-1
 274 269 l 2,48,49
 248 262 248 262 234.5 244 c 128,-1,50
 221 226 221 226 221 201 c 256,51,52
 221 176 221 176 237.5 159.5 c 128,-1,53
 254 143 254 143 279 143 c 0,54,41
 311 143 311 143 327.5 163 c 128,-1,42
EndSplineSet
Validated: 1
Substitution2: "Single Substitution lookup 37 subtable" ordfeminine
Substitution2: "'ss01' Style Set 1 in Latin lookup 26 subtable" a.ss01
AlternateSubs2: "'aalt' Access All Alternates in Latin lookup 1 subtable" ordfeminine a.ss01
EndChar

StartChar: b
Encoding: 98 98 145
Width: 636
GlyphClass: 2
Flags: W
AnchorPoint: "Anchor-3" 346 515 basechar 0
AnchorPoint: "Anchor-2" 346 0 basechar 0
LayerCount: 2
Fore
SplineSet
311 49.5 m 128,-1,1
 271 74 271 74 249 118 c 1,2,-1
 239 118 l 1,3,-1
 239 40 l 1,4,-1
 69 40 l 1,5,-1
 69 775 l 1,6,-1
 249 775 l 1,7,-1
 249 478 l 1,8,-1
 259 478 l 1,9,10
 279 521 279 521 317.5 545.5 c 128,-1,11
 356 570 356 570 409 570 c 0,12,13
 463 570 463 570 506 540 c 128,-1,14
 549 510 549 510 574 449 c 128,-1,15
 599 388 599 388 599 298 c 0,16,17
 599 207 599 207 574.5 146 c 128,-1,18
 550 85 550 85 507 55 c 128,-1,19
 464 25 464 25 409 25 c 0,20,0
 351 25 351 25 311 49.5 c 128,-1,1
391 186 m 128,-1,22
 414 222 414 222 414 298 c 0,23,24
 414 373 414 373 391 409 c 128,-1,25
 368 445 368 445 329 445 c 0,26,27
 304 445 304 445 285 430 c 128,-1,28
 266 415 266 415 255 382 c 128,-1,29
 244 349 244 349 244 298 c 256,30,31
 244 247 244 247 255 214 c 128,-1,32
 266 181 266 181 285 165.5 c 128,-1,33
 304 150 304 150 329 150 c 0,34,21
 368 150 368 150 391 186 c 128,-1,22
EndSplineSet
Validated: 1
EndChar

StartChar: c
Encoding: 99 99 146
Width: 573
GlyphClass: 2
Flags: W
AnchorPoint: "Anchor-3" 316 515 basechar 0
AnchorPoint: "Anchor-2" 316 0 basechar 0
LayerCount: 2
Fore
SplineSet
158.5 58 m 128,-1,1
 98 91 98 91 65.5 152.5 c 128,-1,2
 33 214 33 214 33 298 c 1,3,-1
 33 298 l 1,4,5
 33 381 33 381 65.5 442.5 c 128,-1,6
 98 504 98 504 158.5 537 c 128,-1,7
 219 570 219 570 301 570 c 0,8,9
 366 570 366 570 418.5 548 c 128,-1,10
 471 526 471 526 503.5 486 c 128,-1,11
 536 446 536 446 543 394 c 1,12,-1
 358 394 l 1,13,14
 353 419 353 419 337.5 432 c 128,-1,15
 322 445 322 445 297 445 c 0,16,17
 258 445 258 445 238.5 408.5 c 128,-1,18
 219 372 219 372 219 298 c 1,19,-1
 219 298 l 1,20,21
 219 225 219 225 239 187.5 c 128,-1,22
 259 150 259 150 298 150 c 0,23,24
 322 150 322 150 337.5 163.5 c 128,-1,25
 353 177 353 177 359 203 c 1,26,-1
 544 203 l 1,27,28
 537 150 537 150 504.5 109.5 c 128,-1,29
 472 69 472 69 419.5 47 c 128,-1,30
 367 25 367 25 302 25 c 0,31,0
 219 25 219 25 158.5 58 c 128,-1,1
EndSplineSet
Validated: 5
EndChar

StartChar: d
Encoding: 100 100 147
Width: 636
GlyphClass: 2
Flags: W
AnchorPoint: "Anchor-3" 368 735 basechar 0
AnchorPoint: "Anchor-2" 368 0 basechar 0
LayerCount: 2
Fore
SplineSet
129 55 m 128,-1,1
 86 85 86 85 61.5 146 c 128,-1,2
 37 207 37 207 37 298 c 0,3,4
 37 388 37 388 62 449 c 128,-1,5
 87 510 87 510 130 540 c 128,-1,6
 173 570 173 570 227 570 c 0,7,8
 280 570 280 570 318.5 545.5 c 128,-1,9
 357 521 357 521 377 478 c 1,10,-1
 387 478 l 1,11,-1
 387 775 l 1,12,-1
 567 775 l 1,13,-1
 567 40 l 1,14,-1
 397 40 l 1,15,-1
 397 118 l 1,16,-1
 387 118 l 1,17,18
 365 74 365 74 325 49.5 c 128,-1,19
 285 25 285 25 227 25 c 0,20,0
 172 25 172 25 129 55 c 128,-1,1
351 165.5 m 128,-1,22
 370 181 370 181 381 214 c 128,-1,23
 392 247 392 247 392 298 c 256,24,25
 392 349 392 349 381 382 c 128,-1,26
 370 415 370 415 351 430 c 128,-1,27
 332 445 332 445 307 445 c 0,28,29
 268 445 268 445 245 409 c 128,-1,30
 222 373 222 373 222 298 c 0,31,32
 222 222 222 222 245 186 c 128,-1,33
 268 150 268 150 307 150 c 0,34,21
 332 150 332 150 351 165.5 c 128,-1,22
EndSplineSet
Validated: 1
EndChar

StartChar: e
Encoding: 101 101 148
Width: 584
GlyphClass: 2
Flags: W
AnchorPoint: "Anchor-4" 392 0 basechar 0
AnchorPoint: "Anchor-3" 304 515 basechar 0
AnchorPoint: "Anchor-2" 304 0 basechar 0
LayerCount: 2
Fore
SplineSet
157 58.5 m 128,-1,1
 97 92 97 92 65 154 c 128,-1,2
 33 216 33 216 33 299 c 0,3,4
 33 378 33 378 66 439.5 c 128,-1,5
 99 501 99 501 158 535.5 c 128,-1,6
 217 570 217 570 292 570 c 0,7,8
 369 570 369 570 428.5 537.5 c 128,-1,9
 488 505 488 505 520.5 446.5 c 128,-1,10
 553 388 553 388 553 312 c 1,11,-1
 553 312 l 1,12,13
 553 283 553 283 547 257 c 1,14,-1
 110 257 l 1,15,-1
 110 350 l 1,16,-1
 369 350 l 1,17,18
 369 410 369 410 349 442 c 128,-1,19
 329 474 329 474 291 474 c 256,20,21
 253 474 253 474 233 442 c 128,-1,22
 213 410 213 410 213 350 c 2,23,-1
 213 258 l 2,24,25
 213 199 213 199 235.5 168 c 128,-1,26
 258 137 258 137 301 137 c 0,27,28
 320 137 320 137 335 144.5 c 128,-1,29
 350 152 350 152 358 165 c 1,30,-1
 544 165 l 1,31,32
 525 100 525 100 459 62.5 c 128,-1,33
 393 25 393 25 297 25 c 0,34,0
 217 25 217 25 157 58.5 c 128,-1,1
EndSplineSet
Validated: 5
EndChar

StartChar: f
Encoding: 102 102 149
Width: 390
GlyphClass: 2
Flags: W
AnchorPoint: "Anchor-3" 209 735 basechar 0
AnchorPoint: "Anchor-2" 209 0 basechar 0
LayerCount: 2
Fore
SplineSet
150 742 m 128,-1,1
 201 790 201 790 295 790 c 2,2,-1
 358 790 l 1,3,-1
 358 660 l 1,4,-1
 327 660 l 2,5,6
 303 660 303 660 291 645 c 128,-1,7
 279 630 279 630 279 600 c 2,8,-1
 279 40 l 1,9,-1
 99 40 l 1,10,-1
 99 606 l 2,11,0
 99 694 99 694 150 742 c 128,-1,1
32 555 m 1,12,-1
 358 555 l 1,13,-1
 358 425 l 1,14,-1
 32 425 l 1,15,-1
 32 555 l 1,12,-1
EndSplineSet
Validated: 5
EndChar

StartChar: g
Encoding: 103 103 150
Width: 678
GlyphClass: 2
Flags: W
AnchorPoint: "Anchor-3" 347 515 basechar 0
AnchorPoint: "Anchor-2" 347 -165 basechar 0
LayerCount: 2
Fore
SplineSet
94.5 -110 m 128,-1,1
 17 -80 17 -80 17 -16 c 0,2,3
 17 21 17 21 39 40.5 c 128,-1,4
 61 60 61 60 105 65 c 1,5,-1
 105 75 l 1,6,-1
 235 61 l 1,7,8
 206 61 206 61 192 51.5 c 128,-1,9
 178 42 178 42 178 26 c 0,10,11
 178 0 178 0 211 -10.5 c 128,-1,12
 244 -21 244 -21 316 -21 c 0,13,14
 391 -21 391 -21 428.5 -9 c 128,-1,15
 466 3 466 3 466 30 c 0,16,17
 466 40 466 40 460 45.5 c 128,-1,18
 454 51 454 51 440 51 c 2,19,-1
 222 51 l 2,20,21
 164 51 164 51 124 65.5 c 128,-1,22
 84 80 84 80 63.5 103.5 c 128,-1,23
 43 127 43 127 43 155 c 0,24,25
 43 189 43 189 65 212.5 c 128,-1,26
 87 236 87 236 128 243 c 1,27,-1
 128 253 l 1,28,-1
 232 227 l 1,29,30
 214 224 214 224 205 216.5 c 128,-1,31
 196 209 196 209 196 196 c 256,32,33
 196 183 196 183 206.5 175.5 c 128,-1,34
 217 168 217 168 239 168 c 2,35,-1
 470 168 l 2,36,37
 545 168 545 168 586 136.5 c 128,-1,38
 627 105 627 105 627 40 c 0,39,40
 627 -52 627 -52 545.5 -96 c 128,-1,41
 464 -140 464 -140 311 -140 c 0,42,0
 172 -140 172 -140 94.5 -110 c 128,-1,1
124 255.5 m 128,-1,44
 57 302 57 302 57 385 c 0,45,46
 57 472 57 472 124 521 c 128,-1,47
 191 570 191 570 307 570 c 256,48,49
 423 570 423 570 490.5 521 c 128,-1,50
 558 472 558 472 558 385 c 0,51,52
 558 302 558 302 490.5 255.5 c 128,-1,53
 423 209 423 209 307 209 c 256,54,43
 191 209 191 209 124 255.5 c 128,-1,44
355 333 m 128,-1,56
 373 352 373 352 373 390 c 0,57,58
 373 426 373 426 355 445.5 c 128,-1,59
 337 465 337 465 307 465 c 0,60,61
 279 465 279 465 260.5 445.5 c 128,-1,62
 242 426 242 426 242 390 c 0,63,64
 242 353 242 353 260.5 333.5 c 128,-1,65
 279 314 279 314 307 314 c 0,66,55
 337 314 337 314 355 333 c 128,-1,56
618 432 m 0,68,69
 585 432 585 432 571.5 418.5 c 128,-1,70
 558 405 558 405 558 385 c 1,71,-1
 558 385 l 1,72,-1
 528 483 l 1,73,-1
 538 483 l 1,74,75
 542 529 542 529 563.5 549.5 c 128,-1,76
 585 570 585 570 615 570 c 0,77,78
 638 570 638 570 651 566 c 1,79,-1
 651 429 l 1,80,67
 636 432 636 432 618 432 c 0,68,69
EndSplineSet
Validated: 5
Substitution2: "'ss02' Style Set 2 in Latin lookup 27 subtable" g.ss02
Substitution2: "'aalt' Access All Alternates in Latin lookup 0 subtable" g.ss02
EndChar

StartChar: h
Encoding: 104 104 151
Width: 632
GlyphClass: 2
Flags: W
AnchorPoint: "Anchor-3" 332 705 basechar 0
AnchorPoint: "Anchor-2" 333 0 basechar 0
LayerCount: 2
Fore
SplineSet
69 775 m 1,0,-1
 250 775 l 1,1,-1
 250 486 l 1,2,-1
 260 486 l 1,3,4
 281 529 281 529 320.5 549.5 c 128,-1,5
 360 570 360 570 407 570 c 0,6,7
 479 570 479 570 523.5 521.5 c 128,-1,8
 568 473 568 473 568 377 c 2,9,-1
 568 40 l 1,10,-1
 388 40 l 1,11,-1
 388 365 l 2,12,13
 388 399 388 399 371.5 419 c 128,-1,14
 355 439 355 439 322 439 c 0,15,16
 288 439 288 439 268.5 418 c 128,-1,17
 249 397 249 397 249 358 c 2,18,-1
 249 40 l 1,19,-1
 69 40 l 1,20,-1
 69 775 l 1,0,-1
EndSplineSet
Validated: 1
EndChar

StartChar: k
Encoding: 107 107 154
Width: 626
GlyphClass: 2
Flags: W
AnchorPoint: "Anchor-3" 332 735 basechar 0
AnchorPoint: "Anchor-2" 332 0 basechar 0
LayerCount: 2
Fore
SplineSet
69 775 m 1,0,-1
 249 775 l 1,1,-1
 249 377 l 1,2,-1
 259 377 l 1,3,-1
 399 555 l 1,4,-1
 607 555 l 1,5,-1
 405 353 l 1,6,-1
 623 40 l 1,7,-1
 427 40 l 1,8,-1
 285 273 l 1,9,-1
 249 234 l 1,10,-1
 249 40 l 1,11,-1
 69 40 l 1,12,-1
 69 775 l 1,0,-1
EndSplineSet
Validated: 1
EndChar

StartChar: l
Encoding: 108 108 155
Width: 318
GlyphClass: 2
Flags: W
AnchorPoint: "Anchor-3" 172 705 basechar 0
AnchorPoint: "Anchor-2" 172 0 basechar 0
LayerCount: 2
Fore
SplineSet
69 775 m 1,0,-1
 249 775 l 1,1,-1
 249 40 l 1,2,-1
 69 40 l 1,3,-1
 69 775 l 1,0,-1
EndSplineSet
Validated: 1
Substitution2: "'ss07' Style Set 7 in Latin lookup 31 subtable" l.ss07
Substitution2: "'aalt' Access All Alternates in Latin lookup 0 subtable" l.ss07
EndChar

StartChar: m
Encoding: 109 109 156
Width: 899
GlyphClass: 2
Flags: W
AnchorPoint: "Anchor-3" 479 515 basechar 0
AnchorPoint: "Anchor-2" 479 0 basechar 0
LayerCount: 2
Fore
SplineSet
69 555 m 1,0,-1
 239 555 l 1,1,-1
 239 476 l 1,2,-1
 249 476 l 1,3,4
 267 523 267 523 302 546.5 c 128,-1,5
 337 570 337 570 388 570 c 0,6,7
 440 570 440 570 474 548 c 128,-1,8
 508 526 508 526 527 481 c 1,9,-1
 537 481 l 1,10,11
 555 525 555 525 591.5 547.5 c 128,-1,12
 628 570 628 570 680 570 c 0,13,14
 756 570 756 570 795.5 523 c 128,-1,15
 835 476 835 476 835 387 c 2,16,-1
 835 40 l 1,17,-1
 655 40 l 1,18,-1
 655 366 l 2,19,20
 655 402 655 402 641 420.5 c 128,-1,21
 627 439 627 439 601 439 c 0,22,23
 572 439 572 439 557 417.5 c 128,-1,24
 542 396 542 396 542 356 c 2,25,-1
 542 40 l 1,26,-1
 362 40 l 1,27,-1
 362 366 l 2,28,29
 362 402 362 402 348 420.5 c 128,-1,30
 334 439 334 439 306 439 c 256,31,32
 278 439 278 439 263.5 417.5 c 128,-1,33
 249 396 249 396 249 356 c 2,34,-1
 249 40 l 1,35,-1
 69 40 l 1,36,-1
 69 555 l 1,0,-1
EndSplineSet
Validated: 1
EndChar

StartChar: n
Encoding: 110 110 157
Width: 632
GlyphClass: 2
Flags: W
AnchorPoint: "Anchor-3" 329 515 basechar 0
AnchorPoint: "Anchor-2" 329 0 basechar 0
LayerCount: 2
Fore
SplineSet
69 555 m 1,0,-1
 239 555 l 1,1,-1
 239 476 l 1,2,-1
 249 476 l 1,3,4
 269 525 269 525 310 547.5 c 128,-1,5
 351 570 351 570 402 570 c 0,6,7
 478 570 478 570 523 521.5 c 128,-1,8
 568 473 568 473 568 377 c 2,9,-1
 568 40 l 1,10,-1
 388 40 l 1,11,-1
 388 365 l 2,12,13
 388 399 388 399 371.5 419 c 128,-1,14
 355 439 355 439 322 439 c 0,15,16
 288 439 288 439 268.5 418 c 128,-1,17
 249 397 249 397 249 358 c 2,18,-1
 249 40 l 1,19,-1
 69 40 l 1,20,-1
 69 555 l 1,0,-1
EndSplineSet
Validated: 1
EndChar

StartChar: o
Encoding: 111 111 158
Width: 604
GlyphClass: 2
Flags: W
AnchorPoint: "Anchor-4" 427 0 basechar 0
AnchorPoint: "Anchor-3" 315 515 basechar 0
AnchorPoint: "Anchor-2" 315 0 basechar 0
LayerCount: 2
Fore
SplineSet
158.5 59 m 128,-1,1
 98 93 98 93 65.5 154.5 c 128,-1,2
 33 216 33 216 33 298 c 0,3,4
 33 379 33 379 65.5 440.5 c 128,-1,5
 98 502 98 502 158.5 536 c 128,-1,6
 219 570 219 570 302 570 c 256,7,8
 385 570 385 570 445.5 536 c 128,-1,9
 506 502 506 502 538.5 440.5 c 128,-1,10
 571 379 571 379 571 298 c 0,11,12
 571 216 571 216 538.5 154.5 c 128,-1,13
 506 93 506 93 445.5 59 c 128,-1,14
 385 25 385 25 302 25 c 256,15,0
 219 25 219 25 158.5 59 c 128,-1,1
364.5 187 m 128,-1,17
 386 224 386 224 386 298 c 0,18,19
 386 371 386 371 364.5 408 c 128,-1,20
 343 445 343 445 302 445 c 256,21,22
 261 445 261 445 239.5 408 c 128,-1,23
 218 371 218 371 218 298 c 0,24,25
 218 224 218 224 239.5 187 c 128,-1,26
 261 150 261 150 302 150 c 256,27,16
 343 150 343 150 364.5 187 c 128,-1,17
EndSplineSet
Validated: 1
Substitution2: "Single Substitution lookup 37 subtable" ordmasculine
Substitution2: "'aalt' Access All Alternates in Latin lookup 0 subtable" ordmasculine
EndChar

StartChar: p
Encoding: 112 112 159
Width: 636
GlyphClass: 2
Flags: W
AnchorPoint: "Anchor-3" 350 515 basechar 0
AnchorPoint: "Anchor-2" 350 0 basechar 0
LayerCount: 2
Fore
SplineSet
69 555 m 1,0,-1
 239 555 l 1,1,-1
 239 477 l 1,2,-1
 249 477 l 1,3,4
 271 521 271 521 311 545.5 c 128,-1,5
 351 570 351 570 409 570 c 0,6,7
 464 570 464 570 507 540 c 128,-1,8
 550 510 550 510 574.5 449 c 128,-1,9
 599 388 599 388 599 297 c 0,10,11
 599 207 599 207 574 146 c 128,-1,12
 549 85 549 85 506 55 c 128,-1,13
 463 25 463 25 409 25 c 0,14,15
 356 25 356 25 317.5 49.5 c 128,-1,16
 279 74 279 74 259 117 c 1,17,-1
 249 117 l 1,18,-1
 249 -125 l 1,19,-1
 69 -125 l 1,20,-1
 69 555 l 1,0,-1
391 186 m 128,-1,22
 414 222 414 222 414 297 c 0,23,24
 414 373 414 373 391 409 c 128,-1,25
 368 445 368 445 329 445 c 0,26,27
 304 445 304 445 285 429.5 c 128,-1,28
 266 414 266 414 255 381 c 128,-1,29
 244 348 244 348 244 297 c 256,30,31
 244 246 244 246 255 213 c 128,-1,32
 266 180 266 180 285 165 c 128,-1,33
 304 150 304 150 329 150 c 0,34,21
 368 150 368 150 391 186 c 128,-1,22
EndSplineSet
Validated: 1
EndChar

StartChar: q
Encoding: 113 113 160
Width: 636
GlyphClass: 2
Flags: W
AnchorPoint: "Anchor-3" 363 515 basechar 0
AnchorPoint: "Anchor-2" 363 0 basechar 0
LayerCount: 2
Fore
SplineSet
387 -125 m 1,0,-1
 387 117 l 1,1,-1
 377 117 l 1,2,3
 357 74 357 74 318.5 49.5 c 128,-1,4
 280 25 280 25 227 25 c 0,5,6
 173 25 173 25 130 55 c 128,-1,7
 87 85 87 85 62 146 c 128,-1,8
 37 207 37 207 37 297 c 0,9,10
 37 388 37 388 61.5 449 c 128,-1,11
 86 510 86 510 129 540 c 128,-1,12
 172 570 172 570 227 570 c 0,13,14
 285 570 285 570 325 545.5 c 128,-1,15
 365 521 365 521 387 477 c 1,16,-1
 397 477 l 1,17,-1
 397 555 l 1,18,-1
 567 555 l 1,19,-1
 567 -125 l 1,20,-1
 387 -125 l 1,0,-1
351 165 m 128,-1,22
 370 180 370 180 381 213 c 128,-1,23
 392 246 392 246 392 297 c 256,24,25
 392 348 392 348 381 381 c 128,-1,26
 370 414 370 414 351 429.5 c 128,-1,27
 332 445 332 445 307 445 c 0,28,29
 268 445 268 445 245 409 c 128,-1,30
 222 373 222 373 222 297 c 0,31,32
 222 222 222 222 245 186 c 128,-1,33
 268 150 268 150 307 150 c 0,34,21
 332 150 332 150 351 165 c 128,-1,22
EndSplineSet
Validated: 1
EndChar

StartChar: r
Encoding: 114 114 161
Width: 426
GlyphClass: 2
Flags: W
AnchorPoint: "Anchor-3" 245 515 basechar 0
AnchorPoint: "Anchor-2" 172 0 basechar 0
LayerCount: 2
Fore
SplineSet
69 555 m 1,0,-1
 239 555 l 1,1,-1
 239 443 l 1,2,-1
 249 443 l 1,3,4
 260 509 260 509 291 537 c 128,-1,5
 322 565 322 565 372 565 c 2,6,-1
 394 565 l 1,7,-1
 394 406 l 1,8,-1
 373 406 l 2,9,10
 314 406 314 406 281.5 377 c 128,-1,11
 249 348 249 348 249 289 c 2,12,-1
 249 40 l 1,13,-1
 69 40 l 1,14,-1
 69 555 l 1,0,-1
EndSplineSet
Validated: 1
EndChar

StartChar: s
Encoding: 115 115 162
Width: 561
GlyphClass: 2
Flags: W
AnchorPoint: "Anchor-3" 295 515 basechar 0
AnchorPoint: "Anchor-2" 295 0 basechar 0
LayerCount: 2
Fore
SplineSet
159.5 44 m 128,-1,1
 106 63 106 63 73.5 98.5 c 128,-1,2
 41 134 41 134 35 182 c 1,3,-1
 221 182 l 1,4,5
 225 157 225 157 242 146 c 128,-1,6
 259 135 259 135 285 135 c 0,7,8
 313 135 313 135 329.5 149 c 128,-1,9
 346 163 346 163 346 187 c 0,10,11
 346 208 346 208 332 220 c 128,-1,12
 318 232 318 232 286 237 c 2,13,-1
 181 255 l 2,14,15
 115 266 115 266 79 303.5 c 128,-1,16
 43 341 43 341 43 397 c 0,17,18
 43 448 43 448 73.5 487 c 128,-1,19
 104 526 104 526 158.5 548 c 128,-1,20
 213 570 213 570 283 570 c 0,21,22
 385 570 385 570 450 529.5 c 128,-1,23
 515 489 515 489 522 419 c 1,24,-1
 337 419 l 1,25,26
 335 441 335 441 319 452.5 c 128,-1,27
 303 464 303 464 277 464 c 256,28,29
 251 464 251 464 235.5 450.5 c 128,-1,30
 220 437 220 437 220 414 c 0,31,32
 220 394 220 394 234 382.5 c 128,-1,33
 248 371 248 371 278 366 c 2,34,-1
 389 347 l 2,35,36
 457 336 457 336 490 300 c 128,-1,37
 523 264 523 264 523 201 c 0,38,39
 523 150 523 150 493 110 c 128,-1,40
 463 70 463 70 407.5 47.5 c 128,-1,41
 352 25 352 25 279 25 c 0,42,0
 213 25 213 25 159.5 44 c 128,-1,1
EndSplineSet
Validated: 1
EndChar

StartChar: t
Encoding: 116 116 163
Width: 420
GlyphClass: 2
Flags: W
AnchorPoint: "Anchor-3" 234 515 basechar 0
AnchorPoint: "Anchor-2" 286 0 basechar 0
LayerCount: 2
Fore
SplineSet
141.5 67.5 m 128,-1,1
 99 105 99 105 99 191 c 2,2,-1
 99 425 l 1,3,-1
 32 425 l 1,4,-1
 32 547 l 1,5,-1
 81 547 l 2,6,7
 98 547 98 547 105.5 554.5 c 128,-1,8
 113 562 113 562 113 579 c 2,9,-1
 113 680 l 1,10,-1
 279 680 l 1,11,-1
 279 555 l 1,12,-1
 358 555 l 1,13,-1
 358 425 l 1,14,-1
 279 425 l 1,15,-1
 279 233 l 2,16,17
 279 203 279 203 288 190.5 c 128,-1,18
 297 178 297 178 319 178 c 0,19,20
 337 178 337 178 358 182 c 1,21,-1
 358 49 l 1,22,23
 310 30 310 30 265 30 c 0,24,0
 184 30 184 30 141.5 67.5 c 128,-1,1
EndSplineSet
Validated: 1
EndChar

StartChar: u
Encoding: 117 117 164
Width: 622
GlyphClass: 2
Flags: W
AnchorPoint: "Anchor-4" 481 0 basechar 0
AnchorPoint: "Anchor-3" 322 515 basechar 0
AnchorPoint: "Anchor-2" 317 0 basechar 0
LayerCount: 2
Fore
SplineSet
108 73.5 m 128,-1,1
 64 122 64 122 64 218 c 2,2,-1
 64 555 l 1,3,-1
 244 555 l 1,4,-1
 244 230 l 2,5,6
 244 196 244 196 259 176 c 128,-1,7
 274 156 274 156 305 156 c 0,8,9
 337 156 337 156 355 177 c 128,-1,10
 373 198 373 198 373 237 c 2,11,-1
 373 555 l 1,12,-1
 553 555 l 1,13,-1
 553 40 l 1,14,-1
 383 40 l 1,15,-1
 383 119 l 1,16,-1
 373 119 l 1,17,18
 353 70 353 70 314 47.5 c 128,-1,19
 275 25 275 25 225 25 c 0,20,0
 152 25 152 25 108 73.5 c 128,-1,1
EndSplineSet
Validated: 1
EndChar

StartChar: v
Encoding: 118 118 165
Width: 599
GlyphClass: 2
Flags: W
AnchorPoint: "Anchor-3" 313 515 basechar 0
AnchorPoint: "Anchor-2" 313 0 basechar 0
LayerCount: 2
Fore
SplineSet
7 555 m 1,0,-1
 203 555 l 1,1,-1
 264 329 l 2,2,3
 286 250 286 250 294 175 c 1,4,-1
 305 175 l 1,5,6
 313 250 313 250 335 329 c 2,7,-1
 396 555 l 1,8,-1
 592 555 l 1,9,-1
 391 40 l 1,10,-1
 208 40 l 1,11,-1
 7 555 l 1,0,-1
EndSplineSet
Validated: 1
EndChar

StartChar: w
Encoding: 119 119 166
Width: 883
GlyphClass: 2
Flags: W
AnchorPoint: "Anchor-3" 454 515 basechar 0
AnchorPoint: "Anchor-2" 454 0 basechar 0
LayerCount: 2
Fore
SplineSet
12 555 m 1,0,-1
 207 555 l 1,1,-1
 250 331 l 2,2,3
 255 307 255 307 259 279.5 c 128,-1,4
 263 252 263 252 265 224 c 0,5,6
 267 206 267 206 269 169 c 1,7,-1
 279 169 l 1,8,9
 280 183 280 183 281 197 c 0,10,11
 287 281 287 281 299 331 c 2,12,-1
 348 555 l 1,13,-1
 535 555 l 1,14,-1
 584 331 l 2,15,16
 598 270 598 270 604 169 c 1,17,-1
 614 169 l 1,18,19
 615 180 615 180 615 190 c 0,20,21
 619 260 619 260 633 331 c 2,22,-1
 676 555 l 1,23,-1
 871 555 l 1,24,-1
 708 40 l 1,25,-1
 520 40 l 1,26,-1
 470 274 l 2,27,28
 462 313 462 313 457.5 346.5 c 128,-1,29
 453 380 453 380 447 442 c 1,30,-1
 436 442 l 1,31,32
 431 393 431 393 426 351 c 128,-1,33
 421 309 421 309 413 274 c 2,34,-1
 363 40 l 1,35,-1
 175 40 l 1,36,-1
 12 555 l 1,0,-1
EndSplineSet
Validated: 1
EndChar

StartChar: x
Encoding: 120 120 167
Width: 642
GlyphClass: 2
Flags: W
AnchorPoint: "Anchor-3" 334 515 basechar 0
AnchorPoint: "Anchor-2" 334 0 basechar 0
LayerCount: 2
Fore
SplineSet
208 311 m 1,0,-1
 21 555 l 1,1,-1
 244 555 l 1,2,-1
 282 481 l 2,3,4
 290 464 290 464 298 446 c 0,5,6
 309 417 309 417 316 389 c 1,7,-1
 326 389 l 1,8,9
 330 404 330 404 334.5 418.5 c 128,-1,10
 339 433 339 433 344 446 c 0,11,12
 352 464 352 464 360 481 c 2,13,-1
 398 555 l 1,14,-1
 621 555 l 1,15,-1
 434 311 l 1,16,-1
 629 40 l 1,17,-1
 412 40 l 1,18,-1
 370 115 l 2,19,20
 359 138 359 138 347 161 c 0,21,22
 334 193 334 193 326 220 c 1,23,-1
 316 220 l 1,24,25
 310 199 310 199 303.5 182 c 128,-1,26
 297 165 297 165 290 150 c 0,27,28
 281 133 281 133 272 115 c 2,29,-1
 230 40 l 1,30,-1
 13 40 l 1,31,-1
 208 311 l 1,0,-1
EndSplineSet
Validated: 1
EndChar

StartChar: y
Encoding: 121 121 168
Width: 608
GlyphClass: 2
Flags: W
AnchorPoint: "Anchor-3" 319 515 basechar 0
AnchorPoint: "Anchor-2" 316 -165 basechar 0
LayerCount: 2
Fore
SplineSet
211 82 m 1,0,-1
 211 82 l 1,1,-1
 7 555 l 1,2,-1
 206 555 l 1,3,-1
 263 372 l 2,4,5
 273 340 273 340 281.5 307 c 128,-1,6
 290 274 290 274 295 243 c 0,7,8
 297 233 297 233 299 215 c 1,9,-1
 309 215 l 1,10,-1
 311 231 l 2,11,12
 317 269 317 269 325 302.5 c 128,-1,13
 333 336 333 336 344 372 c 2,14,-1
 402 555 l 1,15,-1
 601 555 l 1,16,-1
 311 -125 l 1,17,-1
 115 -125 l 1,18,-1
 211 82 l 1,0,-1
EndSplineSet
Validated: 5
Substitution2: "'ss03' Style Set 3 in Latin lookup 28 subtable" y.ss03
Substitution2: "'aalt' Access All Alternates in Latin lookup 0 subtable" y.ss03
EndChar

StartChar: z
Encoding: 122 122 169
Width: 566
GlyphClass: 2
Flags: W
AnchorPoint: "Anchor-3" 304 515 basechar 0
AnchorPoint: "Anchor-2" 304 0 basechar 0
LayerCount: 2
Fore
SplineSet
52 180 m 1,0,-1
 315 415 l 1,1,-1
 315 425 l 1,2,-1
 56 425 l 1,3,-1
 56 555 l 1,4,-1
 506 555 l 1,5,-1
 506 415 l 1,6,-1
 243 180 l 1,7,-1
 243 170 l 1,8,-1
 519 170 l 1,9,-1
 519 40 l 1,10,-1
 52 40 l 1,11,-1
 52 180 l 1,0,-1
EndSplineSet
Validated: 1
EndChar

StartChar: ae
Encoding: 230 230 175
Width: 895
GlyphClass: 2
Flags: W
AnchorPoint: "Anchor-3" 453 515 basechar 0
AnchorPoint: "Anchor-2" 453 0 basechar 0
LayerCount: 2
Fore
SplineSet
468 58.5 m 128,-1,1
 408 92 408 92 376 154 c 128,-1,2
 344 216 344 216 344 299 c 0,3,4
 344 378 344 378 377 439.5 c 128,-1,5
 410 501 410 501 469 535.5 c 128,-1,6
 528 570 528 570 603 570 c 0,7,8
 680 570 680 570 739.5 537.5 c 128,-1,9
 799 505 799 505 831.5 446.5 c 128,-1,10
 864 388 864 388 864 312 c 1,11,-1
 864 312 l 1,12,13
 864 283 864 283 858 257 c 1,14,-1
 421 257 l 1,15,-1
 421 350 l 1,16,-1
 680 350 l 1,17,18
 680 410 680 410 660 442 c 128,-1,19
 640 474 640 474 602 474 c 256,20,21
 564 474 564 474 544 442 c 128,-1,22
 524 410 524 410 524 350 c 2,23,-1
 524 258 l 2,24,25
 524 199 524 199 546.5 168 c 128,-1,26
 569 137 569 137 612 137 c 0,27,28
 631 137 631 137 646 144.5 c 128,-1,29
 661 152 661 152 669 165 c 1,30,-1
 855 165 l 1,31,32
 836 100 836 100 770 62.5 c 128,-1,33
 704 25 704 25 608 25 c 0,34,0
 528 25 528 25 468 58.5 c 128,-1,1
327.5 149.5 m 128,-1,36
 344 171 344 171 344 212 c 2,37,-1
 344 304 l 1,38,39
 340 300 340 300 328 294 c 128,-1,40
 316 288 316 288 302 283 c 2,41,-1
 271 273 l 2,42,43
 247 266 247 266 234 246 c 128,-1,44
 221 226 221 226 221 197 c 0,45,46
 221 166 221 166 237 147 c 128,-1,47
 253 128 253 128 279 128 c 0,48,35
 311 128 311 128 327.5 149.5 c 128,-1,36
83 66.5 m 128,-1,50
 37 108 37 108 37 176 c 0,51,52
 37 241 37 241 78 282 c 128,-1,53
 119 323 119 323 203 342 c 2,54,-1
 280 359 l 2,55,56
 318 367 318 367 331 378.5 c 128,-1,57
 344 390 344 390 344 414 c 0,58,59
 344 436 344 436 330 449 c 128,-1,60
 316 462 316 462 293 462 c 0,61,62
 268 462 268 462 253 448 c 128,-1,63
 238 434 238 434 236 411 c 1,64,-1
 51 411 l 1,65,66
 57 461 57 461 87.5 497 c 128,-1,67
 118 533 118 533 171 551.5 c 128,-1,68
 224 570 224 570 295 570 c 0,69,70
 403 570 403 570 461 523 c 128,-1,71
 519 476 519 476 519 391 c 2,72,-1
 519 126 l 1,73,-1
 386 126 l 1,74,75
 358 70 358 70 310 47.5 c 128,-1,76
 262 25 262 25 203 25 c 0,77,49
 129 25 129 25 83 66.5 c 128,-1,50
EndSplineSet
Validated: 5
EndChar

StartChar: dcaron
Encoding: 271 271 187
Width: 632
GlyphClass: 1
Flags: W
LayerCount: 2
Fore
SplineSet
129 55 m 128,-1,1
 86 85 86 85 61.5 146 c 128,-1,2
 37 207 37 207 37 298 c 0,3,4
 37 388 37 388 62 449 c 128,-1,5
 87 510 87 510 130 540 c 128,-1,6
 173 570 173 570 227 570 c 0,7,8
 280 570 280 570 318.5 545.5 c 128,-1,9
 357 521 357 521 377 478 c 1,10,-1
 387 478 l 1,11,-1
 387 775 l 1,12,-1
 567 775 l 1,13,-1
 567 40 l 1,14,-1
 397 40 l 1,15,-1
 397 118 l 1,16,-1
 387 118 l 1,17,18
 365 74 365 74 325 49.5 c 128,-1,19
 285 25 285 25 227 25 c 0,20,0
 172 25 172 25 129 55 c 128,-1,1
351 165.5 m 128,-1,22
 370 181 370 181 381 214 c 128,-1,23
 392 247 392 247 392 298 c 256,24,25
 392 349 392 349 381 382 c 128,-1,26
 370 415 370 415 351 430 c 128,-1,27
 332 445 332 445 307 445 c 0,28,29
 268 445 268 445 245 409 c 128,-1,30
 222 373 222 373 222 298 c 0,31,32
 222 222 222 222 245 186 c 128,-1,33
 268 150 268 150 307 150 c 0,34,21
 332 150 332 150 351 165.5 c 128,-1,22
628 775 m 1,35,-1
 770 775 l 1,36,-1
 708 625 l 1,37,-1
 593 625 l 1,38,-1
 628 775 l 1,35,-1
EndSplineSet
Validated: 1
EndChar

StartChar: dcroat
Encoding: 273 273 188
Width: 619
GlyphClass: 1
Flags: W
LayerCount: 2
Fore
SplineSet
129 55 m 128,-1,1
 86 85 86 85 61.5 146 c 128,-1,2
 37 207 37 207 37 298 c 0,3,4
 37 388 37 388 62 449 c 128,-1,5
 87 510 87 510 130 540 c 128,-1,6
 173 570 173 570 227 570 c 0,7,8
 280 570 280 570 318.5 545.5 c 128,-1,9
 357 521 357 521 377 478 c 1,10,-1
 387 478 l 1,11,-1
 387 775 l 1,12,-1
 567 775 l 1,13,-1
 567 40 l 1,14,-1
 397 40 l 1,15,-1
 397 118 l 1,16,-1
 387 118 l 1,17,18
 365 74 365 74 325 49.5 c 128,-1,19
 285 25 285 25 227 25 c 0,20,0
 172 25 172 25 129 55 c 128,-1,1
351 165.5 m 128,-1,22
 370 181 370 181 381 214 c 128,-1,23
 392 247 392 247 392 298 c 256,24,25
 392 349 392 349 381 382 c 128,-1,26
 370 415 370 415 351 430 c 128,-1,27
 332 445 332 445 307 445 c 0,28,29
 268 445 268 445 245 409 c 128,-1,30
 222 373 222 373 222 298 c 0,31,32
 222 222 222 222 245 186 c 128,-1,33
 268 150 268 150 307 150 c 0,34,21
 332 150 332 150 351 165.5 c 128,-1,22
233 695 m 1,35,-1
 627 695 l 1,36,-1
 627 586 l 1,37,-1
 233 586 l 1,38,-1
 233 695 l 1,35,-1
EndSplineSet
Validated: 5
EndChar

StartChar: hbar
Encoding: 295 295 205
Width: 632
GlyphClass: 2
Flags: W
AnchorPoint: "Anchor-3" 332 705 basechar 0
AnchorPoint: "Anchor-2" 333 0 basechar 0
LayerCount: 2
Fore
SplineSet
69 775 m 1,0,-1
 250 775 l 1,1,-1
 250 486 l 1,2,-1
 260 486 l 1,3,4
 281 529 281 529 320.5 549.5 c 128,-1,5
 360 570 360 570 407 570 c 0,6,7
 479 570 479 570 523.5 521.5 c 128,-1,8
 568 473 568 473 568 377 c 2,9,-1
 568 40 l 1,10,-1
 388 40 l 1,11,-1
 388 365 l 2,12,13
 388 399 388 399 371.5 419 c 128,-1,14
 355 439 355 439 322 439 c 0,15,16
 288 439 288 439 268.5 418 c 128,-1,17
 249 397 249 397 249 358 c 2,18,-1
 249 40 l 1,19,-1
 69 40 l 1,20,-1
 69 775 l 1,0,-1
34 687 m 1,21,-1
 341 687 l 1,22,-1
 341 593 l 1,23,-1
 34 593 l 1,24,-1
 34 687 l 1,21,-1
EndSplineSet
Validated: 5
EndChar

StartChar: dotlessi
Encoding: 305 305 213
Width: 318
GlyphClass: 2
Flags: W
AnchorPoint: "Anchor-4" 172 0 basechar 0
AnchorPoint: "Anchor-3" 172 515 basechar 0
AnchorPoint: "Anchor-2" 172 0 basechar 0
LayerCount: 2
Fore
SplineSet
69 555 m 1,0,-1
 249 555 l 1,1,-1
 249 40 l 1,2,-1
 69 40 l 1,3,-1
 69 555 l 1,0,-1
EndSplineSet
Validated: 1
EndChar

StartChar: uni0237
Encoding: 567 567 221
Width: 316
GlyphClass: 2
Flags: W
AnchorPoint: "Anchor-3" 170 515 basechar 0
AnchorPoint: "Anchor-2" 172 -165 basechar 0
LayerCount: 2
Fore
SplineSet
2 -125 m 1,0,-1
 2 17 l 1,1,-1
 27 17 l 2,2,3
 45 17 45 17 56 26 c 128,-1,4
 67 35 67 35 67 54 c 2,5,-1
 67 555 l 1,6,-1
 247 555 l 1,7,-1
 247 47 l 2,8,9
 247 -44 247 -44 199.5 -84.5 c 128,-1,10
 152 -125 152 -125 71 -125 c 2,11,-1
 2 -125 l 1,0,-1
EndSplineSet
Validated: 1
EndChar

StartChar: lcaron
Encoding: 318 318 224
Width: 318
GlyphClass: 2
Flags: W
AnchorPoint: "Anchor-3" 172 705 basechar 0
AnchorPoint: "Anchor-2" 172 0 basechar 0
LayerCount: 2
Fore
SplineSet
69 775 m 1,0,-1
 249 775 l 1,1,-1
 249 40 l 1,2,-1
 69 40 l 1,3,-1
 69 775 l 1,0,-1
314 775 m 1,4,-1
 456 775 l 1,5,-1
 394 625 l 1,6,-1
 279 625 l 1,7,-1
 314 775 l 1,4,-1
EndSplineSet
Validated: 1
Substitution2: "'ss07' Style Set 7 in Latin lookup 31 subtable" lcaron.ss07
Substitution2: "'aalt' Access All Alternates in Latin lookup 0 subtable" lcaron.ss07
EndChar

StartChar: ldot
Encoding: 320 320 226
Width: 454
GlyphClass: 2
Flags: W
AnchorPoint: "Anchor-3" 172 705 basechar 0
AnchorPoint: "Anchor-2" 172 0 basechar 0
LayerCount: 2
Fore
SplineSet
69 775 m 1,0,-1
 249 775 l 1,1,-1
 249 40 l 1,2,-1
 69 40 l 1,3,-1
 69 775 l 1,0,-1
332.5 367.5 m 128,-1,5
 305 395 305 395 305 434 c 256,6,7
 305 473 305 473 332.5 501 c 128,-1,8
 360 529 360 529 399 529 c 0,9,10
 437 529 437 529 465.5 500.5 c 128,-1,11
 494 472 494 472 494 434 c 0,12,13
 494 395 494 395 466 367.5 c 128,-1,14
 438 340 438 340 399 340 c 256,15,4
 360 340 360 340 332.5 367.5 c 128,-1,5
EndSplineSet
Validated: 1
Ligature2: "Ligature Substitution lookup 34 subtable" l periodcentered
Substitution2: "'ss07' Style Set 7 in Latin lookup 31 subtable" ldot.ss07
Substitution2: "'ss06' Style Set 6 in Latin lookup 30 subtable" ldot.ss06
AlternateSubs2: "'aalt' Access All Alternates in Latin lookup 1 subtable" ldot.ss06 ldot.ss07
EndChar

StartChar: lslash
Encoding: 322 322 227
Width: 284
GlyphClass: 2
Flags: W
AnchorPoint: "Anchor-3" 155 705 basechar 0
AnchorPoint: "Anchor-2" 155 0 basechar 0
LayerCount: 2
Fore
SplineSet
52 775 m 1,0,-1
 232 775 l 1,1,-1
 232 40 l 1,2,-1
 52 40 l 1,3,-1
 52 775 l 1,0,-1
-3 409 m 1,4,-1
 287 558 l 1,5,-1
 287 438 l 1,6,-1
 -3 288 l 1,7,-1
 -3 409 l 1,4,-1
EndSplineSet
Validated: 5
EndChar

StartChar: eng
Encoding: 331 331 232
Width: 632
GlyphClass: 2
Flags: W
AnchorPoint: "Anchor-3" 329 515 basechar 0
AnchorPoint: "Anchor-2" 329 0 basechar 0
LayerCount: 2
Fore
SplineSet
69 555 m 1,0,-1
 239 555 l 1,1,-1
 239 476 l 1,2,-1
 249 476 l 1,3,4
 269 525 269 525 310 547.5 c 128,-1,5
 351 570 351 570 402 570 c 0,6,7
 478 570 478 570 523 521.5 c 128,-1,8
 568 473 568 473 568 377 c 2,9,-1
 568 40 l 1,10,-1
 388 40 l 1,11,-1
 388 365 l 2,12,13
 388 399 388 399 371.5 419 c 128,-1,14
 355 439 355 439 322 439 c 0,15,16
 288 439 288 439 268.5 418 c 128,-1,17
 249 397 249 397 249 358 c 2,18,-1
 249 40 l 1,19,-1
 69 40 l 1,20,-1
 69 555 l 1,0,-1
370.5 -139 m 128,-1,22
 355 -138 355 -138 336 -134 c 1,23,-1
 336 -21 l 1,24,25
 344 -22 344 -22 357 -22 c 0,26,27
 373 -22 373 -22 380.5 -14.5 c 128,-1,28
 388 -7 388 -7 388 8 c 2,29,-1
 388 40 l 1,30,-1
 568 40 l 1,31,-1
 568 2 l 2,32,33
 568 -74 568 -74 525.5 -107 c 128,-1,34
 483 -140 483 -140 407 -140 c 0,35,21
 386 -140 386 -140 370.5 -139 c 128,-1,22
EndSplineSet
Validated: 5
EndChar

StartChar: uni0272
Encoding: 626 626 233
Width: 632
GlyphClass: 2
Flags: W
AnchorPoint: "Anchor-3" 329 515 basechar 0
AnchorPoint: "Anchor-2" 329 0 basechar 0
LayerCount: 2
Fore
SplineSet
69 555 m 1,0,-1
 239 555 l 1,1,-1
 239 476 l 1,2,-1
 249 476 l 1,3,4
 269 525 269 525 310 547.5 c 128,-1,5
 351 570 351 570 402 570 c 0,6,7
 478 570 478 570 523 521.5 c 128,-1,8
 568 473 568 473 568 377 c 2,9,-1
 568 40 l 1,10,-1
 388 40 l 1,11,-1
 388 365 l 2,12,13
 388 399 388 399 371.5 419 c 128,-1,14
 355 439 355 439 322 439 c 0,15,16
 288 439 288 439 268.5 418 c 128,-1,17
 249 397 249 397 249 358 c 2,18,-1
 249 40 l 1,19,-1
 69 40 l 1,20,-1
 69 555 l 1,0,-1
51.5 -139 m 128,-1,22
 36 -138 36 -138 17 -134 c 1,23,-1
 17 -21 l 1,24,25
 25 -22 25 -22 38 -22 c 0,26,27
 54 -22 54 -22 61.5 -14.5 c 128,-1,28
 69 -7 69 -7 69 8 c 2,29,-1
 69 40 l 1,30,-1
 249 40 l 1,31,-1
 249 2 l 2,32,33
 249 -74 249 -74 206.5 -107 c 128,-1,34
 164 -140 164 -140 88 -140 c 0,35,21
 67 -140 67 -140 51.5 -139 c 128,-1,22
EndSplineSet
Validated: 5
EndChar

StartChar: oe
Encoding: 339 339 239
Width: 972
GlyphClass: 2
Flags: W
AnchorPoint: "Anchor-3" 498 515 basechar 0
AnchorPoint: "Anchor-2" 498 0 basechar 0
LayerCount: 2
Fore
SplineSet
165.5 60 m 128,-1,1
 102 95 102 95 67.5 157 c 128,-1,2
 33 219 33 219 33 298 c 0,3,4
 33 376 33 376 67.5 438 c 128,-1,5
 102 500 102 500 165.5 535 c 128,-1,6
 229 570 229 570 313 570 c 0,7,8
 394 570 394 570 457.5 532 c 128,-1,9
 521 494 521 494 556 431 c 1,10,-1
 446 431 l 1,11,12
 477 495 477 495 536.5 532.5 c 128,-1,13
 596 570 596 570 675 570 c 0,14,15
 751 570 751 570 811.5 539 c 128,-1,16
 872 508 872 508 906.5 449.5 c 128,-1,17
 941 391 941 391 941 312 c 0,18,19
 941 283 941 283 935 257 c 1,20,-1
 488 257 l 1,21,-1
 488 350 l 1,22,-1
 757 350 l 1,23,24
 757 404 757 404 734.5 432 c 128,-1,25
 712 460 712 460 674 460 c 256,26,27
 636 460 636 460 613.5 432 c 128,-1,28
 591 404 591 404 591 350 c 2,29,-1
 591 258 l 2,30,31
 591 222 591 222 601.5 197.5 c 128,-1,32
 612 173 612 173 633 160.5 c 128,-1,33
 654 148 654 148 684 148 c 0,34,35
 703 148 703 148 719 156 c 128,-1,36
 735 164 735 164 742 175 c 1,37,-1
 928 175 l 1,38,39
 908 104 908 104 841.5 64.5 c 128,-1,40
 775 25 775 25 680 25 c 0,41,42
 595 25 595 25 534.5 61.5 c 128,-1,43
 474 98 474 98 444 162 c 1,44,-1
 555 162 l 1,45,46
 520 100 520 100 457 62.5 c 128,-1,47
 394 25 394 25 313 25 c 0,48,0
 229 25 229 25 165.5 60 c 128,-1,1
390 188.5 m 128,-1,50
 416 227 416 227 416 298 c 0,51,52
 416 345 416 345 404.5 378 c 128,-1,53
 393 411 393 411 371 428 c 128,-1,54
 349 445 349 445 317 445 c 0,55,56
 269 445 269 445 243.5 407 c 128,-1,57
 218 369 218 369 218 298 c 0,58,59
 218 251 218 251 229.5 217.5 c 128,-1,60
 241 184 241 184 263.5 167 c 128,-1,61
 286 150 286 150 317 150 c 0,62,49
 364 150 364 150 390 188.5 c 128,-1,50
EndSplineSet
Validated: 5
EndChar

StartChar: ordfeminine
Encoding: 170 170 243
Width: 486
GlyphClass: 1
Flags: W
LayerCount: 2
Fore
SplineSet
65.5 414.5 m 128,-1,1
 27 448 27 448 27 502 c 0,2,3
 27 559 27 559 66.5 593 c 128,-1,4
 106 627 106 627 181 641 c 2,5,-1
 247 653 l 2,6,7
 267 657 267 657 276 666 c 128,-1,8
 285 675 285 675 285 692 c 0,9,10
 285 708 285 708 273 717.5 c 128,-1,11
 261 727 261 727 241 727 c 0,12,13
 220 727 220 727 206 718 c 128,-1,14
 192 709 192 709 188 693 c 1,15,-1
 38 693 l 1,16,17
 40 727 40 727 66 757 c 128,-1,18
 92 787 92 787 139 804.5 c 128,-1,19
 186 822 186 822 247 822 c 0,20,21
 337 822 337 822 383.5 783 c 128,-1,22
 430 744 430 744 430 677 c 2,23,-1
 430 518 l 2,24,25
 430 511 430 511 434.5 506.5 c 128,-1,26
 439 502 439 502 446 502 c 0,27,28
 451 502 451 502 459 504 c 1,29,-1
 459 398 l 1,30,31
 442 391 442 391 426 388 c 128,-1,32
 410 385 410 385 390 385 c 0,33,34
 353 385 353 385 329 399.5 c 128,-1,35
 305 414 305 414 298 447 c 1,36,-1
 290 447 l 1,37,38
 271 411 271 411 238.5 396 c 128,-1,39
 206 381 206 381 167 381 c 0,40,0
 104 381 104 381 65.5 414.5 c 128,-1,1
270 490.5 m 128,-1,42
 285 510 285 510 285 546 c 2,43,-1
 285 598 l 1,44,45
 276 583 276 583 243 574 c 2,46,-1
 224 569 l 2,47,48
 200 563 200 563 188.5 550 c 128,-1,49
 177 537 177 537 177 517 c 256,50,51
 177 497 177 497 188.5 484 c 128,-1,52
 200 471 200 471 225 471 c 0,53,41
 255 471 255 471 270 490.5 c 128,-1,42
EndSplineSet
Validated: 1
EndChar

StartChar: ordmasculine
Encoding: 186 186 244
Width: 503
GlyphClass: 1
Flags: W
LayerCount: 2
Fore
SplineSet
131 409.5 m 128,-1,1
 79 438 79 438 50.5 488 c 128,-1,2
 22 538 22 538 22 602 c 0,3,4
 22 665 22 665 50.5 715 c 128,-1,5
 79 765 79 765 131 793.5 c 128,-1,6
 183 822 183 822 252 822 c 0,7,8
 320 822 320 822 372 793.5 c 128,-1,9
 424 765 424 765 452.5 715 c 128,-1,10
 481 665 481 665 481 602 c 0,11,12
 481 538 481 538 452.5 488 c 128,-1,13
 424 438 424 438 372 409.5 c 128,-1,14
 320 381 320 381 252 381 c 0,15,0
 183 381 183 381 131 409.5 c 128,-1,1
307.5 513 m 128,-1,17
 327 544 327 544 327 602 c 256,18,19
 327 660 327 660 307.5 690.5 c 128,-1,20
 288 721 288 721 252 721 c 0,21,22
 215 721 215 721 196 690.5 c 128,-1,23
 177 660 177 660 177 602 c 256,24,25
 177 544 177 544 196.5 513 c 128,-1,26
 216 482 216 482 252 482 c 256,27,16
 288 482 288 482 307.5 513 c 128,-1,17
EndSplineSet
Validated: 1
EndChar

StartChar: oslash
Encoding: 248 248 245
Width: 604
GlyphClass: 2
Flags: W
AnchorPoint: "Anchor-4" 427 0 basechar 0
AnchorPoint: "Anchor-3" 315 515 basechar 0
AnchorPoint: "Anchor-2" 315 0 basechar 0
LayerCount: 2
Fore
SplineSet
158.5 59 m 128,-1,1
 98 93 98 93 65.5 154.5 c 128,-1,2
 33 216 33 216 33 298 c 0,3,4
 33 379 33 379 65.5 440.5 c 128,-1,5
 98 502 98 502 158.5 536 c 128,-1,6
 219 570 219 570 302 570 c 256,7,8
 385 570 385 570 445.5 536 c 128,-1,9
 506 502 506 502 538.5 440.5 c 128,-1,10
 571 379 571 379 571 298 c 0,11,12
 571 216 571 216 538.5 154.5 c 128,-1,13
 506 93 506 93 445.5 59 c 128,-1,14
 385 25 385 25 302 25 c 256,15,0
 219 25 219 25 158.5 59 c 128,-1,1
364.5 187 m 128,-1,17
 386 224 386 224 386 298 c 0,18,19
 386 371 386 371 364.5 408 c 128,-1,20
 343 445 343 445 302 445 c 256,21,22
 261 445 261 445 239.5 408 c 128,-1,23
 218 371 218 371 218 298 c 0,24,25
 218 224 218 224 239.5 187 c 128,-1,26
 261 150 261 150 302 150 c 256,27,16
 343 150 343 150 364.5 187 c 128,-1,17
503 570 m 1,28,-1
 615 570 l 1,29,-1
 102 25 l 1,30,-1
 -11 25 l 1,31,-1
 503 570 l 1,28,-1
EndSplineSet
Validated: 5
EndChar

StartChar: tbar
Encoding: 359 359 256
Width: 442
GlyphClass: 1
Flags: W
LayerCount: 2
Fore
SplineSet
146.5 67.5 m 128,-1,1
 104 105 104 105 104 191 c 2,2,-1
 104 425 l 1,3,-1
 37 425 l 1,4,-1
 37 545 l 1,5,-1
 78 545 l 2,6,7
 91 545 91 545 100 549 c 128,-1,8
 109 553 109 553 113.5 562 c 128,-1,9
 118 571 118 571 118 586 c 2,10,-1
 118 680 l 1,11,-1
 284 680 l 1,12,-1
 284 555 l 1,13,-1
 373 555 l 1,14,-1
 373 425 l 1,15,-1
 284 425 l 1,16,-1
 284 233 l 2,17,18
 284 203 284 203 295.5 190.5 c 128,-1,19
 307 178 307 178 334 178 c 0,20,21
 352 178 352 178 373 182 c 1,22,-1
 373 50 l 1,23,24
 323 30 323 30 270 30 c 0,25,0
 189 30 189 30 146.5 67.5 c 128,-1,1
37 365 m 1,26,-1
 373 365 l 1,27,-1
 373 256 l 1,28,-1
 37 256 l 1,29,-1
 37 365 l 1,26,-1
EndSplineSet
Validated: 5
EndChar

StartChar: tcaron
Encoding: 357 357 257
Width: 420
GlyphClass: 2
Flags: W
AnchorPoint: "Anchor-3" 234 515 basechar 0
AnchorPoint: "Anchor-2" 286 0 basechar 0
LayerCount: 2
Fore
SplineSet
141.5 67.5 m 128,-1,1
 99 105 99 105 99 191 c 2,2,-1
 99 425 l 1,3,-1
 32 425 l 1,4,-1
 32 547 l 1,5,-1
 81 547 l 2,6,7
 98 547 98 547 105.5 554.5 c 128,-1,8
 113 562 113 562 113 579 c 2,9,-1
 113 680 l 1,10,-1
 279 680 l 1,11,-1
 279 555 l 1,12,-1
 358 555 l 1,13,-1
 358 425 l 1,14,-1
 279 425 l 1,15,-1
 279 233 l 2,16,17
 279 203 279 203 288 190.5 c 128,-1,18
 297 178 297 178 319 178 c 0,19,20
 337 178 337 178 358 182 c 1,21,-1
 358 49 l 1,22,23
 310 30 310 30 265 30 c 0,24,0
 184 30 184 30 141.5 67.5 c 128,-1,1
344 775 m 1,25,-1
 486 775 l 1,26,-1
 424 625 l 1,27,-1
 309 625 l 1,28,-1
 344 775 l 1,25,-1
EndSplineSet
Validated: 1
EndChar

StartChar: thorn
Encoding: 254 254 260
Width: 664
GlyphClass: 2
Flags: W
AnchorPoint: "Anchor-3" 346 515 basechar 0
AnchorPoint: "Anchor-2" 346 0 basechar 0
LayerCount: 2
Fore
SplineSet
69 775 m 1,0,-1
 249 775 l 1,1,-1
 249 478 l 1,2,-1
 259 478 l 1,3,4
 279 521 279 521 318.5 545.5 c 128,-1,5
 358 570 358 570 413 570 c 0,6,7
 475 570 475 570 523.5 536.5 c 128,-1,8
 572 503 572 503 599.5 441 c 128,-1,9
 627 379 627 379 627 297 c 256,10,11
 627 215 627 215 599.5 153.5 c 128,-1,12
 572 92 572 92 523.5 58.5 c 128,-1,13
 475 25 475 25 413 25 c 0,14,15
 358 25 358 25 318.5 49.5 c 128,-1,16
 279 74 279 74 259 117 c 1,17,-1
 249 117 l 1,18,-1
 249 -125 l 1,19,-1
 69 -125 l 1,20,-1
 69 775 l 1,0,-1
415 186 m 128,-1,22
 442 222 442 222 442 297 c 0,23,24
 442 373 442 373 415 409 c 128,-1,25
 388 445 388 445 343 445 c 0,26,27
 314 445 314 445 291.5 429.5 c 128,-1,28
 269 414 269 414 256.5 381 c 128,-1,29
 244 348 244 348 244 297 c 256,30,31
 244 246 244 246 256.5 213 c 128,-1,32
 269 180 269 180 291.5 165 c 128,-1,33
 314 150 314 150 343 150 c 0,34,21
 388 150 388 150 415 186 c 128,-1,22
EndSplineSet
Validated: 1
EndChar

StartChar: germandbls
Encoding: 223 223 286
Width: 662
GlyphClass: 1
Flags: W
LayerCount: 2
Fore
SplineSet
357 27 m 128,-1,1
 335 29 335 29 318 33 c 1,2,-1
 318 166 l 1,3,4
 338 160 338 160 363 160 c 0,5,6
 405 160 405 160 428 185.5 c 128,-1,7
 451 211 451 211 451 258 c 0,8,9
 451 289 451 289 440 310.5 c 128,-1,10
 429 332 429 332 408 343.5 c 128,-1,11
 387 355 387 355 359 355 c 2,12,-1
 318 355 l 1,13,-1
 318 480 l 1,14,-1
 340 480 l 2,15,16
 369 480 369 480 389.5 492 c 128,-1,17
 410 504 410 504 420 525 c 128,-1,18
 430 546 430 546 430 573 c 0,19,20
 430 618 430 618 406 641.5 c 128,-1,21
 382 665 382 665 343 665 c 0,22,23
 297 665 297 665 275.5 640.5 c 128,-1,24
 254 616 254 616 254 569 c 2,25,-1
 254 40 l 1,26,-1
 69 40 l 1,27,-1
 69 551 l 2,28,29
 69 661 69 661 141.5 725.5 c 128,-1,30
 214 790 214 790 347 790 c 0,31,32
 426 790 426 790 488 765.5 c 128,-1,33
 550 741 550 741 585 695.5 c 128,-1,34
 620 650 620 650 620 590 c 0,35,36
 620 549 620 549 604.5 516.5 c 128,-1,37
 589 484 589 484 557 461 c 128,-1,38
 525 438 525 438 477 428 c 1,39,-1
 477 418 l 1,40,41
 528 410 528 410 564.5 387.5 c 128,-1,42
 601 365 601 365 620.5 328.5 c 128,-1,43
 640 292 640 292 640 243 c 0,44,45
 640 175 640 175 611.5 126 c 128,-1,46
 583 77 583 77 530 51 c 128,-1,47
 477 25 477 25 404 25 c 0,48,0
 379 25 379 25 357 27 c 128,-1,1
EndSplineSet
Validated: 1
Substitution2: "Single Substitution lookup 35 subtable" uni1E9E
Substitution2: "'aalt' Access All Alternates in Latin lookup 0 subtable" uni1E9E
EndChar

StartChar: eth
Encoding: 240 240 287
Width: 638
GlyphClass: 1
Flags: W
LayerCount: 2
Fore
SplineSet
168 56.5 m 128,-1,1
 106 88 106 88 71.5 145 c 128,-1,2
 37 202 37 202 37 274 c 0,3,4
 37 347 37 347 66 403 c 128,-1,5
 95 459 95 459 146.5 489.5 c 128,-1,6
 198 520 198 520 263 520 c 0,7,8
 315 520 315 520 353 501.5 c 128,-1,9
 391 483 391 483 416 449 c 1,10,-1
 426 449 l 1,11,12
 377 546 377 546 297.5 624.5 c 128,-1,13
 218 703 218 703 118 775 c 1,14,-1
 325 775 l 1,15,16
 419 698 419 698 480 625 c 128,-1,17
 541 552 541 552 573 474 c 128,-1,18
 605 396 605 396 605 310 c 256,19,20
 605 224 605 224 569.5 159.5 c 128,-1,21
 534 95 534 95 467.5 60 c 128,-1,22
 401 25 401 25 311 25 c 0,23,0
 230 25 230 25 168 56.5 c 128,-1,1
371.5 154.5 m 128,-1,25
 394 169 394 169 407 198.5 c 128,-1,26
 420 228 420 228 420 273 c 256,27,28
 420 318 420 318 407 347.5 c 128,-1,29
 394 377 394 377 371.5 391 c 128,-1,30
 349 405 349 405 321 405 c 0,31,32
 277 405 277 405 249.5 372 c 128,-1,33
 222 339 222 339 222 273 c 256,34,35
 222 207 222 207 250 173.5 c 128,-1,36
 278 140 278 140 321 140 c 0,37,24
 349 140 349 140 371.5 154.5 c 128,-1,25
136 622 m 1,38,-1
 487 766 l 1,39,-1
 513 713 l 1,40,-1
 163 567 l 1,41,-1
 136 622 l 1,38,-1
EndSplineSet
Validated: 5
EndChar

StartChar: uni0259
Encoding: 601 601 288
Width: 604
GlyphClass: 2
Flags: W
AnchorPoint: "Anchor-3" 314 515 basechar 0
AnchorPoint: "Anchor-2" 314 0 basechar 0
LayerCount: 2
Fore
SplineSet
442 536.5 m 128,-1,1
 504 503 504 503 537.5 441 c 128,-1,2
 571 379 571 379 571 296 c 0,3,4
 571 217 571 217 537 155.5 c 128,-1,5
 503 94 503 94 441.5 59.5 c 128,-1,6
 380 25 380 25 302 25 c 0,7,8
 222 25 222 25 160.5 57.5 c 128,-1,9
 99 90 99 90 65 148.5 c 128,-1,10
 31 207 31 207 31 283 c 0,11,12
 31 300 31 300 32 307 c 0,13,14
 33 318 33 318 37 338 c 1,15,-1
 494 338 l 1,16,-1
 494 245 l 1,17,-1
 215 245 l 1,18,19
 215 193 215 193 238 164 c 128,-1,20
 261 135 261 135 303 135 c 256,21,22
 345 135 345 135 368 164 c 128,-1,23
 391 193 391 193 391 245 c 2,24,-1
 391 337 l 2,25,26
 391 390 391 390 366 418.5 c 128,-1,27
 341 447 341 447 293 447 c 0,28,29
 273 447 273 447 255 439.5 c 128,-1,30
 237 432 237 432 230 420 c 1,31,-1
 44 420 l 1,32,33
 64 490 64 490 131.5 530 c 128,-1,34
 199 570 199 570 297 570 c 0,35,0
 380 570 380 570 442 536.5 c 128,-1,1
EndSplineSet
Validated: 5
EndChar

StartChar: comma
Encoding: 44 44 302
Width: 319
GlyphClass: 1
Flags: W
LayerCount: 2
Fore
SplineSet
136.5 -28.5 m 128,-1,1
 154 15 154 15 159 65 c 1,2,-1
 214 108 l 1,3,4
 209 72 209 72 190 55 c 128,-1,5
 171 38 171 38 137 38 c 0,6,7
 98 38 98 38 70 65 c 128,-1,8
 42 92 42 92 42 134 c 0,9,10
 42 181 42 181 73 211 c 128,-1,11
 104 241 104 241 153 241 c 0,12,13
 209 241 209 241 243 201 c 128,-1,14
 277 161 277 161 277 96 c 0,15,16
 277 43 277 43 259.5 -10.5 c 128,-1,17
 242 -64 242 -64 205 -125 c 1,18,-1
 83 -125 l 1,19,0
 119 -72 119 -72 136.5 -28.5 c 128,-1,1
EndSplineSet
Validated: 5
Substitution2: "'ss06' Style Set 6 in Latin lookup 30 subtable" comma.ss06
Substitution2: "'aalt' Access All Alternates in Latin lookup 0 subtable" comma.ss06
EndChar

StartChar: semicolon
Encoding: 59 59 303
Width: 319
GlyphClass: 1
Flags: W
LayerCount: 2
Fore
SplineSet
136.5 -28.5 m 128,-1,1
 154 15 154 15 159 65 c 1,2,-1
 214 108 l 1,3,4
 209 72 209 72 190 55 c 128,-1,5
 171 38 171 38 137 38 c 0,6,7
 98 38 98 38 70 65 c 128,-1,8
 42 92 42 92 42 134 c 0,9,10
 42 181 42 181 73 211 c 128,-1,11
 104 241 104 241 153 241 c 0,12,13
 209 241 209 241 243 201 c 128,-1,14
 277 161 277 161 277 96 c 0,15,16
 277 43 277 43 259.5 -10.5 c 128,-1,17
 242 -64 242 -64 205 -125 c 1,18,-1
 83 -125 l 1,19,0
 119 -72 119 -72 136.5 -28.5 c 128,-1,1
79.5 355 m 128,-1,21
 48 386 48 386 48 433 c 0,22,23
 48 478 48 478 79.5 509 c 128,-1,24
 111 540 111 540 156 540 c 0,25,26
 200 540 200 540 231.5 509 c 128,-1,27
 263 478 263 478 263 433 c 0,28,29
 263 386 263 386 231.5 355 c 128,-1,30
 200 324 200 324 156 324 c 0,31,20
 111 324 111 324 79.5 355 c 128,-1,21
EndSplineSet
Validated: 5
Substitution2: "'ss06' Style Set 6 in Latin lookup 30 subtable" semicolon.ss06
Substitution2: "'case' Case-Sensitive Forms in Latin lookup 23 subtable" semicolon.case
AlternateSubs2: "'aalt' Access All Alternates in Latin lookup 1 subtable" semicolon.case semicolon.ss06
EndChar

StartChar: colon
Encoding: 58 58 304
Width: 299
GlyphClass: 1
Flags: W
LayerCount: 2
Fore
SplineSet
73.5 355 m 128,-1,1
 42 386 42 386 42 433 c 0,2,3
 42 478 42 478 73.5 509 c 128,-1,4
 105 540 105 540 150 540 c 0,5,6
 194 540 194 540 225.5 509 c 128,-1,7
 257 478 257 478 257 433 c 0,8,9
 257 386 257 386 225.5 355 c 128,-1,10
 194 324 194 324 150 324 c 0,11,0
 105 324 105 324 73.5 355 c 128,-1,1
73.5 56 m 128,-1,13
 42 87 42 87 42 134 c 0,14,15
 42 179 42 179 73.5 210 c 128,-1,16
 105 241 105 241 150 241 c 0,17,18
 194 241 194 241 225.5 210 c 128,-1,19
 257 179 257 179 257 134 c 0,20,21
 257 87 257 87 225.5 56 c 128,-1,22
 194 25 194 25 150 25 c 0,23,12
 105 25 105 25 73.5 56 c 128,-1,13
EndSplineSet
Validated: 1
Substitution2: "'ss06' Style Set 6 in Latin lookup 30 subtable" colon.ss06
Substitution2: "'case' Case-Sensitive Forms in Latin lookup 23 subtable" colon.case
AlternateSubs2: "'aalt' Access All Alternates in Latin lookup 1 subtable" colon.case colon.ss06
EndChar

StartChar: period
Encoding: 46 46 305
Width: 299
GlyphClass: 1
Flags: W
LayerCount: 2
Fore
SplineSet
73.5 56 m 128,-1,1
 42 87 42 87 42 134 c 0,2,3
 42 179 42 179 73.5 210 c 128,-1,4
 105 241 105 241 150 241 c 0,5,6
 194 241 194 241 225.5 210 c 128,-1,7
 257 179 257 179 257 134 c 0,8,9
 257 87 257 87 225.5 56 c 128,-1,10
 194 25 194 25 150 25 c 0,11,0
 105 25 105 25 73.5 56 c 128,-1,1
EndSplineSet
Validated: 1
Substitution2: "'ss06' Style Set 6 in Latin lookup 30 subtable" period.ss06
Substitution2: "'aalt' Access All Alternates in Latin lookup 0 subtable" period.ss06
EndChar

StartChar: ellipsis
Encoding: 8230 8230 306
Width: 799
GlyphClass: 1
Flags: W
LayerCount: 2
Fore
SplineSet
73.5 56 m 128,-1,1
 42 87 42 87 42 134 c 0,2,3
 42 179 42 179 73.5 210 c 128,-1,4
 105 241 105 241 150 241 c 0,5,6
 194 241 194 241 225.5 210 c 128,-1,7
 257 179 257 179 257 134 c 0,8,9
 257 87 257 87 225.5 56 c 128,-1,10
 194 25 194 25 150 25 c 0,11,0
 105 25 105 25 73.5 56 c 128,-1,1
323.5 56 m 128,-1,13
 292 87 292 87 292 134 c 0,14,15
 292 179 292 179 323.5 210 c 128,-1,16
 355 241 355 241 400 241 c 0,17,18
 429 241 429 241 453.5 227 c 128,-1,19
 478 213 478 213 492.5 188.5 c 128,-1,20
 507 164 507 164 507 134 c 0,21,22
 507 87 507 87 475.5 56 c 128,-1,23
 444 25 444 25 400 25 c 0,24,12
 355 25 355 25 323.5 56 c 128,-1,13
573.5 56 m 128,-1,26
 542 87 542 87 542 134 c 0,27,28
 542 179 542 179 573.5 210 c 128,-1,29
 605 241 605 241 650 241 c 0,30,31
 694 241 694 241 725.5 210 c 128,-1,32
 757 179 757 179 757 134 c 0,33,34
 757 87 757 87 725.5 56 c 128,-1,35
 694 25 694 25 650 25 c 0,36,25
 605 25 605 25 573.5 56 c 128,-1,26
EndSplineSet
Validated: 1
Substitution2: "'ss06' Style Set 6 in Latin lookup 30 subtable" ellipsis.ss06
Substitution2: "'aalt' Access All Alternates in Latin lookup 0 subtable" ellipsis.ss06
EndChar

StartChar: hyphen
Encoding: 45 45 307
Width: 344
GlyphClass: 1
Flags: W
LayerCount: 2
Fore
SplineSet
17 396 m 1,0,-1
 327 396 l 1,1,-1
 327 234 l 1,2,-1
 17 234 l 1,3,-1
 17 396 l 1,0,-1
EndSplineSet
Validated: 1
Substitution2: "'case' Case-Sensitive Forms in Latin lookup 23 subtable" hyphen.case
Substitution2: "'aalt' Access All Alternates in Latin lookup 0 subtable" hyphen.case
EndChar

StartChar: exclam
Encoding: 33 33 308
Width: 345
GlyphClass: 1
Flags: W
LayerCount: 2
Fore
SplineSet
57 745 m 1,0,-1
 288 745 l 1,1,-1
 249 263 l 1,2,-1
 98 263 l 1,3,-1
 57 745 l 1,0,-1
101.5 52 m 128,-1,5
 73 79 73 79 73 125 c 256,6,7
 73 171 73 171 101.5 198 c 128,-1,8
 130 225 130 225 173 225 c 256,9,10
 216 225 216 225 244.5 198 c 128,-1,11
 273 171 273 171 273 125 c 256,12,13
 273 79 273 79 244.5 52 c 128,-1,14
 216 25 216 25 173 25 c 256,15,4
 130 25 130 25 101.5 52 c 128,-1,5
EndSplineSet
Validated: 1
Substitution2: "'ss06' Style Set 6 in Latin lookup 30 subtable" exclam.ss06
Substitution2: "'aalt' Access All Alternates in Latin lookup 0 subtable" exclam.ss06
EndChar

StartChar: question
Encoding: 63 63 310
Width: 545
GlyphClass: 1
Flags: W
LayerCount: 2
Fore
SplineSet
185.5 52 m 128,-1,1
 157 79 157 79 157 125 c 256,2,3
 157 171 157 171 185.5 198 c 128,-1,4
 214 225 214 225 257 225 c 256,5,6
 300 225 300 225 328.5 198 c 128,-1,7
 357 171 357 171 357 125 c 256,8,9
 357 79 357 79 328.5 52 c 128,-1,10
 300 25 300 25 257 25 c 256,11,0
 214 25 214 25 185.5 52 c 128,-1,1
173 372 m 128,-1,13
 185 395 185 395 215 417 c 2,14,-1
 298 477 l 2,15,16
 322 495 322 495 332.5 513 c 128,-1,17
 343 531 343 531 343 555 c 0,18,19
 343 584 343 584 325.5 601.5 c 128,-1,20
 308 619 308 619 279 619 c 0,21,22
 245 619 245 619 225 598 c 128,-1,23
 205 577 205 577 202 539 c 1,24,-1
 12 539 l 1,25,26
 16 644 16 644 87 702 c 128,-1,27
 158 760 158 760 282 760 c 0,28,29
 399 760 399 760 466 708.5 c 128,-1,30
 533 657 533 657 533 561 c 0,31,32
 533 510 533 510 513 474 c 128,-1,33
 493 438 493 438 450 405 c 2,34,-1
 378 350 l 2,35,36
 363 339 363 339 358 327.5 c 128,-1,37
 353 316 353 316 353 294 c 2,38,-1
 353 263 l 1,39,-1
 161 263 l 1,40,-1
 161 316 l 2,41,12
 161 349 161 349 173 372 c 128,-1,13
EndSplineSet
Validated: 1
Substitution2: "'ss06' Style Set 6 in Latin lookup 30 subtable" question.ss06
Substitution2: "'aalt' Access All Alternates in Latin lookup 0 subtable" question.ss06
EndChar

StartChar: quoteleft
Encoding: 8216 8216 312
Width: 278
GlyphClass: 1
Flags: W
LayerCount: 2
Fore
SplineSet
162.5 664.5 m 128,-1,1
 145 624 145 624 140 580 c 1,2,-1
 90 541 l 1,3,4
 95 573 95 573 112 589 c 128,-1,5
 129 605 129 605 160 605 c 0,6,7
 197 605 197 605 221.5 580 c 128,-1,8
 246 555 246 555 246 518 c 0,9,10
 246 474 246 474 218 447 c 128,-1,11
 190 420 190 420 145 420 c 0,12,13
 94 420 94 420 63 456 c 128,-1,14
 32 492 32 492 32 552 c 0,15,16
 32 598 32 598 48.5 647 c 128,-1,17
 65 696 65 696 101 755 c 1,18,-1
 215 755 l 1,19,0
 180 705 180 705 162.5 664.5 c 128,-1,1
EndSplineSet
Validated: 5
Substitution2: "'ss06' Style Set 6 in Latin lookup 30 subtable" quoteleft.ss06
Substitution2: "'aalt' Access All Alternates in Latin lookup 0 subtable" quoteleft.ss06
EndChar

StartChar: quoteright
Encoding: 8217 8217 313
Width: 278
GlyphClass: 1
Flags: W
LayerCount: 2
Fore
SplineSet
115.5 510.5 m 128,-1,1
 133 551 133 551 138 595 c 1,2,-1
 188 634 l 1,3,4
 183 602 183 602 166 586 c 128,-1,5
 149 570 149 570 118 570 c 0,6,7
 81 570 81 570 56.5 595 c 128,-1,8
 32 620 32 620 32 657 c 0,9,10
 32 701 32 701 60 728 c 128,-1,11
 88 755 88 755 133 755 c 0,12,13
 184 755 184 755 215 719 c 128,-1,14
 246 683 246 683 246 623 c 0,15,16
 246 577 246 577 229.5 528 c 128,-1,17
 213 479 213 479 177 420 c 1,18,-1
 63 420 l 1,19,0
 98 470 98 470 115.5 510.5 c 128,-1,1
EndSplineSet
Validated: 5
Substitution2: "'ss06' Style Set 6 in Latin lookup 30 subtable" quoteright.ss06
Substitution2: "'aalt' Access All Alternates in Latin lookup 0 subtable" quoteright.ss06
EndChar

StartChar: quotedblleft
Encoding: 8220 8220 314
Width: 542
GlyphClass: 1
Flags: W
LayerCount: 2
Fore
SplineSet
162.5 664.5 m 128,-1,1
 145 624 145 624 140 580 c 1,2,-1
 90 541 l 1,3,4
 95 573 95 573 112 589 c 128,-1,5
 129 605 129 605 160 605 c 0,6,7
 197 605 197 605 221.5 580 c 128,-1,8
 246 555 246 555 246 518 c 0,9,10
 246 474 246 474 218 447 c 128,-1,11
 190 420 190 420 145 420 c 0,12,13
 94 420 94 420 63 456 c 128,-1,14
 32 492 32 492 32 552 c 0,15,16
 32 598 32 598 48.5 647 c 128,-1,17
 65 696 65 696 101 755 c 1,18,-1
 215 755 l 1,19,0
 180 705 180 705 162.5 664.5 c 128,-1,1
426.5 664.5 m 128,-1,21
 409 624 409 624 404 580 c 1,22,-1
 354 541 l 1,23,24
 359 573 359 573 376 589 c 128,-1,25
 393 605 393 605 424 605 c 0,26,27
 461 605 461 605 485.5 580 c 128,-1,28
 510 555 510 555 510 518 c 0,29,30
 510 474 510 474 482 447 c 128,-1,31
 454 420 454 420 409 420 c 0,32,33
 358 420 358 420 327 456 c 128,-1,34
 296 492 296 492 296 552 c 0,35,36
 296 598 296 598 312.5 647 c 128,-1,37
 329 696 329 696 365 755 c 1,38,-1
 479 755 l 1,39,20
 444 705 444 705 426.5 664.5 c 128,-1,21
EndSplineSet
Validated: 5
Substitution2: "'ss06' Style Set 6 in Latin lookup 30 subtable" quotedblleft.ss06
Substitution2: "'aalt' Access All Alternates in Latin lookup 0 subtable" quotedblleft.ss06
EndChar

StartChar: quotedblright
Encoding: 8221 8221 315
Width: 542
GlyphClass: 1
Flags: W
LayerCount: 2
Fore
SplineSet
379.5 510.5 m 128,-1,1
 397 551 397 551 402 595 c 1,2,-1
 452 634 l 1,3,4
 447 602 447 602 430 586 c 128,-1,5
 413 570 413 570 382 570 c 0,6,7
 345 570 345 570 320.5 595 c 128,-1,8
 296 620 296 620 296 657 c 0,9,10
 296 701 296 701 324 728 c 128,-1,11
 352 755 352 755 397 755 c 0,12,13
 448 755 448 755 479 719 c 128,-1,14
 510 683 510 683 510 623 c 0,15,16
 510 577 510 577 493.5 528 c 128,-1,17
 477 479 477 479 441 420 c 1,18,-1
 327 420 l 1,19,0
 362 470 362 470 379.5 510.5 c 128,-1,1
115.5 510.5 m 128,-1,21
 133 551 133 551 138 595 c 1,22,-1
 188 634 l 1,23,24
 183 602 183 602 166 586 c 128,-1,25
 149 570 149 570 118 570 c 0,26,27
 81 570 81 570 56.5 595 c 128,-1,28
 32 620 32 620 32 657 c 0,29,30
 32 701 32 701 60 728 c 128,-1,31
 88 755 88 755 133 755 c 0,32,33
 184 755 184 755 215 719 c 128,-1,34
 246 683 246 683 246 623 c 0,35,36
 246 577 246 577 229.5 528 c 128,-1,37
 213 479 213 479 177 420 c 1,38,-1
 63 420 l 1,39,20
 98 470 98 470 115.5 510.5 c 128,-1,21
EndSplineSet
Validated: 5
Substitution2: "'ss06' Style Set 6 in Latin lookup 30 subtable" quotedblright.ss06
Substitution2: "'aalt' Access All Alternates in Latin lookup 0 subtable" quotedblright.ss06
EndChar

StartChar: quotesinglbase
Encoding: 8218 8218 316
Width: 278
GlyphClass: 1
Flags: W
LayerCount: 2
Fore
SplineSet
115.5 -14.5 m 128,-1,1
 133 26 133 26 138 70 c 1,2,-1
 188 109 l 1,3,4
 183 77 183 77 166 61 c 128,-1,5
 149 45 149 45 118 45 c 0,6,7
 81 45 81 45 56.5 70 c 128,-1,8
 32 95 32 95 32 132 c 0,9,10
 32 176 32 176 60 203 c 128,-1,11
 88 230 88 230 133 230 c 0,12,13
 184 230 184 230 215 194 c 128,-1,14
 246 158 246 158 246 98 c 0,15,16
 246 52 246 52 229.5 3 c 128,-1,17
 213 -46 213 -46 177 -105 c 1,18,-1
 63 -105 l 1,19,0
 98 -55 98 -55 115.5 -14.5 c 128,-1,1
EndSplineSet
Validated: 5
Substitution2: "'ss06' Style Set 6 in Latin lookup 30 subtable" quotesinglbase.ss06
Substitution2: "'aalt' Access All Alternates in Latin lookup 0 subtable" quotesinglbase.ss06
EndChar

StartChar: quotedblbase
Encoding: 8222 8222 317
Width: 542
GlyphClass: 1
Flags: W
LayerCount: 2
Fore
SplineSet
379.5 -14.5 m 128,-1,1
 397 26 397 26 402 70 c 1,2,-1
 452 109 l 1,3,4
 447 77 447 77 430 61 c 128,-1,5
 413 45 413 45 382 45 c 0,6,7
 345 45 345 45 320.5 70 c 128,-1,8
 296 95 296 95 296 132 c 0,9,10
 296 176 296 176 324 203 c 128,-1,11
 352 230 352 230 397 230 c 0,12,13
 448 230 448 230 479 194 c 128,-1,14
 510 158 510 158 510 98 c 0,15,16
 510 52 510 52 493.5 3 c 128,-1,17
 477 -46 477 -46 441 -105 c 1,18,-1
 327 -105 l 1,19,0
 362 -55 362 -55 379.5 -14.5 c 128,-1,1
115.5 -14.5 m 128,-1,21
 133 26 133 26 138 70 c 1,22,-1
 188 109 l 1,23,24
 183 77 183 77 166 61 c 128,-1,25
 149 45 149 45 118 45 c 0,26,27
 81 45 81 45 56.5 70 c 128,-1,28
 32 95 32 95 32 132 c 0,29,30
 32 176 32 176 60 203 c 128,-1,31
 88 230 88 230 133 230 c 0,32,33
 184 230 184 230 215 194 c 128,-1,34
 246 158 246 158 246 98 c 0,35,36
 246 52 246 52 229.5 3 c 128,-1,37
 213 -46 213 -46 177 -105 c 1,38,-1
 63 -105 l 1,39,20
 98 -55 98 -55 115.5 -14.5 c 128,-1,21
EndSplineSet
Validated: 5
Substitution2: "'ss06' Style Set 6 in Latin lookup 30 subtable" quotedblbase.ss06
Substitution2: "'aalt' Access All Alternates in Latin lookup 0 subtable" quotedblbase.ss06
EndChar

StartChar: guilsinglleft
Encoding: 8249 8249 318
Width: 387
GlyphClass: 1
Flags: W
LayerCount: 2
Fore
SplineSet
42 250 m 1,0,-1
 42 378 l 1,1,-1
 179 534 l 1,2,-1
 355 534 l 1,3,-1
 125 281 l 1,4,-1
 125 347 l 1,5,-1
 355 94 l 1,6,-1
 179 94 l 1,7,-1
 42 250 l 1,0,-1
EndSplineSet
Validated: 5
Substitution2: "'case' Case-Sensitive Forms in Latin lookup 23 subtable" guilsinglleft.case
Substitution2: "'aalt' Access All Alternates in Latin lookup 0 subtable" guilsinglleft.case
EndChar

StartChar: slash
Encoding: 47 47 321
Width: 458
GlyphClass: 1
Flags: W
LayerCount: 2
Fore
SplineSet
297 810 m 1,0,-1
 466 810 l 1,1,-1
 163 -60 l 1,2,-1
 -8 -60 l 1,3,-1
 297 810 l 1,0,-1
EndSplineSet
Validated: 1
Substitution2: "'case' Case-Sensitive Forms in Latin lookup 23 subtable" slash.case
Substitution2: "'frac' Diagonal Fractions in Latin lookup 16 subtable" fraction
AlternateSubs2: "'aalt' Access All Alternates in Latin lookup 1 subtable" fraction slash.case
EndChar

StartChar: bar
Encoding: 124 124 322
Width: 264
GlyphClass: 1
Flags: W
LayerCount: 2
Fore
SplineSet
52 810 m 1,0,-1
 212 810 l 1,1,-1
 212 -60 l 1,2,-1
 52 -60 l 1,3,-1
 52 810 l 1,0,-1
EndSplineSet
Validated: 1
Substitution2: "'case' Case-Sensitive Forms in Latin lookup 23 subtable" bar.case
Substitution2: "'aalt' Access All Alternates in Latin lookup 0 subtable" bar.case
EndChar

StartChar: endash
Encoding: 8211 8211 323
Width: 474
GlyphClass: 1
Flags: W
LayerCount: 2
Fore
SplineSet
-13 401 m 1,0,-1
 487 401 l 1,1,-1
 487 229 l 1,2,-1
 -13 229 l 1,3,-1
 -13 401 l 1,0,-1
EndSplineSet
Validated: 1
Substitution2: "'case' Case-Sensitive Forms in Latin lookup 23 subtable" endash.case
Substitution2: "'aalt' Access All Alternates in Latin lookup 0 subtable" endash.case
EndChar

StartChar: emdash
Encoding: 8212 8212 324
Width: 974
GlyphClass: 1
Flags: W
LayerCount: 2
Fore
SplineSet
-13 401 m 1,0,-1
 987 401 l 1,1,-1
 987 229 l 1,2,-1
 -13 229 l 1,3,-1
 -13 401 l 1,0,-1
EndSplineSet
Validated: 1
Substitution2: "'case' Case-Sensitive Forms in Latin lookup 23 subtable" emdash.case
Substitution2: "'aalt' Access All Alternates in Latin lookup 0 subtable" emdash.case
EndChar

StartChar: bullet
Encoding: 8226 8226 325
Width: 438
GlyphClass: 1
Flags: W
LayerCount: 2
Fore
SplineSet
130.5 157 m 128,-1,1
 89 182 89 182 65.5 224 c 128,-1,2
 42 266 42 266 42 315 c 0,3,4
 42 363 42 363 66 404 c 128,-1,5
 90 445 90 445 131 469.5 c 128,-1,6
 172 494 172 494 221 494 c 0,7,8
 269 494 269 494 309.5 469.5 c 128,-1,9
 350 445 350 445 373 404 c 128,-1,10
 396 363 396 363 396 315 c 0,11,12
 396 266 396 266 373 224 c 128,-1,13
 350 182 350 182 310 157 c 128,-1,14
 270 132 270 132 221 132 c 256,15,0
 172 132 172 132 130.5 157 c 128,-1,1
EndSplineSet
Validated: 1
Substitution2: "'ss06' Style Set 6 in Latin lookup 30 subtable" bullet.ss06
Substitution2: "'case' Case-Sensitive Forms in Latin lookup 23 subtable" bullet.case
AlternateSubs2: "'aalt' Access All Alternates in Latin lookup 1 subtable" bullet.case bullet.ss06
EndChar

StartChar: parenleft
Encoding: 40 40 326
Width: 354
GlyphClass: 1
Flags: W
LayerCount: 2
Fore
SplineSet
84 142 m 128,-1,1
 42 254 42 254 42 375 c 256,2,3
 42 496 42 496 84 608 c 128,-1,4
 126 720 126 720 207 810 c 1,5,-1
 347 810 l 1,6,7
 282 721 282 721 247 608.5 c 128,-1,8
 212 496 212 496 212 375 c 256,9,10
 212 254 212 254 247 141.5 c 128,-1,11
 282 29 282 29 347 -60 c 1,12,-1
 207 -60 l 1,13,0
 126 30 126 30 84 142 c 128,-1,1
EndSplineSet
Validated: 1
Substitution2: "'case' Case-Sensitive Forms in Latin lookup 23 subtable" parenleft.case
Substitution2: "'sups' Superscript in Latin lookup 13 subtable" uni207D
Substitution2: "'sinf' Scientific Inferiors in Latin lookup 12 subtable" uni208D
Substitution2: "'subs' Subscript in Latin lookup 11 subtable" uni208D
AlternateSubs2: "'aalt' Access All Alternates in Latin lookup 1 subtable" uni208D uni207D parenleft.case
EndChar

StartChar: bracketleft
Encoding: 91 91 328
Width: 377
GlyphClass: 1
Flags: W
LayerCount: 2
Fore
SplineSet
92 810 m 1,0,-1
 252 810 l 1,1,-1
 252 -60 l 1,2,-1
 92 -60 l 1,3,-1
 92 810 l 1,0,-1
172 63 m 1,4,-1
 380 63 l 1,5,-1
 380 -60 l 1,6,-1
 252 -60 l 1,7,-1
 172 63 l 1,4,-1
252 810 m 1,8,-1
 380 810 l 1,9,-1
 380 687 l 1,10,-1
 172 687 l 1,11,-1
 252 810 l 1,8,-1
EndSplineSet
Validated: 5
Substitution2: "'case' Case-Sensitive Forms in Latin lookup 23 subtable" bracketleft.case
Substitution2: "'aalt' Access All Alternates in Latin lookup 0 subtable" bracketleft.case
EndChar

StartChar: braceleft
Encoding: 123 123 330
Width: 354
GlyphClass: 1
Flags: W
LayerCount: 2
Fore
SplineSet
154.5 -18 m 128,-1,1
 108 24 108 24 108 106 c 2,2,-1
 108 240 l 2,3,4
 108 274 108 274 91.5 294.5 c 128,-1,5
 75 315 75 315 46 315 c 2,6,-1
 17 315 l 1,7,-1
 17 435 l 1,8,-1
 46 435 l 2,9,10
 75 435 75 435 91.5 455.5 c 128,-1,11
 108 476 108 476 108 510 c 2,12,-1
 108 644 l 2,13,14
 108 726 108 726 154.5 768 c 128,-1,15
 201 810 201 810 292 810 c 2,16,-1
 357 810 l 1,17,-1
 357 686 l 1,18,-1
 324 686 l 2,19,20
 293 686 293 686 278 671 c 128,-1,21
 263 656 263 656 263 627 c 2,22,-1
 263 491 l 2,23,24
 263 444 263 444 242 416.5 c 128,-1,25
 221 389 221 389 170 380 c 1,26,-1
 170 370 l 1,27,28
 221 361 221 361 242 333.5 c 128,-1,29
 263 306 263 306 263 259 c 2,30,-1
 263 123 l 2,31,32
 263 94 263 94 278 79 c 128,-1,33
 293 64 293 64 324 64 c 2,34,-1
 357 64 l 1,35,-1
 357 -60 l 1,36,-1
 292 -60 l 2,37,0
 201 -60 201 -60 154.5 -18 c 128,-1,1
EndSplineSet
Validated: 1
Substitution2: "'case' Case-Sensitive Forms in Latin lookup 23 subtable" braceleft.case
Substitution2: "'aalt' Access All Alternates in Latin lookup 0 subtable" braceleft.case
EndChar

StartChar: zero
Encoding: 48 48 335
Width: 690
GlyphClass: 1
Flags: W
LayerCount: 2
Fore
SplineSet
194 62.5 m 128,-1,1
 127 100 127 100 87 182.5 c 128,-1,2
 47 265 47 265 47 393 c 256,3,4
 47 521 47 521 87 603 c 128,-1,5
 127 685 127 685 194 722.5 c 128,-1,6
 261 760 261 760 345 760 c 256,7,8
 429 760 429 760 496 722.5 c 128,-1,9
 563 685 563 685 603 603 c 128,-1,10
 643 521 643 521 643 393 c 256,11,12
 643 265 643 265 603 182.5 c 128,-1,13
 563 100 563 100 496 62.5 c 128,-1,14
 429 25 429 25 345 25 c 256,15,0
 261 25 261 25 194 62.5 c 128,-1,1
425.5 220.5 m 128,-1,17
 448 276 448 276 448 393 c 0,18,19
 448 509 448 509 425.5 564.5 c 128,-1,20
 403 620 403 620 345 620 c 256,21,22
 287 620 287 620 264.5 564.5 c 128,-1,23
 242 509 242 509 242 393 c 0,24,25
 242 276 242 276 264.5 220.5 c 128,-1,26
 287 165 287 165 345 165 c 256,27,16
 403 165 403 165 425.5 220.5 c 128,-1,17
EndSplineSet
Validated: 1
Substitution2: "'ss07' Style Set 7 in Latin lookup 31 subtable" zero.zero
Substitution2: "'zero' Slashed Zero in Latin lookup 25 subtable" zero.zero
Substitution2: "'tnum' Tabular Numbers in Latin lookup 22 subtable" zero.tf
Substitution2: "'frac' Diagonal Fractions in Latin lookup 17 subtable" zero.numr
Substitution2: "'dnom' Denominators in Latin lookup 15 subtable" zero.dnom
Substitution2: "'numr' Numerators in Latin lookup 14 subtable" zero.numr
Substitution2: "'sups' Superscript in Latin lookup 13 subtable" uni2070
Substitution2: "'sinf' Scientific Inferiors in Latin lookup 12 subtable" uni2080
Substitution2: "'subs' Subscript in Latin lookup 11 subtable" uni2080
AlternateSubs2: "'aalt' Access All Alternates in Latin lookup 1 subtable" zero.zero zero.tf zero.dnom zero.numr uni2080 uni2070
EndChar

StartChar: one
Encoding: 49 49 336
Width: 468
GlyphClass: 1
Flags: W
LayerCount: 2
Fore
SplineSet
186 470 m 1,0,-1
 12 470 l 1,1,-1
 12 588 l 1,2,3
 85 592 85 592 128.5 607 c 128,-1,4
 172 622 172 622 195.5 654 c 128,-1,5
 219 686 219 686 228 745 c 1,6,-1
 376 745 l 1,7,-1
 376 40 l 1,8,-1
 186 40 l 1,9,-1
 186 470 l 1,0,-1
EndSplineSet
Validated: 1
Substitution2: "'tnum' Tabular Numbers in Latin lookup 22 subtable" one.tf
Substitution2: "'frac' Diagonal Fractions in Latin lookup 17 subtable" one.numr
Substitution2: "'dnom' Denominators in Latin lookup 15 subtable" one.dnom
Substitution2: "'numr' Numerators in Latin lookup 14 subtable" one.numr
Substitution2: "'sups' Superscript in Latin lookup 13 subtable" uni00B9
Substitution2: "'sinf' Scientific Inferiors in Latin lookup 12 subtable" uni2081
Substitution2: "'subs' Subscript in Latin lookup 11 subtable" uni2081
AlternateSubs2: "'aalt' Access All Alternates in Latin lookup 1 subtable" one.tf one.dnom one.numr uni2081 uni00B9
EndChar

StartChar: two
Encoding: 50 50 337
Width: 650
GlyphClass: 1
Flags: W
LayerCount: 2
Fore
SplineSet
52 105 m 0,1,2
 52 196 52 196 88.5 263.5 c 128,-1,3
 125 331 125 331 224 383 c 2,4,-1
 326 437 l 2,5,6
 366 459 366 459 386 484.5 c 128,-1,7
 406 510 406 510 406 546 c 0,8,9
 406 584 406 584 386.5 604.5 c 128,-1,10
 367 625 367 625 330 625 c 256,11,12
 293 625 293 625 270 602.5 c 128,-1,13
 247 580 247 580 242 534 c 1,14,-1
 47 534 l 1,15,16
 66 646 66 646 137 703 c 128,-1,17
 208 760 208 760 336 760 c 0,18,19
 453 760 453 760 520.5 705.5 c 128,-1,20
 588 651 588 651 588 547 c 0,21,22
 588 476 588 476 551 420.5 c 128,-1,23
 514 365 514 365 439 322 c 2,24,-1
 313 251 l 2,25,26
 284 235 284 235 271 217.5 c 128,-1,27
 258 200 258 200 256 179 c 1,28,-1
 588 179 l 1,29,-1
 588 40 l 1,30,-1
 57 40 l 1,31,0
 52 68 52 68 52 105 c 0,1,2
EndSplineSet
Validated: 1
Substitution2: "'tnum' Tabular Numbers in Latin lookup 22 subtable" two.tf
Substitution2: "'frac' Diagonal Fractions in Latin lookup 17 subtable" two.numr
Substitution2: "'dnom' Denominators in Latin lookup 15 subtable" two.dnom
Substitution2: "'numr' Numerators in Latin lookup 14 subtable" two.numr
Substitution2: "'sups' Superscript in Latin lookup 13 subtable" uni00B2
Substitution2: "'sinf' Scientific Inferiors in Latin lookup 12 subtable" uni2082
Substitution2: "'subs' Subscript in Latin lookup 11 subtable" uni2082
AlternateSubs2: "'aalt' Access All Alternates in Latin lookup 1 subtable" two.tf two.dnom two.numr uni2082 uni00B2
EndChar

StartChar: three
Encoding: 51 51 338
Width: 649
GlyphClass: 1
Flags: W
LayerCount: 2
Fore
SplineSet
119 81 m 128,-1,1
 48 137 48 137 32 228 c 1,2,-1
 230 228 l 1,3,4
 236 196 236 196 258 177 c 128,-1,5
 280 158 280 158 318 158 c 256,6,7
 356 158 356 158 379 180 c 128,-1,8
 402 202 402 202 402 243 c 0,9,10
 402 286 402 286 378 311 c 128,-1,11
 354 336 354 336 298 336 c 2,12,-1
 234 336 l 1,13,-1
 234 469 l 1,14,-1
 293 469 l 2,15,16
 344 469 344 469 367.5 493 c 128,-1,17
 391 517 391 517 391 550 c 0,18,19
 391 587 391 587 370.5 607 c 128,-1,20
 350 627 350 627 315 627 c 256,21,22
 280 627 280 627 260.5 608.5 c 128,-1,23
 241 590 241 590 239 560 c 1,24,-1
 41 560 l 1,25,26
 48 622 48 622 82.5 667 c 128,-1,27
 117 712 117 712 177 736 c 128,-1,28
 237 760 237 760 318 760 c 0,29,30
 394 760 394 760 455 737 c 128,-1,31
 516 714 516 714 551 671 c 128,-1,32
 586 628 586 628 586 572 c 0,33,34
 586 511 586 511 548.5 469 c 128,-1,35
 511 427 511 427 441 413 c 1,36,-1
 441 403 l 1,37,38
 517 393 517 393 557 352.5 c 128,-1,39
 597 312 597 312 597 240 c 0,40,41
 597 172 597 172 560 123.5 c 128,-1,42
 523 75 523 75 459.5 50 c 128,-1,43
 396 25 396 25 316 25 c 0,44,0
 190 25 190 25 119 81 c 128,-1,1
EndSplineSet
Validated: 1
Substitution2: "'tnum' Tabular Numbers in Latin lookup 22 subtable" three.tf
Substitution2: "'frac' Diagonal Fractions in Latin lookup 17 subtable" three.numr
Substitution2: "'dnom' Denominators in Latin lookup 15 subtable" three.dnom
Substitution2: "'numr' Numerators in Latin lookup 14 subtable" three.numr
Substitution2: "'sups' Superscript in Latin lookup 13 subtable" uni00B3
Substitution2: "'sinf' Scientific Inferiors in Latin lookup 12 subtable" uni2083
Substitution2: "'subs' Subscript in Latin lookup 11 subtable" uni2083
AlternateSubs2: "'aalt' Access All Alternates in Latin lookup 1 subtable" three.tf three.dnom three.numr uni2083 uni00B3
EndChar

StartChar: four
Encoding: 52 52 339
Width: 646
GlyphClass: 1
Flags: W
LayerCount: 2
Fore
SplineSet
333 157 m 1,0,-1
 17 157 l 1,1,-1
 17 310 l 1,2,-1
 304 745 l 1,3,-1
 523 745 l 1,4,-1
 523 300 l 1,5,-1
 624 300 l 1,6,-1
 624 157 l 1,7,-1
 523 157 l 1,8,-1
 523 40 l 1,9,-1
 333 40 l 1,10,-1
 333 157 l 1,0,-1
333 300 m 1,11,-1
 333 492 l 1,12,-1
 333 580 l 1,13,-1
 323 580 l 1,14,15
 310 544 310 544 290 510 c 0,16,17
 280 491 280 491 258 457 c 2,18,-1
 162 310 l 1,19,-1
 162 300 l 1,20,-1
 333 300 l 1,11,-1
EndSplineSet
Validated: 1
Substitution2: "'tnum' Tabular Numbers in Latin lookup 22 subtable" four.tf
Substitution2: "'frac' Diagonal Fractions in Latin lookup 17 subtable" four.numr
Substitution2: "'dnom' Denominators in Latin lookup 15 subtable" four.dnom
Substitution2: "'numr' Numerators in Latin lookup 14 subtable" four.numr
Substitution2: "'sups' Superscript in Latin lookup 13 subtable" uni2074
Substitution2: "'sinf' Scientific Inferiors in Latin lookup 12 subtable" uni2084
Substitution2: "'subs' Subscript in Latin lookup 11 subtable" uni2084
AlternateSubs2: "'aalt' Access All Alternates in Latin lookup 1 subtable" four.tf four.dnom four.numr uni2084 uni2074
EndChar

StartChar: five
Encoding: 53 53 340
Width: 634
GlyphClass: 1
Flags: W
LayerCount: 2
Fore
SplineSet
174.5 50 m 128,-1,1
 117 75 117 75 82 118 c 128,-1,2
 47 161 47 161 42 212 c 1,3,-1
 237 212 l 1,4,5
 243 183 243 183 260.5 170.5 c 128,-1,6
 278 158 278 158 304 158 c 0,7,8
 341 158 341 158 361.5 185.5 c 128,-1,9
 382 213 382 213 382 279 c 0,10,11
 382 335 382 335 364.5 364 c 128,-1,12
 347 393 347 393 310 393 c 0,13,14
 291 393 291 393 275 382 c 128,-1,15
 259 371 259 371 251 353 c 1,16,-1
 60 353 l 1,17,-1
 124 745 l 1,18,-1
 557 745 l 1,19,-1
 557 600 l 1,20,-1
 256 600 l 1,21,-1
 230 443 l 1,22,-1
 240 443 l 1,23,24
 261 481 261 481 296.5 496.5 c 128,-1,25
 332 512 332 512 381 512 c 0,26,27
 440 512 440 512 484.5 484.5 c 128,-1,28
 529 457 529 457 553 405 c 128,-1,29
 577 353 577 353 577 281 c 0,30,31
 577 197 577 197 541.5 139.5 c 128,-1,32
 506 82 506 82 444 53.5 c 128,-1,33
 382 25 382 25 302 25 c 0,34,0
 232 25 232 25 174.5 50 c 128,-1,1
EndSplineSet
Validated: 1
Substitution2: "'tnum' Tabular Numbers in Latin lookup 22 subtable" five.tf
Substitution2: "'frac' Diagonal Fractions in Latin lookup 17 subtable" five.numr
Substitution2: "'dnom' Denominators in Latin lookup 15 subtable" five.dnom
Substitution2: "'numr' Numerators in Latin lookup 14 subtable" five.numr
Substitution2: "'sups' Superscript in Latin lookup 13 subtable" uni2075
Substitution2: "'sinf' Scientific Inferiors in Latin lookup 12 subtable" uni2085
Substitution2: "'subs' Subscript in Latin lookup 11 subtable" uni2085
AlternateSubs2: "'aalt' Access All Alternates in Latin lookup 1 subtable" five.tf five.dnom five.numr uni2085 uni2075
EndChar

StartChar: six
Encoding: 54 54 341
Width: 664
GlyphClass: 1
Flags: W
LayerCount: 2
Fore
SplineSet
187 72 m 128,-1,1
 121 119 121 119 86.5 202 c 128,-1,2
 52 285 52 285 52 393 c 0,3,4
 52 512 52 512 88.5 594.5 c 128,-1,5
 125 677 125 677 192.5 718.5 c 128,-1,6
 260 760 260 760 354 760 c 0,7,8
 426 760 426 760 479.5 734.5 c 128,-1,9
 533 709 533 709 564 670.5 c 128,-1,10
 595 632 595 632 606 592 c 1,11,-1
 409 592 l 1,12,13
 400 610 400 610 385 618.5 c 128,-1,14
 370 627 370 627 350 627 c 0,15,16
 300 627 300 627 274.5 581 c 128,-1,17
 249 535 249 535 249 433 c 1,18,-1
 259 433 l 1,19,20
 279 470 279 470 321.5 491 c 128,-1,21
 364 512 364 512 414 512 c 0,22,23
 472 512 472 512 518.5 483.5 c 128,-1,24
 565 455 565 455 591 403.5 c 128,-1,25
 617 352 617 352 617 286 c 0,26,27
 617 210 617 210 584 151 c 128,-1,28
 551 92 551 92 489.5 58.5 c 128,-1,29
 428 25 428 25 345 25 c 0,30,0
 253 25 253 25 187 72 c 128,-1,1
399 182 m 128,-1,32
 422 211 422 211 422 269 c 256,33,34
 422 327 422 327 399 356 c 128,-1,35
 376 385 376 385 342 385 c 256,36,37
 308 385 308 385 285 356 c 128,-1,38
 262 327 262 327 262 269 c 256,39,40
 262 211 262 211 285 182 c 128,-1,41
 308 153 308 153 342 153 c 256,42,31
 376 153 376 153 399 182 c 128,-1,32
EndSplineSet
Validated: 1
Substitution2: "'tnum' Tabular Numbers in Latin lookup 22 subtable" six.tf
Substitution2: "'frac' Diagonal Fractions in Latin lookup 17 subtable" six.numr
Substitution2: "'dnom' Denominators in Latin lookup 15 subtable" six.dnom
Substitution2: "'numr' Numerators in Latin lookup 14 subtable" six.numr
Substitution2: "'sups' Superscript in Latin lookup 13 subtable" uni2076
Substitution2: "'sinf' Scientific Inferiors in Latin lookup 12 subtable" uni2086
Substitution2: "'subs' Subscript in Latin lookup 11 subtable" uni2086
AlternateSubs2: "'aalt' Access All Alternates in Latin lookup 1 subtable" six.tf six.dnom six.numr uni2086 uni2076
EndChar

StartChar: seven
Encoding: 55 55 342
Width: 569
GlyphClass: 1
Flags: W
LayerCount: 2
Fore
SplineSet
146 245 m 128,-1,1
 174 347 174 347 231 437 c 128,-1,2
 288 527 288 527 373 590 c 1,3,-1
 373 600 l 1,4,-1
 12 600 l 1,5,-1
 12 745 l 1,6,-1
 547 745 l 1,7,-1
 547 577 l 1,8,9
 438 473 438 473 387.5 325 c 128,-1,10
 337 177 337 177 337 40 c 1,11,-1
 118 40 l 1,12,0
 118 143 118 143 146 245 c 128,-1,1
EndSplineSet
Validated: 1
Substitution2: "'tnum' Tabular Numbers in Latin lookup 22 subtable" seven.tf
Substitution2: "'frac' Diagonal Fractions in Latin lookup 17 subtable" seven.numr
Substitution2: "'dnom' Denominators in Latin lookup 15 subtable" seven.dnom
Substitution2: "'numr' Numerators in Latin lookup 14 subtable" seven.numr
Substitution2: "'sups' Superscript in Latin lookup 13 subtable" uni2077
Substitution2: "'sinf' Scientific Inferiors in Latin lookup 12 subtable" uni2087
Substitution2: "'subs' Subscript in Latin lookup 11 subtable" uni2087
AlternateSubs2: "'aalt' Access All Alternates in Latin lookup 1 subtable" seven.tf seven.dnom seven.numr uni2087 uni2077
EndChar

StartChar: eight
Encoding: 56 56 343
Width: 680
GlyphClass: 1
Flags: W
LayerCount: 2
Fore
SplineSet
180.5 50.5 m 128,-1,1
 116 76 116 76 84 122 c 128,-1,2
 52 168 52 168 52 228 c 0,3,4
 52 294 52 294 96 340.5 c 128,-1,5
 140 387 140 387 205 396 c 1,6,-1
 205 406 l 1,7,8
 140 421 140 421 104 463 c 128,-1,9
 68 505 68 505 68 565 c 0,10,11
 68 623 68 623 100 667 c 128,-1,12
 132 711 132 711 193.5 735.5 c 128,-1,13
 255 760 255 760 340 760 c 256,14,15
 425 760 425 760 486.5 735.5 c 128,-1,16
 548 711 548 711 580 667 c 128,-1,17
 612 623 612 623 612 565 c 0,18,19
 612 505 612 505 572.5 459 c 128,-1,20
 533 413 533 413 475 406 c 1,21,-1
 475 396 l 1,22,23
 540 387 540 387 584 340.5 c 128,-1,24
 628 294 628 294 628 228 c 0,25,26
 628 168 628 168 596 122 c 128,-1,27
 564 76 564 76 499.5 50.5 c 128,-1,28
 435 25 435 25 340 25 c 256,29,0
 245 25 245 25 180.5 50.5 c 128,-1,1
408.5 174 m 128,-1,31
 432 201 432 201 432 245 c 0,32,33
 432 287 432 287 408 315.5 c 128,-1,34
 384 344 384 344 340 344 c 256,35,36
 296 344 296 344 272 315.5 c 128,-1,37
 248 287 248 287 248 245 c 0,38,39
 248 201 248 201 271.5 174 c 128,-1,40
 295 147 295 147 340 147 c 256,41,30
 385 147 385 147 408.5 174 c 128,-1,31
398 484 m 128,-1,43
 419 508 419 508 419 550 c 0,44,45
 419 591 419 591 398 614.5 c 128,-1,46
 377 638 377 638 340 638 c 256,47,48
 303 638 303 638 282 614.5 c 128,-1,49
 261 591 261 591 261 550 c 0,50,51
 261 508 261 508 282 484 c 128,-1,52
 303 460 303 460 340 460 c 256,53,42
 377 460 377 460 398 484 c 128,-1,43
EndSplineSet
Validated: 1
Substitution2: "'tnum' Tabular Numbers in Latin lookup 22 subtable" eight.tf
Substitution2: "'frac' Diagonal Fractions in Latin lookup 17 subtable" eight.numr
Substitution2: "'dnom' Denominators in Latin lookup 15 subtable" eight.dnom
Substitution2: "'numr' Numerators in Latin lookup 14 subtable" eight.numr
Substitution2: "'sups' Superscript in Latin lookup 13 subtable" uni2078
Substitution2: "'sinf' Scientific Inferiors in Latin lookup 12 subtable" uni2088
Substitution2: "'subs' Subscript in Latin lookup 11 subtable" uni2088
AlternateSubs2: "'aalt' Access All Alternates in Latin lookup 1 subtable" eight.tf eight.dnom eight.numr uni2088 uni2078
EndChar

StartChar: zero.zero
Encoding: 65541 -1 345
Width: 690
GlyphClass: 1
Flags: W
LayerCount: 2
Fore
SplineSet
194 62.5 m 128,-1,1
 127 100 127 100 87 182.5 c 128,-1,2
 47 265 47 265 47 393 c 256,3,4
 47 521 47 521 87 603 c 128,-1,5
 127 685 127 685 194 722.5 c 128,-1,6
 261 760 261 760 345 760 c 256,7,8
 429 760 429 760 496 722.5 c 128,-1,9
 563 685 563 685 603 603 c 128,-1,10
 643 521 643 521 643 393 c 256,11,12
 643 265 643 265 603 182.5 c 128,-1,13
 563 100 563 100 496 62.5 c 128,-1,14
 429 25 429 25 345 25 c 256,15,0
 261 25 261 25 194 62.5 c 128,-1,1
425.5 220.5 m 128,-1,17
 448 276 448 276 448 393 c 0,18,19
 448 509 448 509 425.5 564.5 c 128,-1,20
 403 620 403 620 345 620 c 256,21,22
 287 620 287 620 264.5 564.5 c 128,-1,23
 242 509 242 509 242 393 c 0,24,25
 242 276 242 276 264.5 220.5 c 128,-1,26
 287 165 287 165 345 165 c 256,27,16
 403 165 403 165 425.5 220.5 c 128,-1,17
156 229 m 1,28,-1
 488 653 l 1,29,-1
 533 556 l 1,30,-1
 202 133 l 1,31,-1
 156 229 l 1,28,-1
EndSplineSet
Validated: 5
EndChar

StartChar: asterisk
Encoding: 42 42 346
Width: 422
GlyphClass: 1
Flags: W
LayerCount: 2
Fore
SplineSet
41 465 m 1,0,-1
 140 586 l 1,1,-1
 143 557 l 1,2,-1
 0 592 l 1,3,-1
 39 713 l 1,4,-1
 182 656 l 1,5,-1
 157 642 l 1,6,-1
 147 790 l 1,7,-1
 275 790 l 1,8,-1
 265 642 l 1,9,-1
 240 656 l 1,10,-1
 383 713 l 1,11,-1
 422 592 l 1,12,-1
 279 557 l 1,13,-1
 282 586 l 1,14,-1
 381 465 l 1,15,-1
 278 390 l 1,16,-1
 200 512 l 1,17,-1
 222 512 l 1,18,-1
 144 390 l 1,19,-1
 41 465 l 1,0,-1
EndSplineSet
Validated: 5
EndChar

StartChar: asciitilde
Encoding: 126 126 347
Width: 574
GlyphClass: 1
Flags: W
LayerCount: 2
Fore
SplineSet
343 277 m 128,-1,1
 323 283 323 283 305 295 c 2,2,-1
 262 323 l 2,3,4
 235 340 235 340 220 340 c 0,5,6
 203 340 203 340 193.5 322.5 c 128,-1,7
 184 305 184 305 184 271 c 1,8,-1
 29 271 l 1,9,10
 29 389 29 389 70.5 452.5 c 128,-1,11
 112 516 112 516 189 516 c 0,12,13
 211 516 211 516 231 510 c 128,-1,14
 251 504 251 504 269 492 c 2,15,-1
 312 464 l 2,16,17
 339 447 339 447 354 447 c 0,18,19
 371 447 371 447 380.5 464.5 c 128,-1,20
 390 482 390 482 390 516 c 1,21,-1
 545 516 l 1,22,23
 545 398 545 398 503.5 334.5 c 128,-1,24
 462 271 462 271 385 271 c 0,25,0
 363 271 363 271 343 277 c 128,-1,1
EndSplineSet
Validated: 1
EndChar

StartChar: backslash
Encoding: 92 92 348
Width: 458
GlyphClass: 1
Flags: W
LayerCount: 2
Fore
SplineSet
-8 810 m 1,0,-1
 161 810 l 1,1,-1
 466 -60 l 1,2,-1
 295 -60 l 1,3,-1
 -8 810 l 1,0,-1
EndSplineSet
Validated: 1
Substitution2: "'case' Case-Sensitive Forms in Latin lookup 23 subtable" backslash.case
Substitution2: "'aalt' Access All Alternates in Latin lookup 0 subtable" backslash.case
EndChar

StartChar: quotesingle
Encoding: 39 39 350
Width: 271
GlyphClass: 1
Flags: W
LayerCount: 2
Fore
SplineSet
60 568 m 128,-1,1
 57 578 57 578 52 598 c 0,2,3
 47 617 47 617 44.5 633 c 128,-1,4
 42 649 42 649 42 662 c 0,5,6
 42 707 42 707 68 733.5 c 128,-1,7
 94 760 94 760 135 760 c 0,8,9
 177 760 177 760 203 733.5 c 128,-1,10
 229 707 229 707 229 662 c 0,11,12
 229 640 229 640 222 608 c 0,13,14
 219 593 219 593 214 575.5 c 128,-1,15
 209 558 209 558 203 537 c 2,16,-1
 169 420 l 1,17,-1
 102 420 l 1,18,-1
 68 537 l 2,19,0
 63 558 63 558 60 568 c 128,-1,1
EndSplineSet
Validated: 1
Substitution2: "'ss06' Style Set 6 in Latin lookup 30 subtable" quotesingle.ss06
Substitution2: "'aalt' Access All Alternates in Latin lookup 0 subtable" quotesingle.ss06
EndChar

StartChar: uni02BC
Encoding: 700 700 352
Width: 298
GlyphClass: 1
Flags: W
LayerCount: 2
Fore
SplineSet
125.5 510.5 m 128,-1,1
 143 551 143 551 148 595 c 1,2,-1
 198 634 l 1,3,4
 193 602 193 602 176 586 c 128,-1,5
 159 570 159 570 128 570 c 0,6,7
 91 570 91 570 66.5 595 c 128,-1,8
 42 620 42 620 42 657 c 0,9,10
 42 701 42 701 70 728 c 128,-1,11
 98 755 98 755 143 755 c 0,12,13
 194 755 194 755 225 719 c 128,-1,14
 256 683 256 683 256 623 c 0,15,16
 256 577 256 577 239.5 528 c 128,-1,17
 223 479 223 479 187 420 c 1,18,-1
 73 420 l 1,19,0
 108 470 108 470 125.5 510.5 c 128,-1,1
EndSplineSet
Validated: 5
Substitution2: "'ss06' Style Set 6 in Latin lookup 30 subtable" uni02BC.ss06
Substitution2: "'aalt' Access All Alternates in Latin lookup 0 subtable" uni02BC.ss06
EndChar

StartChar: ampersand
Encoding: 38 38 353
Width: 785
GlyphClass: 1
Flags: W
LayerCount: 2
Fore
SplineSet
95.5 502.5 m 128,-1,1
 78 539 78 539 78 579 c 0,2,3
 78 631 78 631 110 672 c 128,-1,4
 142 713 142 713 199 736.5 c 128,-1,5
 256 760 256 760 328 760 c 0,6,7
 399 760 399 760 455 738.5 c 128,-1,8
 511 717 511 717 542.5 677.5 c 128,-1,9
 574 638 574 638 574 585 c 0,10,11
 574 528 574 528 532.5 477.5 c 128,-1,12
 491 427 491 427 402 398 c 1,13,-1
 318 486 l 1,14,15
 358 504 358 504 375 525.5 c 128,-1,16
 392 547 392 547 392 582 c 0,17,18
 392 614 392 614 375.5 632 c 128,-1,19
 359 650 359 650 330 650 c 0,20,21
 299 650 299 650 282.5 632.5 c 128,-1,22
 266 615 266 615 266 586 c 0,23,24
 266 566 266 566 277 545 c 128,-1,25
 288 524 288 524 315 497 c 2,26,-1
 783 40 l 1,27,-1
 562 40 l 1,28,-1
 150 430 l 2,29,0
 113 466 113 466 95.5 502.5 c 128,-1,1
141 53 m 128,-1,31
 77 81 77 81 44.5 128 c 128,-1,32
 12 175 12 175 12 233 c 0,33,34
 12 292 12 292 60 345 c 128,-1,35
 108 398 108 398 195 424 c 1,36,-1
 274 344 l 1,37,38
 238 329 238 329 220 303 c 128,-1,39
 202 277 202 277 202 246 c 0,40,41
 202 221 202 221 212.5 201 c 128,-1,42
 223 181 223 181 245.5 169.5 c 128,-1,43
 268 158 268 158 302 158 c 0,44,45
 341 158 341 158 370 174.5 c 128,-1,46
 399 191 399 191 422 221 c 1,47,-1
 527 119 l 1,48,49
 494 75 494 75 437 50 c 128,-1,50
 380 25 380 25 295 25 c 0,51,30
 205 25 205 25 141 53 c 128,-1,31
507 331.5 m 128,-1,53
 517 359 517 359 524 394 c 1,54,-1
 700 394 l 1,55,56
 693 332 693 332 672.5 283.5 c 128,-1,57
 652 235 652 235 603 168 c 1,58,-1
 483 286 l 1,59,52
 497 304 497 304 507 331.5 c 128,-1,53
EndSplineSet
Validated: 5
EndChar

StartChar: at
Encoding: 64 64 354
Width: 941
GlyphClass: 1
Flags: W
LayerCount: 2
Fore
SplineSet
246.5 -72.5 m 128,-1,1
 149 -20 149 -20 98 75.5 c 128,-1,2
 47 171 47 171 47 298 c 0,3,4
 47 421 47 421 96.5 516.5 c 128,-1,5
 146 612 146 612 243 666 c 128,-1,6
 340 720 340 720 477 720 c 0,7,8
 599 720 599 720 694 674.5 c 128,-1,9
 789 629 789 629 841.5 545.5 c 128,-1,10
 894 462 894 462 894 353 c 0,11,12
 894 272 894 272 872.5 207.5 c 128,-1,13
 851 143 851 143 804 104 c 128,-1,14
 757 65 757 65 685 65 c 0,15,16
 637 65 637 65 598.5 84.5 c 128,-1,17
 560 104 560 104 551 135 c 1,18,-1
 543 135 l 1,19,20
 525 101 525 101 489 86 c 128,-1,21
 453 71 453 71 410 71 c 0,22,23
 348 71 348 71 304.5 100.5 c 128,-1,24
 261 130 261 130 239 182.5 c 128,-1,25
 217 235 217 235 217 303 c 256,26,27
 217 371 217 371 239 423.5 c 128,-1,28
 261 476 261 476 304.5 505.5 c 128,-1,29
 348 535 348 535 410 535 c 0,30,31
 453 535 453 535 488.5 520 c 128,-1,32
 524 505 524 505 539 471 c 1,33,-1
 547 471 l 1,34,-1
 547 523 l 1,35,-1
 690 523 l 1,36,-1
 690 523 l 1,37,-1
 690 219 l 2,38,39
 690 201 690 201 698.5 190.5 c 128,-1,40
 707 180 707 180 723 180 c 0,41,42
 753 180 753 180 769.5 219.5 c 128,-1,43
 786 259 786 259 786 337 c 1,44,-1
 786 337 l 1,45,46
 786 428 786 428 748 491 c 128,-1,47
 710 554 710 554 641 586 c 128,-1,48
 572 618 572 618 479 618 c 0,49,50
 373 618 373 618 300 577 c 128,-1,51
 227 536 227 536 191 464 c 128,-1,52
 155 392 155 392 155 298 c 0,53,54
 155 202 155 202 194 128.5 c 128,-1,55
 233 55 233 55 310 14 c 128,-1,56
 387 -27 387 -27 497 -27 c 2,57,-1
 709 -27 l 1,58,-1
 709 -125 l 1,59,-1
 482 -125 l 2,60,0
 344 -125 344 -125 246.5 -72.5 c 128,-1,1
520 210 m 128,-1,62
 543 239 543 239 543 303 c 256,63,64
 543 367 543 367 520 396 c 128,-1,65
 497 425 497 425 459 425 c 256,66,67
 421 425 421 425 397.5 395.5 c 128,-1,68
 374 366 374 366 374 303 c 0,69,70
 374 239 374 239 397.5 210 c 128,-1,71
 421 181 421 181 459 181 c 256,72,61
 497 181 497 181 520 210 c 128,-1,62
EndSplineSet
Validated: 5
Substitution2: "'case' Case-Sensitive Forms in Latin lookup 23 subtable" at.case
Substitution2: "'aalt' Access All Alternates in Latin lookup 0 subtable" at.case
EndChar

StartChar: copyright
Encoding: 169 169 355
Width: 970
GlyphClass: 1
Flags: W
LayerCount: 2
Fore
SplineSet
264 0 m 128,-1,1
 164 55 164 55 105.5 155 c 128,-1,2
 47 255 47 255 47 383 c 0,3,4
 47 510 47 510 105.5 610 c 128,-1,5
 164 710 164 710 264 765 c 128,-1,6
 364 820 364 820 485 820 c 256,7,8
 606 820 606 820 706 765 c 128,-1,9
 806 710 806 710 864.5 610 c 128,-1,10
 923 510 923 510 923 383 c 0,11,12
 923 255 923 255 864.5 155 c 128,-1,13
 806 55 806 55 706 0 c 128,-1,14
 606 -55 606 -55 485 -55 c 256,15,0
 364 -55 364 -55 264 0 c 128,-1,1
661.5 81.5 m 128,-1,17
 738 128 738 128 780.5 207.5 c 128,-1,18
 823 287 823 287 823 383 c 0,19,20
 823 480 823 480 781 559.5 c 128,-1,21
 739 639 739 639 662 684.5 c 128,-1,22
 585 730 585 730 485 730 c 256,23,24
 385 730 385 730 308 684.5 c 128,-1,25
 231 639 231 639 189 559.5 c 128,-1,26
 147 480 147 480 147 383 c 0,27,28
 147 287 147 287 189.5 207.5 c 128,-1,29
 232 128 232 128 308.5 81.5 c 128,-1,30
 385 35 385 35 485 35 c 256,31,16
 585 35 585 35 661.5 81.5 c 128,-1,17
366.5 179 m 128,-1,33
 312 210 312 210 281.5 264.5 c 128,-1,34
 251 319 251 319 251 387 c 256,35,36
 251 455 251 455 281.5 509 c 128,-1,37
 312 563 312 563 366.5 594 c 128,-1,38
 421 625 421 625 489 625 c 0,39,40
 562 625 562 625 612 602 c 128,-1,41
 662 579 662 579 688 540 c 128,-1,42
 714 501 714 501 719 454 c 1,43,-1
 558 454 l 1,44,45
 552 479 552 479 535 492.5 c 128,-1,46
 518 506 518 506 494 506 c 0,47,48
 457 506 457 506 435 476 c 128,-1,49
 413 446 413 446 413 387 c 0,50,51
 413 329 413 329 435 299 c 128,-1,52
 457 269 457 269 494 269 c 0,53,54
 517 269 517 269 534.5 283 c 128,-1,55
 552 297 552 297 558 319 c 1,56,-1
 719 319 l 1,57,58
 714 272 714 272 688 233 c 128,-1,59
 662 194 662 194 612 171 c 128,-1,60
 562 148 562 148 489 148 c 0,61,32
 421 148 421 148 366.5 179 c 128,-1,33
EndSplineSet
Validated: 1
EndChar

StartChar: registered
Encoding: 174 174 356
Width: 598
GlyphClass: 1
Flags: W
LayerCount: 2
Fore
SplineSet
170 289 m 128,-1,1
 112 322 112 322 79.5 379.5 c 128,-1,2
 47 437 47 437 47 509 c 0,3,4
 47 580 47 580 79.5 637.5 c 128,-1,5
 112 695 112 695 170 727.5 c 128,-1,6
 228 760 228 760 299 760 c 0,7,8
 371 760 371 760 428.5 727.5 c 128,-1,9
 486 695 486 695 518.5 638 c 128,-1,10
 551 581 551 581 551 509 c 256,11,12
 551 437 551 437 518.5 379.5 c 128,-1,13
 486 322 486 322 428.5 289 c 128,-1,14
 371 256 371 256 299 256 c 0,15,0
 228 256 228 256 170 289 c 128,-1,1
397.5 336.5 m 128,-1,17
 441 362 441 362 466 407.5 c 128,-1,18
 491 453 491 453 491 509 c 256,19,20
 491 565 491 565 466.5 610 c 128,-1,21
 442 655 442 655 398 680 c 128,-1,22
 354 705 354 705 299 705 c 256,23,24
 244 705 244 705 200.5 680 c 128,-1,25
 157 655 157 655 132 610 c 128,-1,26
 107 565 107 565 107 509 c 256,27,28
 107 453 107 453 132 407.5 c 128,-1,29
 157 362 157 362 201 336.5 c 128,-1,30
 245 311 245 311 299 311 c 0,31,16
 354 311 354 311 397.5 336.5 c 128,-1,17
187 646 m 1,32,-1
 318 646 l 2,33,34
 366 646 366 646 392 624 c 128,-1,35
 418 602 418 602 418 561 c 0,36,37
 418 536 418 536 404.5 518 c 128,-1,38
 391 500 391 500 365 494 c 1,39,-1
 365 488 l 1,40,41
 388 484 388 484 398.5 474 c 128,-1,42
 409 464 409 464 414 445 c 2,43,-1
 423 409 l 2,44,45
 427 393 427 393 433 378 c 1,46,-1
 345 378 l 1,47,48
 342 384 342 384 341 393 c 0,49,50
 339 402 339 402 336 410 c 2,51,-1
 329 439 l 2,52,53
 326 448 326 448 322.5 453 c 128,-1,54
 319 458 319 458 313.5 460.5 c 128,-1,55
 308 463 308 463 299 463 c 2,56,-1
 271 463 l 1,57,-1
 271 378 l 1,58,-1
 187 378 l 1,59,-1
 187 646 l 1,32,-1
328 530 m 128,-1,61
 337 539 337 539 337 553 c 0,62,63
 337 569 337 569 328.5 578 c 128,-1,64
 320 587 320 587 305 587 c 2,65,-1
 271 587 l 1,66,-1
 271 521 l 1,67,-1
 305 521 l 2,68,60
 319 521 319 521 328 530 c 128,-1,61
EndSplineSet
Validated: 1
EndChar

StartChar: trademark
Encoding: 8482 8482 357
Width: 790
GlyphClass: 1
Flags: W
LayerCount: 2
Fore
SplineSet
324 745 m 1,0,-1
 499 745 l 1,1,-1
 546 494 l 1,2,-1
 556 494 l 1,3,-1
 601 745 l 1,4,-1
 778 745 l 1,5,-1
 778 390 l 1,6,-1
 677 390 l 1,7,-1
 677 615 l 1,8,-1
 667 615 l 1,9,-1
 629 390 l 1,10,-1
 473 390 l 1,11,-1
 435 615 l 1,12,-1
 425 615 l 1,13,-1
 425 390 l 1,14,-1
 324 390 l 1,15,-1
 324 745 l 1,0,-1
82 735 m 1,16,-1
 206 735 l 1,17,-1
 206 390 l 1,18,-1
 82 390 l 1,19,-1
 82 735 l 1,16,-1
-8 745 m 1,20,-1
 294 745 l 1,21,-1
 294 649 l 1,22,-1
 -8 649 l 1,23,-1
 -8 745 l 1,20,-1
EndSplineSet
Validated: 5
EndChar

StartChar: paragraph
Encoding: 182 182 358
Width: 737
GlyphClass: 1
Flags: W
LayerCount: 2
Fore
SplineSet
335 246 m 1,0,-1
 287 246 l 2,1,2
 202 246 202 246 142 280 c 128,-1,3
 82 314 82 314 52 371 c 128,-1,4
 22 428 22 428 22 496 c 256,5,6
 22 564 22 564 52 620.5 c 128,-1,7
 82 677 82 677 142 711 c 128,-1,8
 202 745 202 745 287 745 c 2,9,-1
 650 745 l 1,10,-1
 650 -110 l 1,11,-1
 535 -110 l 1,12,-1
 535 645 l 1,13,-1
 450 645 l 1,14,-1
 450 -110 l 1,15,-1
 335 -110 l 1,16,-1
 335 246 l 1,0,-1
EndSplineSet
Validated: 1
EndChar

StartChar: section
Encoding: 167 167 359
Width: 619
GlyphClass: 1
Flags: W
LayerCount: 2
Fore
SplineSet
172.5 -120.5 m 128,-1,1
 116 -100 116 -100 83 -54.5 c 128,-1,2
 50 -9 50 -9 48 63 c 1,3,-1
 213 63 l 1,4,5
 213 37 213 37 224.5 18.5 c 128,-1,6
 236 0 236 0 258 -9 c 128,-1,7
 280 -18 280 -18 311 -18 c 0,8,9
 352 -18 352 -18 376 -1 c 128,-1,10
 400 16 400 16 400 47 c 0,11,12
 400 73 400 73 382 89 c 128,-1,13
 364 105 364 105 329 115 c 2,14,-1
 215 146 l 2,15,16
 132 168 132 168 92.5 207 c 128,-1,17
 53 246 53 246 53 312 c 0,18,19
 53 353 53 353 76.5 382.5 c 128,-1,20
 100 412 100 412 147 427 c 1,21,-1
 147 437 l 1,22,23
 99 464 99 464 78.5 495.5 c 128,-1,24
 58 527 58 527 58 568 c 0,25,26
 58 657 58 657 123.5 708.5 c 128,-1,27
 189 760 189 760 309 760 c 0,28,29
 383 760 383 760 439 737.5 c 128,-1,30
 495 715 495 715 527.5 669.5 c 128,-1,31
 560 624 560 624 562 556 c 1,32,-1
 397 556 l 1,33,34
 397 594 397 594 373 615.5 c 128,-1,35
 349 637 349 637 304 637 c 0,36,37
 265 637 265 637 242.5 620.5 c 128,-1,38
 220 604 220 604 220 574 c 0,39,40
 220 549 220 549 237 534 c 128,-1,41
 254 519 254 519 286 510 c 2,42,-1
 404 479 l 2,43,44
 486 457 486 457 526 418 c 128,-1,45
 566 379 566 379 566 313 c 0,46,47
 566 271 566 271 542.5 242 c 128,-1,48
 519 213 519 213 472 198 c 1,49,-1
 472 188 l 1,50,51
 520 160 520 160 541 126 c 128,-1,52
 562 92 562 92 562 48 c 0,53,54
 562 -40 562 -40 495 -90.5 c 128,-1,55
 428 -141 428 -141 306 -141 c 0,56,0
 229 -141 229 -141 172.5 -120.5 c 128,-1,1
400 223 m 1,58,-1
 317 207 l 1,59,60
 356 218 356 218 378.5 243.5 c 128,-1,61
 401 269 401 269 401 301 c 0,62,63
 401 330 401 330 382 345.5 c 128,-1,64
 363 361 363 361 318 373 c 2,65,-1
 268 386 l 2,66,67
 233 395 233 395 215 402 c 1,68,-1
 302 418 l 1,69,70
 263 406 263 406 240.5 381 c 128,-1,71
 218 356 218 356 218 324 c 0,72,73
 218 296 218 296 237 280 c 128,-1,74
 256 264 256 264 301 252 c 2,75,-1
 347 239 l 2,76,57
 358 236 358 236 400 223 c 1,58,-1
EndSplineSet
Validated: 5
EndChar

StartChar: asciicircum
Encoding: 94 94 360
Width: 574
GlyphClass: 1
Flags: W
LayerCount: 2
Fore
SplineSet
181 745 m 1,0,-1
 393 745 l 1,1,-1
 554 394 l 1,2,-1
 365 394 l 1,3,-1
 230 718 l 1,4,-1
 344 718 l 1,5,-1
 209 394 l 1,6,-1
 20 394 l 1,7,-1
 181 745 l 1,0,-1
EndSplineSet
Validated: 5
EndChar

StartChar: dagger
Encoding: 8224 8224 361
Width: 614
GlyphClass: 1
Flags: W
LayerCount: 2
Fore
SplineSet
212 745 m 1,0,-1
 402 745 l 1,1,-1
 402 40 l 1,2,-1
 212 40 l 1,3,-1
 212 745 l 1,0,-1
67 555 m 1,4,-1
 547 555 l 1,5,-1
 547 395 l 1,6,-1
 67 395 l 1,7,-1
 67 555 l 1,4,-1
EndSplineSet
Validated: 5
EndChar

StartChar: daggerdbl
Encoding: 8225 8225 362
Width: 604
GlyphClass: 1
Flags: W
LayerCount: 2
Fore
SplineSet
212 745 m 1,0,-1
 392 745 l 1,1,-1
 392 40 l 1,2,-1
 212 40 l 1,3,-1
 212 745 l 1,0,-1
67 615 m 1,4,-1
 537 615 l 1,5,-1
 537 455 l 1,6,-1
 67 455 l 1,7,-1
 67 615 l 1,4,-1
67 350 m 1,8,-1
 537 350 l 1,9,-1
 537 190 l 1,10,-1
 67 190 l 1,11,-1
 67 350 l 1,8,-1
EndSplineSet
Validated: 5
EndChar

StartChar: dollar
Encoding: 36 36 363
Width: 644
GlyphClass: 1
Flags: W
LayerCount: 2
Fore
SplineSet
178 52 m 128,-1,1
 119 79 119 79 85.5 126 c 128,-1,2
 52 173 52 173 48 230 c 1,3,-1
 233 230 l 1,4,5
 235 207 235 207 247 188.5 c 128,-1,6
 259 170 259 170 279.5 159 c 128,-1,7
 300 148 300 148 326 148 c 0,8,9
 371 148 371 148 398 169.5 c 128,-1,10
 425 191 425 191 425 228 c 256,11,12
 425 265 425 265 403 287 c 128,-1,13
 381 309 381 309 338 321 c 2,14,-1
 228 352 l 2,15,16
 147 375 147 375 103.5 423.5 c 128,-1,17
 60 472 60 472 60 545 c 0,18,19
 60 605 60 605 94 654.5 c 128,-1,20
 128 704 128 704 187.5 732 c 128,-1,21
 247 760 247 760 321 760 c 0,22,23
 398 760 398 760 458 734 c 128,-1,24
 518 708 518 708 552.5 662 c 128,-1,25
 587 616 587 616 591 557 c 1,26,-1
 416 557 l 1,27,28
 413 592 413 592 388.5 614.5 c 128,-1,29
 364 637 364 637 324 637 c 0,30,31
 281 637 281 637 253.5 618.5 c 128,-1,32
 226 600 226 600 226 566 c 0,33,34
 226 533 226 533 246 512.5 c 128,-1,35
 266 492 266 492 307 479 c 2,36,-1
 417 446 l 2,37,38
 500 419 500 419 545 373.5 c 128,-1,39
 590 328 590 328 590 247 c 0,40,41
 590 184 590 184 555 133 c 128,-1,42
 520 82 520 82 457 53.5 c 128,-1,43
 394 25 394 25 314 25 c 0,44,0
 237 25 237 25 178 52 c 128,-1,1
272 101 m 1,45,-1
 382 101 l 1,46,-1
 382 -45 l 1,47,-1
 272 -45 l 1,48,-1
 272 101 l 1,45,-1
272 830 m 1,49,-1
 382 830 l 1,50,-1
 382 685 l 1,51,-1
 272 685 l 1,52,-1
 272 830 l 1,49,-1
EndSplineSet
Validated: 5
Substitution2: "'tnum' Tabular Numbers in Latin lookup 22 subtable" dollar.tf
Substitution2: "'aalt' Access All Alternates in Latin lookup 0 subtable" dollar.tf
EndChar

StartChar: cent
Encoding: 162 162 364
Width: 573
GlyphClass: 2
Flags: W
AnchorPoint: "Anchor-1" 321 560 basechar 0
AnchorPoint: "Anchor-0" 321 45 basechar 0
LayerCount: 2
Fore
SplineSet
158.5 103 m 128,-1,1
 98 136 98 136 65.5 197.5 c 128,-1,2
 33 259 33 259 33 343 c 1,3,-1
 33 343 l 1,4,5
 33 426 33 426 65.5 487.5 c 128,-1,6
 98 549 98 549 158.5 582 c 128,-1,7
 219 615 219 615 301 615 c 0,8,9
 366 615 366 615 418.5 593 c 128,-1,10
 471 571 471 571 503.5 531 c 128,-1,11
 536 491 536 491 543 439 c 1,12,-1
 358 439 l 1,13,14
 353 464 353 464 337.5 477 c 128,-1,15
 322 490 322 490 297 490 c 0,16,17
 258 490 258 490 238.5 453.5 c 128,-1,18
 219 417 219 417 219 343 c 1,19,-1
 219 343 l 1,20,21
 219 270 219 270 239 232.5 c 128,-1,22
 259 195 259 195 298 195 c 0,23,24
 322 195 322 195 337.5 208.5 c 128,-1,25
 353 222 353 222 359 248 c 1,26,-1
 544 248 l 1,27,28
 537 195 537 195 504.5 154.5 c 128,-1,29
 472 114 472 114 419.5 92 c 128,-1,30
 367 70 367 70 302 70 c 0,31,0
 219 70 219 70 158.5 103 c 128,-1,1
236 140 m 1,32,-1
 361 140 l 1,33,-1
 361 -15 l 1,34,-1
 236 -15 l 1,35,-1
 236 140 l 1,32,-1
236 700 m 1,36,-1
 361 700 l 1,37,-1
 361 545 l 1,38,-1
 236 545 l 1,39,-1
 236 700 l 1,36,-1
EndSplineSet
Validated: 5
Substitution2: "'tnum' Tabular Numbers in Latin lookup 22 subtable" cent.tf
Substitution2: "'aalt' Access All Alternates in Latin lookup 0 subtable" cent.tf
EndChar

StartChar: sterling
Encoding: 163 163 365
Width: 615
GlyphClass: 1
Flags: W
LayerCount: 2
Fore
SplineSet
85.5 245 m 128,-1,1
 104 279 104 279 104 311 c 0,2,3
 104 329 104 329 98.5 347 c 128,-1,4
 93 365 93 365 82 392 c 0,5,6
 66 429 66 429 57.5 460.5 c 128,-1,7
 49 492 49 492 49 530 c 0,8,9
 49 599 49 599 78.5 651 c 128,-1,10
 108 703 108 703 164.5 731.5 c 128,-1,11
 221 760 221 760 300 760 c 0,12,13
 381 760 381 760 440.5 734 c 128,-1,14
 500 708 500 708 532.5 662 c 128,-1,15
 565 616 565 616 568 557 c 1,16,-1
 373 557 l 1,17,18
 370 584 370 584 351.5 602 c 128,-1,19
 333 620 333 620 300 620 c 0,20,21
 266 620 266 620 249 598.5 c 128,-1,22
 232 577 232 577 232 534 c 0,23,24
 232 505 232 505 239 481 c 128,-1,25
 246 457 246 457 259 427 c 256,26,27
 272 397 272 397 278.5 373.5 c 128,-1,28
 285 350 285 350 285 322 c 0,29,30
 285 278 285 278 266.5 244.5 c 128,-1,31
 248 211 248 211 215 189 c 1,32,-1
 215 180 l 1,33,-1
 558 180 l 1,34,-1
 558 40 l 1,35,-1
 34 40 l 1,36,-1
 34 180 l 1,37,0
 67 211 67 211 85.5 245 c 128,-1,1
-3 447 m 1,38,-1
 404 447 l 1,39,-1
 404 338 l 1,40,-1
 -3 338 l 1,41,-1
 -3 447 l 1,38,-1
EndSplineSet
Validated: 5
Substitution2: "'tnum' Tabular Numbers in Latin lookup 22 subtable" sterling.tf
Substitution2: "'aalt' Access All Alternates in Latin lookup 0 subtable" sterling.tf
EndChar

StartChar: yen
Encoding: 165 165 366
Width: 643
GlyphClass: 1
Flags: W
LayerCount: 2
Fore
SplineSet
229 311 m 1,0,-1
 6 745 l 1,1,-1
 217 745 l 1,2,-1
 282 587 l 2,3,4
 286 578 286 578 289.5 569.5 c 128,-1,5
 293 561 293 561 296 552 c 0,6,7
 303 536 303 536 308 519.5 c 128,-1,8
 313 503 313 503 318 487 c 1,9,-1
 328 487 l 1,10,11
 338 523 338 523 363 587 c 2,12,-1
 426 745 l 1,13,-1
 637 745 l 1,14,-1
 414 311 l 1,15,-1
 414 40 l 1,16,-1
 229 40 l 1,17,-1
 229 311 l 1,0,-1
94 237 m 1,18,-1
 548 237 l 1,19,-1
 548 167 l 1,20,-1
 94 167 l 1,21,-1
 94 237 l 1,18,-1
94 357 m 1,22,-1
 548 357 l 1,23,-1
 548 287 l 1,24,-1
 94 287 l 1,25,-1
 94 357 l 1,22,-1
EndSplineSet
Validated: 5
Substitution2: "'tnum' Tabular Numbers in Latin lookup 22 subtable" yen.tf
Substitution2: "'aalt' Access All Alternates in Latin lookup 0 subtable" yen.tf
EndChar

StartChar: Euro
Encoding: 8364 8364 367
Width: 657
GlyphClass: 1
Flags: W
LayerCount: 2
Fore
SplineSet
181.5 69 m 128,-1,1
 115 113 115 113 79.5 195.5 c 128,-1,2
 44 278 44 278 44 392 c 256,3,4
 44 506 44 506 79 589 c 128,-1,5
 114 672 114 672 180.5 716 c 128,-1,6
 247 760 247 760 339 760 c 0,7,8
 455 760 455 760 529.5 705.5 c 128,-1,9
 604 651 604 651 615 557 c 1,10,-1
 420 557 l 1,11,12
 416 587 416 587 395.5 603.5 c 128,-1,13
 375 620 375 620 343 620 c 0,14,15
 285 620 285 620 256.5 563.5 c 128,-1,16
 228 507 228 507 228 392 c 0,17,18
 228 278 228 278 256.5 221.5 c 128,-1,19
 285 165 285 165 343 165 c 0,20,21
 375 165 375 165 395.5 181.5 c 128,-1,22
 416 198 416 198 420 228 c 1,23,-1
 615 228 l 1,24,25
 604 134 604 134 529.5 79.5 c 128,-1,26
 455 25 455 25 339 25 c 0,27,0
 248 25 248 25 181.5 69 c 128,-1,1
-3 368 m 1,28,-1
 377 368 l 1,29,-1
 377 298 l 1,30,-1
 -3 298 l 1,31,-1
 -3 368 l 1,28,-1
-3 488 m 1,32,-1
 377 488 l 1,33,-1
 377 418 l 1,34,-1
 -3 418 l 1,35,-1
 -3 488 l 1,32,-1
EndSplineSet
Validated: 5
Substitution2: "'tnum' Tabular Numbers in Latin lookup 22 subtable" Euro.tf
Substitution2: "'aalt' Access All Alternates in Latin lookup 0 subtable" Euro.tf
EndChar

StartChar: currency
Encoding: 164 164 368
Width: 676
GlyphClass: 1
Flags: W
LayerCount: 2
Fore
SplineSet
214.5 164 m 128,-1,1
 160 194 160 194 130.5 247 c 128,-1,2
 101 300 101 300 101 367 c 256,3,4
 101 434 101 434 130.5 487 c 128,-1,5
 160 540 160 540 214.5 569.5 c 128,-1,6
 269 599 269 599 341 599 c 0,7,8
 411 599 411 599 465.5 569.5 c 128,-1,9
 520 540 520 540 550 487 c 128,-1,10
 580 434 580 434 580 367 c 256,11,12
 580 300 580 300 550 247 c 128,-1,13
 520 194 520 194 465.5 164 c 128,-1,14
 411 134 411 134 341 134 c 0,15,0
 269 134 269 134 214.5 164 c 128,-1,1
33 203 m 1,16,-1
 122 292 l 1,17,-1
 236 177 l 1,18,-1
 147 88 l 1,19,-1
 33 203 l 1,16,-1
33 549 m 1,20,-1
 147 664 l 1,21,-1
 236 575 l 1,22,-1
 122 460 l 1,23,-1
 33 549 l 1,20,-1
396 293 m 128,-1,25
 413 320 413 320 413 367 c 0,26,27
 413 411 413 411 395.5 439 c 128,-1,28
 378 467 378 467 341 467 c 0,29,30
 303 467 303 467 285.5 439 c 128,-1,31
 268 411 268 411 268 367 c 0,32,33
 268 320 268 320 285.5 293 c 128,-1,34
 303 266 303 266 341 266 c 256,35,24
 379 266 379 266 396 293 c 128,-1,25
440 177 m 1,36,-1
 554 292 l 1,37,-1
 643 203 l 1,38,-1
 529 88 l 1,39,-1
 440 177 l 1,36,-1
440 575 m 1,40,-1
 529 664 l 1,41,-1
 643 549 l 1,42,-1
 554 460 l 1,43,-1
 440 575 l 1,40,-1
EndSplineSet
Validated: 5
Substitution2: "'tnum' Tabular Numbers in Latin lookup 22 subtable" currency.tf
Substitution2: "'aalt' Access All Alternates in Latin lookup 0 subtable" currency.tf
EndChar

StartChar: fraction
Encoding: 8260 8260 371
Width: 169
GlyphClass: 1
Flags: W
LayerCount: 2
Fore
SplineSet
292 745 m 1,0,-1
 407 745 l 1,1,-1
 -123 40 l 1,2,-1
 -238 40 l 1,3,-1
 292 745 l 1,0,-1
EndSplineSet
Validated: 1
EndChar

StartChar: percent
Encoding: 37 37 381
Width: 830
GlyphClass: 1
Flags: W
LayerCount: 2
Fore
SplineSet
616 745 m 1,0,-1
 731 745 l 1,1,-1
 201 40 l 1,2,-1
 86 40 l 1,3,-1
 616 745 l 1,0,-1
95 416 m 128,-1,5
 53 439 53 439 30 481 c 128,-1,6
 7 523 7 523 7 576 c 0,7,8
 7 630 7 630 30 672 c 128,-1,9
 53 714 53 714 95 737 c 128,-1,10
 137 760 137 760 190 760 c 256,11,12
 243 760 243 760 285 736.5 c 128,-1,13
 327 713 327 713 350 671 c 128,-1,14
 373 629 373 629 373 576 c 256,15,16
 373 523 373 523 350 481 c 128,-1,17
 327 439 327 439 285 416 c 128,-1,18
 243 393 243 393 190 393 c 256,19,4
 137 393 137 393 95 416 c 128,-1,5
241 512 m 128,-1,21
 261 537 261 537 261 576 c 0,22,23
 261 616 261 616 241.5 640.5 c 128,-1,24
 222 665 222 665 190 665 c 256,25,26
 158 665 158 665 138.5 640.5 c 128,-1,27
 119 616 119 616 119 576 c 256,28,29
 119 536 119 536 138.5 511.5 c 128,-1,30
 158 487 158 487 190 487 c 0,31,20
 221 487 221 487 241 512 c 128,-1,21
545 48 m 128,-1,33
 503 71 503 71 480 113 c 128,-1,34
 457 155 457 155 457 208 c 0,35,36
 457 262 457 262 480 304 c 128,-1,37
 503 346 503 346 545 369 c 128,-1,38
 587 392 587 392 640 392 c 256,39,40
 693 392 693 392 735 368.5 c 128,-1,41
 777 345 777 345 800 303 c 128,-1,42
 823 261 823 261 823 208 c 256,43,44
 823 155 823 155 800 113 c 128,-1,45
 777 71 777 71 735 48 c 128,-1,46
 693 25 693 25 640 25 c 256,47,32
 587 25 587 25 545 48 c 128,-1,33
691 144 m 128,-1,49
 711 169 711 169 711 208 c 0,50,51
 711 248 711 248 691.5 272.5 c 128,-1,52
 672 297 672 297 640 297 c 256,53,54
 608 297 608 297 588.5 272.5 c 128,-1,55
 569 248 569 248 569 208 c 256,56,57
 569 168 569 168 588.5 143.5 c 128,-1,58
 608 119 608 119 640 119 c 0,59,48
 671 119 671 119 691 144 c 128,-1,49
EndSplineSet
Validated: 1
Substitution2: "'tnum' Tabular Numbers in Latin lookup 22 subtable" percent.tf
Substitution2: "'aalt' Access All Alternates in Latin lookup 0 subtable" percent.tf
EndChar

StartChar: perthousand
Encoding: 8240 8240 382
Width: 1239
GlyphClass: 1
Flags: W
LayerCount: 2
Fore
SplineSet
616 745 m 1,0,-1
 731 745 l 1,1,-1
 201 40 l 1,2,-1
 86 40 l 1,3,-1
 616 745 l 1,0,-1
95 416 m 128,-1,5
 53 439 53 439 30 481 c 128,-1,6
 7 523 7 523 7 576 c 0,7,8
 7 630 7 630 30 672 c 128,-1,9
 53 714 53 714 95 737 c 128,-1,10
 137 760 137 760 190 760 c 256,11,12
 243 760 243 760 285 736.5 c 128,-1,13
 327 713 327 713 350 671 c 128,-1,14
 373 629 373 629 373 576 c 256,15,16
 373 523 373 523 350 481 c 128,-1,17
 327 439 327 439 285 416 c 128,-1,18
 243 393 243 393 190 393 c 256,19,4
 137 393 137 393 95 416 c 128,-1,5
241 512 m 128,-1,21
 261 537 261 537 261 576 c 0,22,23
 261 616 261 616 241.5 640.5 c 128,-1,24
 222 665 222 665 190 665 c 256,25,26
 158 665 158 665 138.5 640.5 c 128,-1,27
 119 616 119 616 119 576 c 256,28,29
 119 536 119 536 138.5 511.5 c 128,-1,30
 158 487 158 487 190 487 c 0,31,20
 221 487 221 487 241 512 c 128,-1,21
545 48 m 128,-1,33
 503 71 503 71 480 113 c 128,-1,34
 457 155 457 155 457 208 c 0,35,36
 457 262 457 262 480 304 c 128,-1,37
 503 346 503 346 545 369 c 128,-1,38
 587 392 587 392 640 392 c 256,39,40
 693 392 693 392 735 368.5 c 128,-1,41
 777 345 777 345 800 303 c 128,-1,42
 823 261 823 261 823 208 c 256,43,44
 823 155 823 155 800 113 c 128,-1,45
 777 71 777 71 735 48 c 128,-1,46
 693 25 693 25 640 25 c 256,47,32
 587 25 587 25 545 48 c 128,-1,33
691 144 m 128,-1,49
 711 169 711 169 711 208 c 0,50,51
 711 248 711 248 691.5 272.5 c 128,-1,52
 672 297 672 297 640 297 c 256,53,54
 608 297 608 297 588.5 272.5 c 128,-1,55
 569 248 569 248 569 208 c 256,56,57
 569 168 569 168 588.5 143.5 c 128,-1,58
 608 119 608 119 640 119 c 0,59,48
 671 119 671 119 691 144 c 128,-1,49
959 45.5 m 128,-1,61
 917 66 917 66 891.5 107.5 c 128,-1,62
 866 149 866 149 866 208 c 256,63,64
 866 267 866 267 891.5 308.5 c 128,-1,65
 917 350 917 350 959 371 c 128,-1,66
 1001 392 1001 392 1049 392 c 256,67,68
 1097 392 1097 392 1138.5 371 c 128,-1,69
 1180 350 1180 350 1206 308.5 c 128,-1,70
 1232 267 1232 267 1232 208 c 256,71,72
 1232 149 1232 149 1206.5 107.5 c 128,-1,73
 1181 66 1181 66 1139 45.5 c 128,-1,74
 1097 25 1097 25 1049 25 c 256,75,60
 1001 25 1001 25 959 45.5 c 128,-1,61
1101.5 145 m 128,-1,77
 1120 171 1120 171 1120 208 c 256,78,79
 1120 245 1120 245 1101.5 271 c 128,-1,80
 1083 297 1083 297 1049 297 c 0,81,82
 1014 297 1014 297 996 271 c 128,-1,83
 978 245 978 245 978 208 c 256,84,85
 978 171 978 171 996 145 c 128,-1,86
 1014 119 1014 119 1049 119 c 0,87,76
 1083 119 1083 119 1101.5 145 c 128,-1,77
EndSplineSet
Validated: 1
Substitution2: "'tnum' Tabular Numbers in Latin lookup 22 subtable" perthousand.tf
Substitution2: "'aalt' Access All Alternates in Latin lookup 0 subtable" perthousand.tf
EndChar

StartChar: numbersign
Encoding: 35 35 383
Width: 700
GlyphClass: 1
Flags: W
LayerCount: 2
Fore
SplineSet
466 745 m 1,0,-1
 598 745 l 1,1,-1
 483 40 l 1,2,-1
 351 40 l 1,3,-1
 466 745 l 1,0,-1
33 305 m 1,4,-1
 637 305 l 1,5,-1
 620 195 l 1,6,-1
 16 195 l 1,7,-1
 33 305 l 1,4,-1
217 745 m 1,8,-1
 349 745 l 1,9,-1
 234 40 l 1,10,-1
 102 40 l 1,11,-1
 217 745 l 1,8,-1
80 590 m 1,12,-1
 684 590 l 1,13,-1
 667 480 l 1,14,-1
 63 480 l 1,15,-1
 80 590 l 1,12,-1
EndSplineSet
Validated: 5
EndChar

StartChar: uni2116
Encoding: 8470 8470 384
Width: 1198
GlyphClass: 2
Flags: W
AnchorPoint: "Anchor-1" 437 705 basechar 0
AnchorPoint: "Anchor-0" 437 0 basechar 0
LayerCount: 2
Fore
SplineSet
87 745 m 1,0,-1
 298 745 l 1,1,-1
 454 466 l 2,2,3
 475 429 475 429 490 397 c 0,4,5
 509 359 509 359 522.5 323.5 c 128,-1,6
 536 288 536 288 548 246 c 1,7,-1
 558 246 l 1,8,9
 553 358 553 358 548 470 c 1,10,-1
 548 745 l 1,11,-1
 728 745 l 1,12,-1
 728 40 l 1,13,-1
 517 40 l 1,14,-1
 361 319 l 2,15,16
 348 343 348 343 336.5 365 c 128,-1,17
 325 387 325 387 315 408 c 0,18,19
 300 441 300 441 288.5 472.5 c 128,-1,20
 277 504 277 504 267 539 c 1,21,-1
 257 539 l 1,22,23
 260 483 260 483 262 427 c 0,24,25
 266 353 266 353 267 315 c 2,26,-1
 267 40 l 1,27,-1
 87 40 l 1,28,-1
 87 745 l 1,0,-1
865.5 410.5 m 128,-1,30
 823 434 823 434 800 475.5 c 128,-1,31
 777 517 777 517 777 570 c 256,32,33
 777 623 777 623 800 664 c 128,-1,34
 823 705 823 705 865.5 728.5 c 128,-1,35
 908 752 908 752 964 752 c 256,36,37
 1020 752 1020 752 1062.5 728.5 c 128,-1,38
 1105 705 1105 705 1128 664 c 128,-1,39
 1151 623 1151 623 1151 570 c 256,40,41
 1151 517 1151 517 1128 475.5 c 128,-1,42
 1105 434 1105 434 1062.5 410.5 c 128,-1,43
 1020 387 1020 387 964 387 c 256,44,29
 908 387 908 387 865.5 410.5 c 128,-1,30
1019.5 500 m 128,-1,46
 1041 525 1041 525 1041 570 c 256,47,48
 1041 615 1041 615 1019.5 639.5 c 128,-1,49
 998 664 998 664 964 664 c 256,50,51
 930 664 930 664 908.5 639 c 128,-1,52
 887 614 887 614 887 570 c 0,53,54
 887 525 887 525 908.5 500 c 128,-1,55
 930 475 930 475 964 475 c 256,56,45
 998 475 998 475 1019.5 500 c 128,-1,46
778 360 m 1,57,-1
 1147 360 l 1,58,-1
 1147 249 l 1,59,-1
 778 249 l 1,60,-1
 778 360 l 1,57,-1
EndSplineSet
Validated: 1
Ligature2: "'ordn' Ordinals in Latin lookup 20 subtable" N o period
EndChar

StartChar: plus
Encoding: 43 43 385
Width: 574
GlyphClass: 1
Flags: W
LayerCount: 2
Fore
SplineSet
29 470 m 1,0,-1
 545 470 l 1,1,-1
 545 316 l 1,2,-1
 29 316 l 1,3,-1
 29 470 l 1,0,-1
197 650 m 1,4,-1
 377 650 l 1,5,-1
 377 136 l 1,6,-1
 197 136 l 1,7,-1
 197 650 l 1,4,-1
EndSplineSet
Validated: 5
Substitution2: "'sups' Superscript in Latin lookup 13 subtable" uni207A
Substitution2: "'sinf' Scientific Inferiors in Latin lookup 12 subtable" uni208A
Substitution2: "'subs' Subscript in Latin lookup 11 subtable" uni208A
AlternateSubs2: "'aalt' Access All Alternates in Latin lookup 1 subtable" uni208A uni207A
EndChar

StartChar: minus
Encoding: 8722 8722 386
Width: 574
GlyphClass: 1
Flags: W
LayerCount: 2
Fore
SplineSet
29 470 m 1,0,-1
 545 470 l 1,1,-1
 545 316 l 1,2,-1
 29 316 l 1,3,-1
 29 470 l 1,0,-1
EndSplineSet
Validated: 1
Substitution2: "'sups' Superscript in Latin lookup 13 subtable" uni207B
Substitution2: "'sinf' Scientific Inferiors in Latin lookup 12 subtable" uni208B
Substitution2: "'subs' Subscript in Latin lookup 11 subtable" uni208B
AlternateSubs2: "'aalt' Access All Alternates in Latin lookup 1 subtable" uni208B uni207B
EndChar

StartChar: plusminus
Encoding: 177 177 387
Width: 574
GlyphClass: 1
Flags: W
LayerCount: 2
Fore
SplineSet
29 567 m 1,0,-1
 545 567 l 1,1,-1
 545 413 l 1,2,-1
 29 413 l 1,3,-1
 29 567 l 1,0,-1
197 706 m 1,4,-1
 377 706 l 1,5,-1
 377 274 l 1,6,-1
 197 274 l 1,7,-1
 197 706 l 1,4,-1
29 232 m 1,8,-1
 545 232 l 1,9,-1
 545 78 l 1,10,-1
 29 78 l 1,11,-1
 29 232 l 1,8,-1
EndSplineSet
Validated: 5
EndChar

StartChar: multiply
Encoding: 215 215 388
Width: 574
GlyphClass: 1
Flags: W
LayerCount: 2
Fore
SplineSet
50 265 m 1,0,-1
 415 630 l 1,1,-1
 524 521 l 1,2,-1
 159 156 l 1,3,-1
 50 265 l 1,0,-1
50 521 m 1,4,-1
 159 630 l 1,5,-1
 524 265 l 1,6,-1
 415 156 l 1,7,-1
 50 521 l 1,4,-1
EndSplineSet
Validated: 5
EndChar

StartChar: divide
Encoding: 247 247 389
Width: 574
GlyphClass: 1
Flags: W
LayerCount: 2
Fore
SplineSet
29 474 m 1,0,-1
 545 474 l 1,1,-1
 545 320 l 1,2,-1
 29 320 l 1,3,-1
 29 474 l 1,0,-1
211.5 107.5 m 128,-1,5
 182 137 182 137 182 183 c 256,6,7
 182 229 182 229 211.5 258.5 c 128,-1,8
 241 288 241 288 287 288 c 256,9,10
 333 288 333 288 362.5 258.5 c 128,-1,11
 392 229 392 229 392 183 c 256,12,13
 392 137 392 137 362.5 107.5 c 128,-1,14
 333 78 333 78 287 78 c 256,15,4
 241 78 241 78 211.5 107.5 c 128,-1,5
211.5 526.5 m 128,-1,17
 182 556 182 556 182 602 c 256,18,19
 182 648 182 648 211.5 677.5 c 128,-1,20
 241 707 241 707 287 707 c 256,21,22
 333 707 333 707 362.5 677.5 c 128,-1,23
 392 648 392 648 392 602 c 256,24,25
 392 556 392 556 362.5 526.5 c 128,-1,26
 333 497 333 497 287 497 c 256,27,16
 241 497 241 497 211.5 526.5 c 128,-1,17
EndSplineSet
Validated: 1
Substitution2: "'ss06' Style Set 6 in Latin lookup 30 subtable" divide.ss06
Substitution2: "'aalt' Access All Alternates in Latin lookup 0 subtable" divide.ss06
EndChar

StartChar: less
Encoding: 60 60 391
Width: 574
GlyphClass: 1
Flags: W
LayerCount: 2
Fore
SplineSet
29 304 m 1,0,-1
 29 482 l 1,1,-1
 545 639 l 1,2,-1
 545 450 l 1,3,-1
 101 372 l 1,4,-1
 101 414 l 1,5,-1
 545 337 l 1,6,-1
 545 147 l 1,7,-1
 29 304 l 1,0,-1
EndSplineSet
Validated: 5
EndChar

StartChar: degree
Encoding: 176 176 393
Width: 393
GlyphClass: 1
Flags: W
LayerCount: 2
Fore
SplineSet
97 399.5 m 128,-1,1
 53 424 53 424 28.5 467.5 c 128,-1,2
 4 511 4 511 4 567 c 256,3,4
 4 623 4 623 28.5 667 c 128,-1,5
 53 711 53 711 97 735.5 c 128,-1,6
 141 760 141 760 197 760 c 256,7,8
 253 760 253 760 296.5 735.5 c 128,-1,9
 340 711 340 711 364.5 667 c 128,-1,10
 389 623 389 623 389 567 c 0,11,12
 389 512 389 512 364.5 468 c 128,-1,13
 340 424 340 424 296.5 399.5 c 128,-1,14
 253 375 253 375 197 375 c 256,15,0
 141 375 141 375 97 399.5 c 128,-1,1
250 496 m 128,-1,17
 269 521 269 521 269 567 c 256,18,19
 269 613 269 613 250.5 638.5 c 128,-1,20
 232 664 232 664 197 664 c 256,21,22
 162 664 162 664 143 639 c 128,-1,23
 124 614 124 614 124 567 c 0,24,25
 124 521 124 521 143 496 c 128,-1,26
 162 471 162 471 197 471 c 0,27,16
 231 471 231 471 250 496 c 128,-1,17
EndSplineSet
Validated: 1
EndChar

StartChar: approxequal
Encoding: 8776 8776 394
Width: 574
GlyphClass: 1
Flags: W
LayerCount: 2
Fore
SplineSet
339.5 421 m 128,-1,1
 315 427 315 427 292 438 c 2,2,-1
 264 451 l 2,3,4
 253 456 253 456 241.5 460 c 128,-1,5
 230 464 230 464 220 464 c 0,6,7
 202 464 202 464 193 450 c 128,-1,8
 184 436 184 436 184 415 c 1,9,-1
 29 415 l 1,10,11
 29 507 29 507 68 558.5 c 128,-1,12
 107 610 107 610 184 610 c 0,13,14
 210 610 210 610 234.5 604 c 128,-1,15
 259 598 259 598 282 587 c 2,16,-1
 310 574 l 2,17,18
 338 561 338 561 354 561 c 0,19,20
 372 561 372 561 381 575 c 128,-1,21
 390 589 390 589 390 610 c 1,22,-1
 545 610 l 1,23,24
 545 518 545 518 506 466.5 c 128,-1,25
 467 415 467 415 390 415 c 0,26,0
 364 415 364 415 339.5 421 c 128,-1,1
339.5 181 m 128,-1,28
 315 187 315 187 292 198 c 2,29,-1
 264 211 l 2,30,31
 236 224 236 224 220 224 c 0,32,33
 202 224 202 224 193 210 c 128,-1,34
 184 196 184 196 184 175 c 1,35,-1
 29 175 l 1,36,37
 29 267 29 267 68 318.5 c 128,-1,38
 107 370 107 370 184 370 c 0,39,40
 210 370 210 370 234.5 364 c 128,-1,41
 259 358 259 358 282 347 c 2,42,-1
 310 334 l 2,43,44
 321 329 321 329 332.5 325 c 128,-1,45
 344 321 344 321 354 321 c 0,46,47
 372 321 372 321 381 335 c 128,-1,48
 390 349 390 349 390 370 c 1,49,-1
 545 370 l 1,50,51
 545 278 545 278 506 226.5 c 128,-1,52
 467 175 467 175 390 175 c 0,53,27
 364 175 364 175 339.5 181 c 128,-1,28
EndSplineSet
Validated: 1
EndChar

StartChar: greaterequal
Encoding: 8805 8805 395
Width: 574
GlyphClass: 1
Flags: W
LayerCount: 2
Fore
SplineSet
29 429 m 1,0,-1
 473 506 l 1,1,-1
 473 464 l 1,2,-1
 29 542 l 1,3,-1
 29 731 l 1,4,-1
 545 574 l 1,5,-1
 545 396 l 1,6,-1
 29 239 l 1,7,-1
 29 429 l 1,0,-1
29 54 m 1,8,-1
 29 208 l 1,9,-1
 545 208 l 1,10,-1
 545 54 l 1,11,-1
 29 54 l 1,8,-1
EndSplineSet
Validated: 5
EndChar

StartChar: logicalnot
Encoding: 172 172 397
Width: 574
GlyphClass: 1
Flags: W
LayerCount: 2
Fore
SplineSet
366 404 m 1,0,-1
 29 404 l 1,1,-1
 29 558 l 1,2,-1
 545 558 l 1,3,-1
 545 228 l 1,4,-1
 366 228 l 1,5,-1
 366 404 l 1,0,-1
EndSplineSet
Validated: 1
EndChar

StartChar: notequal
Encoding: 8800 8800 398
Width: 574
GlyphClass: 1
Flags: W
LayerCount: 2
Fore
SplineSet
29 591 m 1,0,-1
 545 591 l 1,1,-1
 545 437 l 1,2,-1
 29 437 l 1,3,-1
 29 591 l 1,0,-1
29 352 m 1,4,-1
 545 352 l 1,5,-1
 545 198 l 1,6,-1
 29 198 l 1,7,-1
 29 352 l 1,4,-1
388 675 m 1,8,-1
 511 675 l 1,9,-1
 186 110 l 1,10,-1
 63 110 l 1,11,-1
 388 675 l 1,8,-1
EndSplineSet
Validated: 5
EndChar

StartChar: zero.tf
Encoding: 65542 -1 399
Width: 574
GlyphClass: 1
Flags: W
LayerCount: 2
Fore
SplineSet
145.5 62.5 m 128,-1,1
 83 100 83 100 46 182 c 128,-1,2
 9 264 9 264 9 392 c 256,3,4
 9 520 9 520 46 602.5 c 128,-1,5
 83 685 83 685 145.5 722.5 c 128,-1,6
 208 760 208 760 287 760 c 256,7,8
 366 760 366 760 428.5 722.5 c 128,-1,9
 491 685 491 685 528 602.5 c 128,-1,10
 565 520 565 520 565 392 c 256,11,12
 565 264 565 264 528 182 c 128,-1,13
 491 100 491 100 428.5 62.5 c 128,-1,14
 366 25 366 25 287 25 c 256,15,0
 208 25 208 25 145.5 62.5 c 128,-1,1
351.5 220.5 m 128,-1,17
 370 276 370 276 370 392 c 256,18,19
 370 508 370 508 351.5 564 c 128,-1,20
 333 620 333 620 287 620 c 256,21,22
 241 620 241 620 222.5 564 c 128,-1,23
 204 508 204 508 204 392 c 256,24,25
 204 276 204 276 222.5 220.5 c 128,-1,26
 241 165 241 165 287 165 c 256,27,16
 333 165 333 165 351.5 220.5 c 128,-1,17
EndSplineSet
Validated: 1
Substitution2: "'ss07' Style Set 7 in Latin lookup 31 subtable" zero.tf.zero
Substitution2: "'zero' Slashed Zero in Latin lookup 25 subtable" zero.tf.zero
Substitution2: "'pnum' Proportional Numbers in Latin lookup 21 subtable" zero
AlternateSubs2: "'aalt' Access All Alternates in Latin lookup 1 subtable" zero zero.tf.zero
EndChar

StartChar: one.tf
Encoding: 65543 -1 400
Width: 574
GlyphClass: 1
Flags: W
LayerCount: 2
Fore
SplineSet
202 470 m 1,0,-1
 28 470 l 1,1,-1
 28 588 l 1,2,3
 101 592 101 592 144.5 607 c 128,-1,4
 188 622 188 622 211.5 654 c 128,-1,5
 235 686 235 686 244 745 c 1,6,-1
 392 745 l 1,7,-1
 392 60 l 1,8,-1
 202 60 l 1,9,-1
 202 470 l 1,0,-1
28 185 m 1,10,-1
 546 185 l 1,11,-1
 546 40 l 1,12,-1
 28 40 l 1,13,-1
 28 185 l 1,10,-1
EndSplineSet
Validated: 5
Substitution2: "'pnum' Proportional Numbers in Latin lookup 21 subtable" one
Substitution2: "'aalt' Access All Alternates in Latin lookup 0 subtable" one
EndChar

StartChar: two.tf
Encoding: 65544 -1 401
Width: 574
GlyphClass: 1
Flags: W
LayerCount: 2
Fore
SplineSet
22 105 m 0,1,2
 22 196 22 196 58.5 263.5 c 128,-1,3
 95 331 95 331 194 383 c 2,4,-1
 296 437 l 2,5,6
 336 459 336 459 356 484.5 c 128,-1,7
 376 510 376 510 376 546 c 0,8,9
 376 584 376 584 356.5 604.5 c 128,-1,10
 337 625 337 625 300 625 c 256,11,12
 263 625 263 625 240 602.5 c 128,-1,13
 217 580 217 580 212 534 c 1,14,-1
 17 534 l 1,15,16
 36 646 36 646 107 703 c 128,-1,17
 178 760 178 760 306 760 c 0,18,19
 423 760 423 760 490.5 705.5 c 128,-1,20
 558 651 558 651 558 547 c 0,21,22
 558 476 558 476 521 420.5 c 128,-1,23
 484 365 484 365 409 322 c 2,24,-1
 283 251 l 2,25,26
 254 235 254 235 241 217.5 c 128,-1,27
 228 200 228 200 226 179 c 1,28,-1
 558 179 l 1,29,-1
 558 40 l 1,30,-1
 27 40 l 1,31,0
 22 68 22 68 22 105 c 0,1,2
EndSplineSet
Validated: 1
Substitution2: "'pnum' Proportional Numbers in Latin lookup 21 subtable" two
Substitution2: "'aalt' Access All Alternates in Latin lookup 0 subtable" two
EndChar

StartChar: three.tf
Encoding: 65545 -1 402
Width: 574
GlyphClass: 1
Flags: W
LayerCount: 2
Fore
SplineSet
95 81.5 m 128,-1,1
 25 138 25 138 10 228 c 1,2,-1
 208 228 l 1,3,4
 214 196 214 196 234.5 177 c 128,-1,5
 255 158 255 158 291 158 c 0,6,7
 326 158 326 158 348 180 c 128,-1,8
 370 202 370 202 370 243 c 0,9,10
 370 286 370 286 348 311 c 128,-1,11
 326 336 326 336 276 336 c 2,12,-1
 212 336 l 1,13,-1
 212 469 l 1,14,-1
 271 469 l 2,15,16
 316 469 316 469 337.5 493 c 128,-1,17
 359 517 359 517 359 550 c 0,18,19
 359 587 359 587 339.5 607 c 128,-1,20
 320 627 320 627 288 627 c 0,21,22
 255 627 255 627 236.5 608.5 c 128,-1,23
 218 590 218 590 217 560 c 1,24,-1
 19 560 l 1,25,26
 25 622 25 622 59 667 c 128,-1,27
 93 712 93 712 152 736 c 128,-1,28
 211 760 211 760 291 760 c 0,29,30
 365 760 365 760 425 737 c 128,-1,31
 485 714 485 714 519.5 671 c 128,-1,32
 554 628 554 628 554 572 c 0,33,34
 554 511 554 511 516.5 469 c 128,-1,35
 479 427 479 427 409 413 c 1,36,-1
 409 403 l 1,37,38
 485 393 485 393 525 352.5 c 128,-1,39
 565 312 565 312 565 240 c 0,40,41
 565 172 565 172 528.5 123.5 c 128,-1,42
 492 75 492 75 429.5 50 c 128,-1,43
 367 25 367 25 289 25 c 0,44,0
 165 25 165 25 95 81.5 c 128,-1,1
EndSplineSet
Validated: 1
Substitution2: "'pnum' Proportional Numbers in Latin lookup 21 subtable" three
Substitution2: "'aalt' Access All Alternates in Latin lookup 0 subtable" three
EndChar

StartChar: four.tf
Encoding: 65546 -1 403
Width: 574
GlyphClass: 1
Flags: W
LayerCount: 2
Fore
SplineSet
300 157 m 1,0,-1
 14 157 l 1,1,-1
 14 310 l 1,2,-1
 251 745 l 1,3,-1
 490 745 l 1,4,-1
 490 300 l 1,5,-1
 561 300 l 1,6,-1
 561 157 l 1,7,-1
 490 157 l 1,8,-1
 490 40 l 1,9,-1
 300 40 l 1,10,-1
 300 157 l 1,0,-1
300 300 m 1,11,-1
 300 492 l 1,12,-1
 300 580 l 1,13,-1
 290 580 l 1,14,15
 280 557 280 557 275 546 c 128,-1,16
 270 535 270 535 260 513 c 0,17,18
 253 499 253 499 245.5 485 c 128,-1,19
 238 471 238 471 231 457 c 2,20,-1
 152 310 l 1,21,-1
 152 300 l 1,22,-1
 300 300 l 1,11,-1
EndSplineSet
Validated: 1
Substitution2: "'pnum' Proportional Numbers in Latin lookup 21 subtable" four
Substitution2: "'aalt' Access All Alternates in Latin lookup 0 subtable" four
EndChar

StartChar: five.tf
Encoding: 65547 -1 404
Width: 574
GlyphClass: 1
Flags: W
LayerCount: 2
Fore
SplineSet
152.5 50 m 128,-1,1
 95 75 95 75 60 118 c 128,-1,2
 25 161 25 161 20 212 c 1,3,-1
 215 212 l 1,4,5
 221 183 221 183 238.5 170.5 c 128,-1,6
 256 158 256 158 282 158 c 0,7,8
 319 158 319 158 339.5 185.5 c 128,-1,9
 360 213 360 213 360 279 c 0,10,11
 360 335 360 335 342.5 364 c 128,-1,12
 325 393 325 393 288 393 c 0,13,14
 269 393 269 393 253 382 c 128,-1,15
 237 371 237 371 229 353 c 1,16,-1
 38 353 l 1,17,-1
 102 745 l 1,18,-1
 535 745 l 1,19,-1
 535 600 l 1,20,-1
 234 600 l 1,21,-1
 208 443 l 1,22,-1
 218 443 l 1,23,24
 239 481 239 481 274.5 496.5 c 128,-1,25
 310 512 310 512 359 512 c 0,26,27
 418 512 418 512 462.5 484.5 c 128,-1,28
 507 457 507 457 531 405 c 128,-1,29
 555 353 555 353 555 281 c 0,30,31
 555 197 555 197 519.5 139.5 c 128,-1,32
 484 82 484 82 422 53.5 c 128,-1,33
 360 25 360 25 280 25 c 0,34,0
 210 25 210 25 152.5 50 c 128,-1,1
EndSplineSet
Validated: 1
Substitution2: "'pnum' Proportional Numbers in Latin lookup 21 subtable" five
Substitution2: "'aalt' Access All Alternates in Latin lookup 0 subtable" five
EndChar

StartChar: six.tf
Encoding: 65548 -1 405
Width: 574
GlyphClass: 1
Flags: W
LayerCount: 2
Fore
SplineSet
143 72 m 128,-1,1
 78 119 78 119 44 202 c 128,-1,2
 10 285 10 285 10 393 c 0,3,4
 10 512 10 512 46 594.5 c 128,-1,5
 82 677 82 677 148.5 718.5 c 128,-1,6
 215 760 215 760 307 760 c 0,7,8
 377 760 377 760 429 734.5 c 128,-1,9
 481 709 481 709 512 670.5 c 128,-1,10
 543 632 543 632 554 592 c 1,11,-1
 357 592 l 1,12,13
 348 610 348 610 334.5 618.5 c 128,-1,14
 321 627 321 627 303 627 c 0,15,16
 256 627 256 627 231.5 581 c 128,-1,17
 207 535 207 535 207 433 c 1,18,-1
 217 433 l 1,19,20
 236 470 236 470 277.5 491 c 128,-1,21
 319 512 319 512 367 512 c 0,22,23
 424 512 424 512 469 483.5 c 128,-1,24
 514 455 514 455 539.5 403.5 c 128,-1,25
 565 352 565 352 565 286 c 0,26,27
 565 210 565 210 532.5 151 c 128,-1,28
 500 92 500 92 439.5 58.5 c 128,-1,29
 379 25 379 25 298 25 c 0,30,0
 208 25 208 25 143 72 c 128,-1,1
348.5 182 m 128,-1,32
 370 211 370 211 370 269 c 256,33,34
 370 327 370 327 348.5 356 c 128,-1,35
 327 385 327 385 295 385 c 0,36,37
 262 385 262 385 241 356 c 128,-1,38
 220 327 220 327 220 269 c 256,39,40
 220 211 220 211 241 182 c 128,-1,41
 262 153 262 153 295 153 c 0,42,31
 327 153 327 153 348.5 182 c 128,-1,32
EndSplineSet
Validated: 1
Substitution2: "'pnum' Proportional Numbers in Latin lookup 21 subtable" six
Substitution2: "'aalt' Access All Alternates in Latin lookup 0 subtable" six
EndChar

StartChar: eight.tf
Encoding: 65550 -1 407
Width: 574
GlyphClass: 1
Flags: W
LayerCount: 2
Fore
SplineSet
127.5 50.5 m 128,-1,1
 63 76 63 76 31 122 c 128,-1,2
 -1 168 -1 168 -1 228 c 0,3,4
 -1 294 -1 294 43 340.5 c 128,-1,5
 87 387 87 387 152 396 c 1,6,-1
 152 406 l 1,7,8
 87 421 87 421 51 463 c 128,-1,9
 15 505 15 505 15 565 c 0,10,11
 15 623 15 623 47 667 c 128,-1,12
 79 711 79 711 140.5 735.5 c 128,-1,13
 202 760 202 760 287 760 c 256,14,15
 372 760 372 760 433.5 735.5 c 128,-1,16
 495 711 495 711 527 667 c 128,-1,17
 559 623 559 623 559 565 c 0,18,19
 559 505 559 505 519.5 459 c 128,-1,20
 480 413 480 413 422 406 c 1,21,-1
 422 396 l 1,22,23
 487 387 487 387 531 340.5 c 128,-1,24
 575 294 575 294 575 228 c 0,25,26
 575 168 575 168 543 122 c 128,-1,27
 511 76 511 76 446.5 50.5 c 128,-1,28
 382 25 382 25 287 25 c 256,29,0
 192 25 192 25 127.5 50.5 c 128,-1,1
355.5 174 m 128,-1,31
 379 201 379 201 379 245 c 0,32,33
 379 287 379 287 355 315.5 c 128,-1,34
 331 344 331 344 287 344 c 256,35,36
 243 344 243 344 219 315.5 c 128,-1,37
 195 287 195 287 195 245 c 0,38,39
 195 201 195 201 218.5 174 c 128,-1,40
 242 147 242 147 287 147 c 256,41,30
 332 147 332 147 355.5 174 c 128,-1,31
345 484 m 128,-1,43
 366 508 366 508 366 550 c 0,44,45
 366 591 366 591 345 614.5 c 128,-1,46
 324 638 324 638 287 638 c 256,47,48
 250 638 250 638 229 614.5 c 128,-1,49
 208 591 208 591 208 550 c 0,50,51
 208 508 208 508 229 484 c 128,-1,52
 250 460 250 460 287 460 c 256,53,42
 324 460 324 460 345 484 c 128,-1,43
EndSplineSet
Validated: 1
Substitution2: "'pnum' Proportional Numbers in Latin lookup 21 subtable" eight
Substitution2: "'aalt' Access All Alternates in Latin lookup 0 subtable" eight
EndChar

StartChar: zero.tf.zero
Encoding: 65552 -1 409
Width: 574
GlyphClass: 1
Flags: W
LayerCount: 2
Fore
SplineSet
145.5 62.5 m 128,-1,1
 83 100 83 100 46 182 c 128,-1,2
 9 264 9 264 9 392 c 256,3,4
 9 520 9 520 46 602.5 c 128,-1,5
 83 685 83 685 145.5 722.5 c 128,-1,6
 208 760 208 760 287 760 c 256,7,8
 366 760 366 760 428.5 722.5 c 128,-1,9
 491 685 491 685 528 602.5 c 128,-1,10
 565 520 565 520 565 392 c 256,11,12
 565 264 565 264 528 182 c 128,-1,13
 491 100 491 100 428.5 62.5 c 128,-1,14
 366 25 366 25 287 25 c 256,15,0
 208 25 208 25 145.5 62.5 c 128,-1,1
351.5 220.5 m 128,-1,17
 370 276 370 276 370 392 c 256,18,19
 370 508 370 508 351.5 564 c 128,-1,20
 333 620 333 620 287 620 c 256,21,22
 241 620 241 620 222.5 564 c 128,-1,23
 204 508 204 508 204 392 c 256,24,25
 204 276 204 276 222.5 220.5 c 128,-1,26
 241 165 241 165 287 165 c 256,27,16
 333 165 333 165 351.5 220.5 c 128,-1,17
98 229 m 1,28,-1
 430 653 l 1,29,-1
 475 556 l 1,30,-1
 144 133 l 1,31,-1
 98 229 l 1,28,-1
EndSplineSet
Validated: 5
EndChar

StartChar: dollar.tf
Encoding: 65553 -1 410
Width: 574
GlyphClass: 1
Flags: W
LayerCount: 2
Fore
SplineSet
146 52 m 128,-1,1
 87 79 87 79 53.5 126 c 128,-1,2
 20 173 20 173 16 230 c 1,3,-1
 201 230 l 1,4,5
 203 207 203 207 215 188.5 c 128,-1,6
 227 170 227 170 247.5 159 c 128,-1,7
 268 148 268 148 294 148 c 0,8,9
 339 148 339 148 366 169.5 c 128,-1,10
 393 191 393 191 393 228 c 256,11,12
 393 265 393 265 371 287 c 128,-1,13
 349 309 349 309 306 321 c 2,14,-1
 196 352 l 2,15,16
 115 375 115 375 71.5 423.5 c 128,-1,17
 28 472 28 472 28 545 c 0,18,19
 28 605 28 605 62 654.5 c 128,-1,20
 96 704 96 704 155.5 732 c 128,-1,21
 215 760 215 760 289 760 c 0,22,23
 366 760 366 760 426 734 c 128,-1,24
 486 708 486 708 520.5 662 c 128,-1,25
 555 616 555 616 559 557 c 1,26,-1
 384 557 l 1,27,28
 381 592 381 592 356.5 614.5 c 128,-1,29
 332 637 332 637 292 637 c 0,30,31
 249 637 249 637 221.5 618.5 c 128,-1,32
 194 600 194 600 194 566 c 0,33,34
 194 533 194 533 214 512.5 c 128,-1,35
 234 492 234 492 275 479 c 2,36,-1
 385 446 l 2,37,38
 468 419 468 419 513 373.5 c 128,-1,39
 558 328 558 328 558 247 c 0,40,41
 558 184 558 184 523 133 c 128,-1,42
 488 82 488 82 425 53.5 c 128,-1,43
 362 25 362 25 282 25 c 0,44,0
 205 25 205 25 146 52 c 128,-1,1
240 101 m 1,45,-1
 350 101 l 1,46,-1
 350 -45 l 1,47,-1
 240 -45 l 1,48,-1
 240 101 l 1,45,-1
240 830 m 1,49,-1
 350 830 l 1,50,-1
 350 685 l 1,51,-1
 240 685 l 1,52,-1
 240 830 l 1,49,-1
EndSplineSet
Validated: 5
Substitution2: "'pnum' Proportional Numbers in Latin lookup 21 subtable" dollar
Substitution2: "'aalt' Access All Alternates in Latin lookup 0 subtable" dollar
EndChar

StartChar: sterling.tf
Encoding: 65555 -1 412
Width: 574
GlyphClass: 1
Flags: W
LayerCount: 2
Fore
SplineSet
90.5 245 m 128,-1,1
 109 279 109 279 109 311 c 0,2,3
 109 329 109 329 103.5 347 c 128,-1,4
 98 365 98 365 87 392 c 0,5,6
 71 429 71 429 62.5 460.5 c 128,-1,7
 54 492 54 492 54 530 c 0,8,9
 54 599 54 599 83.5 651 c 128,-1,10
 113 703 113 703 169.5 731.5 c 128,-1,11
 226 760 226 760 305 760 c 0,12,13
 386 760 386 760 445.5 734 c 128,-1,14
 505 708 505 708 537.5 662 c 128,-1,15
 570 616 570 616 573 557 c 1,16,-1
 378 557 l 1,17,18
 375 584 375 584 356.5 602 c 128,-1,19
 338 620 338 620 305 620 c 0,20,21
 271 620 271 620 254 598.5 c 128,-1,22
 237 577 237 577 237 534 c 0,23,24
 237 505 237 505 244 481 c 128,-1,25
 251 457 251 457 264 427 c 256,26,27
 277 397 277 397 283.5 373.5 c 128,-1,28
 290 350 290 350 290 322 c 0,29,30
 290 278 290 278 271.5 244.5 c 128,-1,31
 253 211 253 211 220 189 c 1,32,-1
 220 180 l 1,33,-1
 563 180 l 1,34,-1
 563 40 l 1,35,-1
 39 40 l 1,36,-1
 39 180 l 1,37,0
 72 211 72 211 90.5 245 c 128,-1,1
2 447 m 1,38,-1
 409 447 l 1,39,-1
 409 338 l 1,40,-1
 2 338 l 1,41,-1
 2 447 l 1,38,-1
EndSplineSet
Validated: 5
Substitution2: "'pnum' Proportional Numbers in Latin lookup 21 subtable" sterling
Substitution2: "'aalt' Access All Alternates in Latin lookup 0 subtable" sterling
EndChar

StartChar: yen.tf
Encoding: 65556 -1 413
Width: 574
GlyphClass: 1
Flags: W
LayerCount: 2
Fore
SplineSet
195 311 m 1,0,-1
 -8 745 l 1,1,-1
 183 745 l 1,2,-1
 248 587 l 2,3,4
 252 577 252 577 256 568 c 128,-1,5
 260 559 260 559 263 549 c 0,6,7
 274 519 274 519 284 487 c 1,8,-1
 294 487 l 1,9,10
 304 523 304 523 329 587 c 2,11,-1
 392 745 l 1,12,-1
 583 745 l 1,13,-1
 380 311 l 1,14,-1
 380 40 l 1,15,-1
 195 40 l 1,16,-1
 195 311 l 1,0,-1
60 237 m 1,17,-1
 514 237 l 1,18,-1
 514 167 l 1,19,-1
 60 167 l 1,20,-1
 60 237 l 1,17,-1
60 357 m 1,21,-1
 514 357 l 1,22,-1
 514 287 l 1,23,-1
 60 287 l 1,24,-1
 60 357 l 1,21,-1
EndSplineSet
Validated: 5
Substitution2: "'pnum' Proportional Numbers in Latin lookup 21 subtable" yen
Substitution2: "'aalt' Access All Alternates in Latin lookup 0 subtable" yen
EndChar

StartChar: Euro.tf
Encoding: 65557 -1 414
Width: 574
GlyphClass: 1
Flags: W
LayerCount: 2
Fore
SplineSet
168 69 m 128,-1,1
 106 113 106 113 73 195.5 c 128,-1,2
 40 278 40 278 40 392 c 256,3,4
 40 506 40 506 73 589 c 128,-1,5
 106 672 106 672 168 716 c 128,-1,6
 230 760 230 760 315 760 c 0,7,8
 423 760 423 760 491.5 705.5 c 128,-1,9
 560 651 560 651 571 557 c 1,10,-1
 376 557 l 1,11,12
 372 587 372 587 357.5 603.5 c 128,-1,13
 343 620 343 620 319 620 c 0,14,15
 271 620 271 620 247.5 563.5 c 128,-1,16
 224 507 224 507 224 392 c 0,17,18
 224 278 224 278 247.5 221.5 c 128,-1,19
 271 165 271 165 319 165 c 0,20,21
 343 165 343 165 357.5 181.5 c 128,-1,22
 372 198 372 198 376 228 c 1,23,-1
 571 228 l 1,24,25
 560 134 560 134 491.5 79.5 c 128,-1,26
 423 25 423 25 315 25 c 0,27,0
 230 25 230 25 168 69 c 128,-1,1
3 368 m 1,28,-1
 333 368 l 1,29,-1
 333 298 l 1,30,-1
 3 298 l 1,31,-1
 3 368 l 1,28,-1
3 488 m 1,32,-1
 333 488 l 1,33,-1
 333 418 l 1,34,-1
 3 418 l 1,35,-1
 3 488 l 1,32,-1
EndSplineSet
Validated: 5
Substitution2: "'pnum' Proportional Numbers in Latin lookup 21 subtable" Euro
Substitution2: "'aalt' Access All Alternates in Latin lookup 0 subtable" Euro
EndChar

StartChar: percent.tf
Encoding: 65558 -1 415
Width: 574
GlyphClass: 1
Flags: W
LayerCount: 2
Fore
SplineSet
54 470 m 128,-1,1
 7 517 7 517 7 592 c 0,2,3
 7 666 7 666 54 713 c 128,-1,4
 101 760 101 760 175 760 c 256,5,6
 249 760 249 760 296 713 c 128,-1,7
 343 666 343 666 343 592 c 0,8,9
 343 517 343 517 296 470 c 128,-1,10
 249 423 249 423 175 423 c 256,11,0
 101 423 101 423 54 470 c 128,-1,1
215.5 538 m 128,-1,13
 231 559 231 559 231 592 c 0,14,15
 231 624 231 624 215.5 645 c 128,-1,16
 200 666 200 666 175 666 c 0,17,18
 149 666 149 666 134 646 c 128,-1,19
 119 626 119 626 119 592 c 256,20,21
 119 558 119 558 134 537.5 c 128,-1,22
 149 517 149 517 175 517 c 0,23,12
 200 517 200 517 215.5 538 c 128,-1,13
278 72 m 128,-1,25
 231 119 231 119 231 194 c 0,26,27
 231 268 231 268 278 315 c 128,-1,28
 325 362 325 362 399 362 c 0,29,30
 448 362 448 362 486 340.5 c 128,-1,31
 524 319 524 319 545.5 281 c 128,-1,32
 567 243 567 243 567 194 c 0,33,34
 567 119 567 119 520 72 c 128,-1,35
 473 25 473 25 399 25 c 256,36,24
 325 25 325 25 278 72 c 128,-1,25
439.5 140 m 128,-1,38
 455 161 455 161 455 194 c 0,39,40
 455 226 455 226 439.5 247 c 128,-1,41
 424 268 424 268 399 268 c 0,42,43
 373 268 373 268 358 248 c 128,-1,44
 343 228 343 228 343 194 c 256,45,46
 343 160 343 160 358 139.5 c 128,-1,47
 373 119 373 119 399 119 c 0,48,37
 424 119 424 119 439.5 140 c 128,-1,38
57 355 m 1,49,-1
 511 492 l 1,50,-1
 511 429 l 1,51,-1
 57 292 l 1,52,-1
 57 355 l 1,49,-1
EndSplineSet
Validated: 1
Substitution2: "'pnum' Proportional Numbers in Latin lookup 21 subtable" percent
Substitution2: "'aalt' Access All Alternates in Latin lookup 0 subtable" percent
EndChar

StartChar: perthousand.tf
Encoding: 65559 -1 416
Width: 574
GlyphClass: 1
Flags: W
LayerCount: 2
Fore
SplineSet
54 72 m 128,-1,1
 7 119 7 119 7 194 c 0,2,3
 7 268 7 268 54 315 c 128,-1,4
 101 362 101 362 175 362 c 0,5,6
 224 362 224 362 261.5 341 c 128,-1,7
 299 320 299 320 317 282 c 1,8,-1
 257 282 l 1,9,10
 275 320 275 320 312.5 341 c 128,-1,11
 350 362 350 362 399 362 c 256,12,13
 448 362 448 362 486 340.5 c 128,-1,14
 524 319 524 319 545.5 281 c 128,-1,15
 567 243 567 243 567 194 c 0,16,17
 567 119 567 119 520 72 c 128,-1,18
 473 25 473 25 399 25 c 0,19,20
 350 25 350 25 312.5 46 c 128,-1,21
 275 67 275 67 257 105 c 1,22,-1
 317 105 l 1,23,24
 299 67 299 67 261.5 46 c 128,-1,25
 224 25 224 25 175 25 c 0,26,0
 101 25 101 25 54 72 c 128,-1,1
215.5 140 m 128,-1,28
 231 161 231 161 231 194 c 0,29,30
 231 226 231 226 215.5 247 c 128,-1,31
 200 268 200 268 175 268 c 0,32,33
 149 268 149 268 134 248 c 128,-1,34
 119 228 119 228 119 194 c 256,35,36
 119 160 119 160 134 139.5 c 128,-1,37
 149 119 149 119 175 119 c 0,38,27
 200 119 200 119 215.5 140 c 128,-1,28
439.5 140 m 128,-1,40
 455 161 455 161 455 194 c 0,41,42
 455 226 455 226 439.5 247 c 128,-1,43
 424 268 424 268 399 268 c 0,44,45
 373 268 373 268 358 248 c 128,-1,46
 343 228 343 228 343 194 c 256,47,48
 343 160 343 160 358 139.5 c 128,-1,49
 373 119 373 119 399 119 c 0,50,39
 424 119 424 119 439.5 140 c 128,-1,40
57 395 m 1,51,-1
 511 452 l 1,52,-1
 511 419 l 1,53,-1
 57 362 l 1,54,-1
 57 395 l 1,51,-1
54 470 m 128,-1,56
 7 517 7 517 7 592 c 0,57,58
 7 666 7 666 54 713 c 128,-1,59
 101 760 101 760 175 760 c 256,60,61
 249 760 249 760 296 713 c 128,-1,62
 343 666 343 666 343 592 c 0,63,64
 343 517 343 517 296 470 c 128,-1,65
 249 423 249 423 175 423 c 256,66,55
 101 423 101 423 54 470 c 128,-1,56
215.5 538 m 128,-1,68
 231 559 231 559 231 592 c 0,69,70
 231 624 231 624 215.5 645 c 128,-1,71
 200 666 200 666 175 666 c 0,72,73
 149 666 149 666 134 646 c 128,-1,74
 119 626 119 626 119 592 c 256,75,76
 119 558 119 558 134 537.5 c 128,-1,77
 149 517 149 517 175 517 c 0,78,67
 200 517 200 517 215.5 538 c 128,-1,68
EndSplineSet
Validated: 9
Substitution2: "'pnum' Proportional Numbers in Latin lookup 21 subtable" perthousand
Substitution2: "'aalt' Access All Alternates in Latin lookup 0 subtable" perthousand
EndChar

StartChar: uni0308
Encoding: 776 776 417
Width: 0
GlyphClass: 4
Flags: W
AnchorPoint: "Anchor-8" 255 762 basemark 0
AnchorPoint: "Anchor-8" 255 515 mark 0
AnchorPoint: "Anchor-6" 255 515 mark 0
AnchorPoint: "Anchor-3" 255 515 mark 0
AnchorPoint: "Anchor-1" 255 515 mark 0
LayerCount: 2
Fore
SplineSet
318 656.5 m 128,-1,1
 294 682 294 682 294 718 c 0,2,3
 294 752 294 752 318 777 c 128,-1,4
 342 802 342 802 376 802 c 0,5,6
 411 802 411 802 435.5 777 c 128,-1,7
 460 752 460 752 460 718 c 0,8,9
 460 682 460 682 436 656.5 c 128,-1,10
 412 631 412 631 376 631 c 0,11,0
 342 631 342 631 318 656.5 c 128,-1,1
74.5 656.5 m 128,-1,13
 50 682 50 682 50 718 c 0,14,15
 50 752 50 752 74.5 777 c 128,-1,16
 99 802 99 802 132 802 c 0,17,18
 169 802 169 802 192.5 777.5 c 128,-1,19
 216 753 216 753 216 718 c 0,20,21
 216 681 216 681 192.5 656 c 128,-1,22
 169 631 169 631 132 631 c 0,23,12
 99 631 99 631 74.5 656.5 c 128,-1,13
EndSplineSet
Validated: 1
Substitution2: "Single Substitution lookup 33 subtable" uni0308.case
Substitution2: "'ss06' Style Set 6 in Latin lookup 30 subtable" uni0308.ss06
Substitution2: "'case' Case-Sensitive Forms in Latin lookup 23 subtable" uni0308.case
AlternateSubs2: "'aalt' Access All Alternates in Latin lookup 1 subtable" uni0308.case uni0308.ss06
EndChar

StartChar: uni0307
Encoding: 775 775 418
Width: 0
GlyphClass: 4
Flags: W
AnchorPoint: "Anchor-8" 145 773 basemark 0
AnchorPoint: "Anchor-8" 145 515 mark 0
AnchorPoint: "Anchor-6" 145 515 mark 0
AnchorPoint: "Anchor-3" 145 515 mark 0
AnchorPoint: "Anchor-1" 145 515 mark 0
LayerCount: 2
Fore
SplineSet
77.5 651.5 m 128,-1,1
 50 679 50 679 50 718 c 256,2,3
 50 757 50 757 77.5 785 c 128,-1,4
 105 813 105 813 144 813 c 0,5,6
 182 813 182 813 210.5 784.5 c 128,-1,7
 239 756 239 756 239 718 c 0,8,9
 239 679 239 679 211 651.5 c 128,-1,10
 183 624 183 624 144 624 c 256,11,0
 105 624 105 624 77.5 651.5 c 128,-1,1
EndSplineSet
Validated: 1
Substitution2: "Single Substitution lookup 33 subtable" uni0307.case
Substitution2: "'ss06' Style Set 6 in Latin lookup 30 subtable" uni0307.ss06
Substitution2: "'case' Case-Sensitive Forms in Latin lookup 23 subtable" uni0307.case
AlternateSubs2: "'aalt' Access All Alternates in Latin lookup 1 subtable" uni0307.case uni0307.ss06
EndChar

StartChar: gravecomb
Encoding: 768 768 419
Width: 0
GlyphClass: 4
Flags: W
AnchorPoint: "Anchor-8" 194 760 basemark 0
AnchorPoint: "Anchor-8" 256 515 mark 0
AnchorPoint: "Anchor-6" 256 515 mark 0
AnchorPoint: "Anchor-3" 256 515 mark 0
AnchorPoint: "Anchor-1" 256 515 mark 0
LayerCount: 2
Fore
SplineSet
50 800 m 1,0,-1
 248 800 l 1,1,-1
 337 635 l 1,2,-1
 175 635 l 1,3,-1
 50 800 l 1,0,-1
EndSplineSet
Validated: 1
Substitution2: "Single Substitution lookup 33 subtable" gravecomb.case
Substitution2: "'case' Case-Sensitive Forms in Latin lookup 23 subtable" gravecomb.case
Substitution2: "'aalt' Access All Alternates in Latin lookup 0 subtable" gravecomb.case
EndChar

StartChar: acutecomb
Encoding: 769 769 420
Width: 0
GlyphClass: 4
Flags: W
AnchorPoint: "Anchor-8" 194 760 basemark 0
AnchorPoint: "Anchor-8" 131 515 mark 0
AnchorPoint: "Anchor-6" 131 515 mark 0
AnchorPoint: "Anchor-3" 131 515 mark 0
AnchorPoint: "Anchor-1" 131 515 mark 0
LayerCount: 2
Fore
SplineSet
139 800 m 1,0,-1
 337 800 l 1,1,-1
 212 635 l 1,2,-1
 50 635 l 1,3,-1
 139 800 l 1,0,-1
EndSplineSet
Validated: 1
Substitution2: "Single Substitution lookup 33 subtable" acutecomb.case
Substitution2: "'case' Case-Sensitive Forms in Latin lookup 23 subtable" acutecomb.case
Substitution2: "'aalt' Access All Alternates in Latin lookup 0 subtable" acutecomb.case
EndChar

StartChar: uni030B
Encoding: 779 779 421
Width: 0
GlyphClass: 4
Flags: W
AnchorPoint: "Anchor-8" 276 760 basemark 0
AnchorPoint: "Anchor-8" 224 515 mark 0
AnchorPoint: "Anchor-6" 224 515 mark 0
AnchorPoint: "Anchor-3" 224 515 mark 0
AnchorPoint: "Anchor-1" 224 515 mark 0
LayerCount: 2
Fore
SplineSet
360 800 m 1,0,-1
 520 800 l 1,1,-1
 397 635 l 1,2,-1
 274 635 l 1,3,-1
 360 800 l 1,0,-1
136 800 m 1,4,-1
 296 800 l 1,5,-1
 173 635 l 1,6,-1
 50 635 l 1,7,-1
 136 800 l 1,4,-1
EndSplineSet
Validated: 1
Substitution2: "Single Substitution lookup 33 subtable" uni030B.case
Substitution2: "'case' Case-Sensitive Forms in Latin lookup 23 subtable" uni030B.case
Substitution2: "'aalt' Access All Alternates in Latin lookup 0 subtable" uni030B.case
EndChar

StartChar: uni0302
Encoding: 770 770 422
Width: 0
GlyphClass: 4
Flags: W
AnchorPoint: "Anchor-8" 262 760 basemark 0
AnchorPoint: "Anchor-8" 262 515 mark 0
AnchorPoint: "Anchor-6" 262 515 mark 0
AnchorPoint: "Anchor-3" 262 515 mark 0
AnchorPoint: "Anchor-1" 262 515 mark 0
LayerCount: 2
Fore
SplineSet
170 800 m 1,0,-1
 354 800 l 1,1,-1
 474 635 l 1,2,-1
 315 635 l 1,3,-1
 266 713 l 1,4,-1
 258 713 l 1,5,-1
 209 635 l 1,6,-1
 50 635 l 1,7,-1
 170 800 l 1,0,-1
EndSplineSet
Validated: 1
Substitution2: "Single Substitution lookup 33 subtable" uni0302.case
Substitution2: "'case' Case-Sensitive Forms in Latin lookup 23 subtable" uni0302.case
Substitution2: "'aalt' Access All Alternates in Latin lookup 0 subtable" uni0302.case
EndChar

StartChar: uni030C
Encoding: 780 780 423
Width: 0
GlyphClass: 4
Flags: W
AnchorPoint: "Anchor-8" 262 760 basemark 0
AnchorPoint: "Anchor-8" 262 515 mark 0
AnchorPoint: "Anchor-6" 262 515 mark 0
AnchorPoint: "Anchor-3" 262 515 mark 0
AnchorPoint: "Anchor-1" 262 515 mark 0
LayerCount: 2
Fore
SplineSet
50 800 m 1,0,-1
 209 800 l 1,1,-1
 258 722 l 1,2,-1
 266 722 l 1,3,-1
 315 800 l 1,4,-1
 474 800 l 1,5,-1
 354 635 l 1,6,-1
 170 635 l 1,7,-1
 50 800 l 1,0,-1
EndSplineSet
Validated: 1
Substitution2: "Single Substitution lookup 33 subtable" uni030C.case
Substitution2: "'case' Case-Sensitive Forms in Latin lookup 23 subtable" uni030C.case
Substitution2: "'aalt' Access All Alternates in Latin lookup 0 subtable" uni030C.case
EndChar

StartChar: uni0306
Encoding: 774 774 424
Width: 0
GlyphClass: 4
Flags: W
AnchorPoint: "Anchor-8" 239 728 basemark 0
AnchorPoint: "Anchor-8" 239 515 mark 0
AnchorPoint: "Anchor-6" 239 515 mark 0
AnchorPoint: "Anchor-3" 239 515 mark 0
AnchorPoint: "Anchor-1" 239 515 mark 0
LayerCount: 2
Fore
SplineSet
98.5 674.5 m 128,-1,1
 50 719 50 719 50 800 c 1,2,-1
 178 800 l 1,3,4
 178 769 178 769 193 752.5 c 128,-1,5
 208 736 208 736 239 736 c 256,6,7
 270 736 270 736 285 752.5 c 128,-1,8
 300 769 300 769 300 800 c 1,9,-1
 428 800 l 1,10,11
 428 719 428 719 379.5 674.5 c 128,-1,12
 331 630 331 630 239 630 c 256,13,0
 147 630 147 630 98.5 674.5 c 128,-1,1
EndSplineSet
Validated: 1
Substitution2: "Single Substitution lookup 33 subtable" uni0306.case
Substitution2: "'case' Case-Sensitive Forms in Latin lookup 23 subtable" uni0306.case
Substitution2: "'aalt' Access All Alternates in Latin lookup 0 subtable" uni0306.case
EndChar

StartChar: uni030A
Encoding: 778 778 425
Width: 0
GlyphClass: 4
Flags: W
AnchorPoint: "Anchor-8" 185 842 basemark 0
AnchorPoint: "Anchor-8" 185 515 mark 0
AnchorPoint: "Anchor-6" 185 515 mark 0
AnchorPoint: "Anchor-3" 185 515 mark 0
AnchorPoint: "Anchor-1" 185 515 mark 0
LayerCount: 2
Fore
SplineSet
88 665.5 m 128,-1,1
 50 701 50 701 50 756 c 256,2,3
 50 811 50 811 88 846.5 c 128,-1,4
 126 882 126 882 185 882 c 256,5,6
 244 882 244 882 282 846.5 c 128,-1,7
 320 811 320 811 320 756 c 256,8,9
 320 701 320 701 282 665.5 c 128,-1,10
 244 630 244 630 185 630 c 256,11,0
 126 630 126 630 88 665.5 c 128,-1,1
219.5 719.5 m 128,-1,13
 232 733 232 733 232 756 c 256,14,15
 232 779 232 779 219.5 792.5 c 128,-1,16
 207 806 207 806 185 806 c 0,17,18
 164 806 164 806 151 792 c 128,-1,19
 138 778 138 778 138 756 c 256,20,21
 138 734 138 734 151 720 c 128,-1,22
 164 706 164 706 185 706 c 0,23,12
 207 706 207 706 219.5 719.5 c 128,-1,13
EndSplineSet
Validated: 1
Substitution2: "Single Substitution lookup 33 subtable" uni030A.case
Substitution2: "'case' Case-Sensitive Forms in Latin lookup 23 subtable" uni030A.case
Substitution2: "'aalt' Access All Alternates in Latin lookup 0 subtable" uni030A.case
EndChar

StartChar: tildecomb
Encoding: 771 771 426
Width: 0
GlyphClass: 4
Flags: W
AnchorPoint: "Anchor-8" 254 760 basemark 0
AnchorPoint: "Anchor-8" 254 515 mark 0
AnchorPoint: "Anchor-6" 254 515 mark 0
AnchorPoint: "Anchor-3" 254 515 mark 0
AnchorPoint: "Anchor-1" 254 515 mark 0
LayerCount: 2
Fore
SplineSet
80 751 m 128,-1,1
 110 790 110 790 166 790 c 0,2,3
 184 790 184 790 205.5 784 c 128,-1,4
 227 778 227 778 255 763 c 2,5,-1
 276 752 l 2,6,7
 291 744 291 744 302 740.5 c 128,-1,8
 313 737 313 737 319 737 c 0,9,10
 334 737 334 737 340 747.5 c 128,-1,11
 346 758 346 758 347 785 c 1,12,-1
 457 785 l 1,13,14
 457 707 457 707 427 668.5 c 128,-1,15
 397 630 397 630 336 630 c 0,16,17
 317 630 317 630 296 636.5 c 128,-1,18
 275 643 275 643 247 657 c 2,19,-1
 226 668 l 2,20,21
 197 683 197 683 183 683 c 0,22,23
 168 683 168 683 162 672.5 c 128,-1,24
 156 662 156 662 155 635 c 1,25,-1
 50 635 l 1,26,0
 50 712 50 712 80 751 c 128,-1,1
EndSplineSet
Validated: 1
Substitution2: "Single Substitution lookup 33 subtable" tildecomb.case
Substitution2: "'case' Case-Sensitive Forms in Latin lookup 23 subtable" tildecomb.case
Substitution2: "'aalt' Access All Alternates in Latin lookup 0 subtable" tildecomb.case
EndChar

StartChar: uni0304
Encoding: 772 772 427
Width: 0
GlyphClass: 4
Flags: W
AnchorPoint: "Anchor-8" 210 733 basemark 0
AnchorPoint: "Anchor-8" 210 515 mark 0
AnchorPoint: "Anchor-6" 210 515 mark 0
AnchorPoint: "Anchor-3" 210 515 mark 0
AnchorPoint: "Anchor-1" 210 515 mark 0
LayerCount: 2
Fore
SplineSet
50 773 m 1,0,-1
 370 773 l 1,1,-1
 370 659 l 1,2,-1
 50 659 l 1,3,-1
 50 773 l 1,0,-1
EndSplineSet
Validated: 1
Substitution2: "Single Substitution lookup 33 subtable" uni0304.case
Substitution2: "'case' Case-Sensitive Forms in Latin lookup 23 subtable" uni0304.case
Substitution2: "'aalt' Access All Alternates in Latin lookup 0 subtable" uni0304.case
EndChar

StartChar: uni0312
Encoding: 786 786 428
Width: 0
GlyphClass: 4
Flags: W
AnchorPoint: "Anchor-8" 194 760 basemark 0
AnchorPoint: "Anchor-8" 149 515 mark 0
AnchorPoint: "Anchor-6" 149 515 mark 0
AnchorPoint: "Anchor-3" 149 515 mark 0
AnchorPoint: "Anchor-1" 149 515 mark 0
LayerCount: 2
Fore
SplineSet
175 800 m 1,0,-1
 337 800 l 1,1,-1
 248 635 l 1,2,-1
 50 635 l 1,3,-1
 175 800 l 1,0,-1
EndSplineSet
Validated: 1
EndChar

StartChar: uni0326
Encoding: 806 806 429
Width: 0
GlyphClass: 4
Flags: W
AnchorPoint: "Anchor-7" 174 -180 basemark 0
AnchorPoint: "Anchor-7" 205 0 mark 0
AnchorPoint: "Anchor-5" 205 0 mark 0
AnchorPoint: "Anchor-2" 205 0 mark 0
AnchorPoint: "Anchor-0" 205 0 mark 0
LayerCount: 2
Fore
SplineSet
106 -10 m 1,0,-1
 304 -10 l 1,1,-1
 222 -125 l 1,2,-1
 50 -125 l 1,3,-1
 106 -10 l 1,0,-1
EndSplineSet
Validated: 1
EndChar

StartChar: uni0327
Encoding: 807 807 430
Width: 0
GlyphClass: 4
Flags: W
AnchorPoint: "Anchor-7" 174 -180 basemark 0
AnchorPoint: "Anchor-7" 223 0 mark 0
AnchorPoint: "Anchor-5" 223 0 mark 0
AnchorPoint: "Anchor-2" 223 0 mark 0
AnchorPoint: "Anchor-0" 223 0 mark 0
LayerCount: 2
Fore
SplineSet
132 -10 m 1,0,-1
 304 -10 l 1,1,-1
 248 -125 l 1,2,-1
 50 -125 l 1,3,-1
 132 -10 l 1,0,-1
EndSplineSet
Validated: 1
EndChar

StartChar: uni0328
Encoding: 808 808 431
Width: 0
GlyphClass: 4
Flags: W
AnchorPoint: "Anchor-4" 124 0 mark 0
LayerCount: 2
Fore
SplineSet
50 -10 m 1,0,-1
 222 -10 l 1,1,-1
 304 -125 l 1,2,-1
 106 -125 l 1,3,-1
 50 -10 l 1,0,-1
EndSplineSet
Validated: 1
EndChar

StartChar: Q.ss04
Encoding: 65560 -1 438
Width: 796
GlyphClass: 2
Flags: W
AnchorPoint: "Anchor-3" 411 705 basechar 0
AnchorPoint: "Anchor-2" 411 0 basechar 0
LayerCount: 2
Fore
SplineSet
214.5 85.5 m 128,-1,1
 135 131 135 131 91 212.5 c 128,-1,2
 47 294 47 294 47 399 c 0,3,4
 47 505 47 505 91 587 c 128,-1,5
 135 669 135 669 214.5 714.5 c 128,-1,6
 294 760 294 760 398 760 c 256,7,8
 502 760 502 760 581.5 714.5 c 128,-1,9
 661 669 661 669 705 587 c 128,-1,10
 749 505 749 505 749 399 c 0,11,12
 749 338 749 338 721 283 c 128,-1,13
 693 228 693 228 630 182 c 1,14,-1
 630 172 l 1,15,16
 667 196 667 196 695.5 203.5 c 128,-1,17
 724 211 724 211 757 211 c 2,18,-1
 779 211 l 1,19,-1
 779 40 l 1,20,-1
 398 40 l 2,21,0
 294 40 294 40 214.5 85.5 c 128,-1,1
482 206.5 m 128,-1,23
 517 233 517 233 535.5 282 c 128,-1,24
 554 331 554 331 554 399 c 0,25,26
 554 468 554 468 535.5 517.5 c 128,-1,27
 517 567 517 567 482 593.5 c 128,-1,28
 447 620 447 620 398 620 c 256,29,30
 349 620 349 620 314 593.5 c 128,-1,31
 279 567 279 567 260.5 517.5 c 128,-1,32
 242 468 242 468 242 399 c 0,33,34
 242 331 242 331 260.5 281.5 c 128,-1,35
 279 232 279 232 314 206 c 128,-1,36
 349 180 349 180 398 180 c 256,37,22
 447 180 447 180 482 206.5 c 128,-1,23
EndSplineSet
Validated: 1
EndChar

StartChar: Ldot.ss06
Encoding: 65571 -1 449
Width: 559
GlyphClass: 2
Flags: W
AnchorPoint: "Anchor-3" 195 705 basechar 0
AnchorPoint: "Anchor-2" 333 0 basechar 0
LayerCount: 2
Fore
SplineSet
87 745 m 1,0,-1
 277 745 l 1,1,-1
 277 40 l 1,2,-1
 87 40 l 1,3,-1
 87 745 l 1,0,-1
177 190 m 1,4,-1
 542 190 l 1,5,-1
 542 40 l 1,6,-1
 277 40 l 1,7,-1
 177 190 l 1,4,-1
357 340 m 1,8,-1
 357 529 l 1,9,-1
 451 529 l 1,10,-1
 545 529 l 1,11,-1
 545 340 l 1,12,-1
 451 340 l 1,13,-1
 357 340 l 1,8,-1
EndSplineSet
Validated: 5
EndChar

StartChar: I.ss07
Encoding: 65579 -1 457
Width: 508
GlyphClass: 2
Flags: W
AnchorPoint: "Anchor-4" 414 0 basechar 0
AnchorPoint: "Anchor-3" 267 705 basechar 0
AnchorPoint: "Anchor-2" 267 0 basechar 0
LayerCount: 2
Fore
SplineSet
159 645 m 1,0,-1
 349 645 l 1,1,-1
 349 140 l 1,2,-1
 159 140 l 1,3,-1
 159 645 l 1,0,-1
37 190 m 1,4,-1
 471 190 l 1,5,-1
 471 40 l 1,6,-1
 37 40 l 1,7,-1
 37 190 l 1,4,-1
37 745 m 1,8,-1
 471 745 l 1,9,-1
 471 595 l 1,10,-1
 37 595 l 1,11,-1
 37 745 l 1,8,-1
EndSplineSet
Validated: 5
EndChar

StartChar: dotlessi.accents
Encoding: 65593 -1 471
Width: 318
GlyphClass: 2
Flags: W
AnchorPoint: "Anchor-4" 172 0 basechar 0
AnchorPoint: "Anchor-3" 172 515 basechar 0
AnchorPoint: "Anchor-2" 172 0 basechar 0
LayerCount: 2
Fore
SplineSet
69 555 m 1,0,-1
 249 555 l 1,1,-1
 249 40 l 1,2,-1
 69 40 l 1,3,-1
 69 555 l 1,0,-1
EndSplineSet
Validated: 1
EndChar

StartChar: uni0237.accents
Encoding: 65594 -1 472
Width: 274
GlyphClass: 2
Flags: W
AnchorPoint: "Anchor-3" 128 515 basechar 0
AnchorPoint: "Anchor-2" 130 -165 basechar 0
LayerCount: 2
Fore
SplineSet
-40 -125 m 1,0,-1
 -40 17 l 1,1,-1
 -15 17 l 2,2,3
 3 17 3 17 14 26 c 128,-1,4
 25 35 25 35 25 54 c 2,5,-1
 25 555 l 1,6,-1
 205 555 l 1,7,-1
 205 47 l 2,8,9
 205 -44 205 -44 157.5 -84.5 c 128,-1,10
 110 -125 110 -125 29 -125 c 2,11,-1
 -40 -125 l 1,0,-1
81 544 m 1,12,-1
 81 526 l 1,13,-1
 67 526 l 1,14,-1
 67 544 l 1,15,-1
 81 544 l 1,12,-1
EndSplineSet
Validated: 9
EndChar

StartChar: a.ss01
Encoding: 65595 -1 473
Width: 636
GlyphClass: 2
Flags: W
AnchorPoint: "Anchor-4" 490 0 basechar 0
AnchorPoint: "Anchor-3" 331 515 basechar 0
AnchorPoint: "Anchor-2" 331 0 basechar 0
LayerCount: 2
Fore
SplineSet
130 55 m 128,-1,1
 87 85 87 85 62 146 c 128,-1,2
 37 207 37 207 37 297 c 0,3,4
 37 388 37 388 61.5 449 c 128,-1,5
 86 510 86 510 129 540 c 128,-1,6
 172 570 172 570 227 570 c 0,7,8
 285 570 285 570 325 545.5 c 128,-1,9
 365 521 365 521 387 477 c 1,10,-1
 397 477 l 1,11,-1
 397 555 l 1,12,-1
 567 555 l 1,13,-1
 567 40 l 1,14,-1
 387 40 l 1,15,-1
 387 117 l 1,16,-1
 377 117 l 1,17,18
 357 74 357 74 318.5 49.5 c 128,-1,19
 280 25 280 25 227 25 c 0,20,0
 173 25 173 25 130 55 c 128,-1,1
351 165 m 128,-1,22
 370 180 370 180 381 213 c 128,-1,23
 392 246 392 246 392 297 c 256,24,25
 392 348 392 348 381 381 c 128,-1,26
 370 414 370 414 351 429.5 c 128,-1,27
 332 445 332 445 307 445 c 0,28,29
 268 445 268 445 245 409 c 128,-1,30
 222 373 222 373 222 297 c 0,31,32
 222 222 222 222 245 186 c 128,-1,33
 268 150 268 150 307 150 c 0,34,21
 332 150 332 150 351 165 c 128,-1,22
EndSplineSet
Validated: 1
EndChar

StartChar: g.ss02
Encoding: 65606 -1 484
Width: 632
GlyphClass: 2
Flags: W
AnchorPoint: "Anchor-3" 313 515 basechar 0
AnchorPoint: "Anchor-2" 313 -165 basechar 0
LayerCount: 2
Fore
SplineSet
183 -122 m 128,-1,1
 131 -104 131 -104 100 -72 c 128,-1,2
 69 -40 69 -40 64 2 c 1,3,-1
 251 2 l 1,4,5
 258 -12 258 -12 272.5 -19.5 c 128,-1,6
 287 -27 287 -27 310 -27 c 0,7,8
 348 -27 348 -27 365.5 -4 c 128,-1,9
 383 19 383 19 383 70 c 2,10,-1
 383 158 l 1,11,-1
 373 158 l 1,12,13
 356 115 356 115 320 90.5 c 128,-1,14
 284 66 284 66 236 66 c 0,15,16
 175 66 175 66 129.5 99.5 c 128,-1,17
 84 133 84 133 59.5 190 c 128,-1,18
 35 247 35 247 35 316 c 0,19,20
 35 386 35 386 60 443.5 c 128,-1,21
 85 501 85 501 132.5 535.5 c 128,-1,22
 180 570 180 570 245 570 c 0,23,24
 293 570 293 570 329 545.5 c 128,-1,25
 365 521 365 521 383 478 c 1,26,-1
 393 478 l 1,27,-1
 393 555 l 1,28,-1
 563 555 l 1,29,-1
 563 98 l 2,30,31
 563 11 563 11 532.5 -41.5 c 128,-1,32
 502 -94 502 -94 444 -117 c 128,-1,33
 386 -140 386 -140 301 -140 c 0,34,0
 235 -140 235 -140 183 -122 c 128,-1,1
356.5 214.5 m 128,-1,36
 377 248 377 248 377 318 c 256,37,38
 377 388 377 388 356.5 421.5 c 128,-1,39
 336 455 336 455 299 455 c 256,40,41
 262 455 262 455 241.5 421.5 c 128,-1,42
 221 388 221 388 221 318 c 256,43,44
 221 248 221 248 241.5 214.5 c 128,-1,45
 262 181 262 181 299 181 c 256,46,35
 336 181 336 181 356.5 214.5 c 128,-1,36
EndSplineSet
Validated: 1
EndChar

StartChar: y.ss03
Encoding: 65612 -1 490
Width: 622
GlyphClass: 2
Flags: W
AnchorPoint: "Anchor-3" 322 515 basechar 0
AnchorPoint: "Anchor-2" 317 0 basechar 0
LayerCount: 2
Fore
SplineSet
187.5 -122 m 128,-1,1
 136 -104 136 -104 105.5 -72 c 128,-1,2
 75 -40 75 -40 70 2 c 1,3,-1
 257 2 l 1,4,5
 264 -12 264 -12 278 -19.5 c 128,-1,6
 292 -27 292 -27 314 -27 c 0,7,8
 350 -27 350 -27 366.5 -4 c 128,-1,9
 383 19 383 19 383 70 c 2,10,-1
 383 160 l 1,11,-1
 373 160 l 1,12,13
 353 111 353 111 314 88.5 c 128,-1,14
 275 66 275 66 225 66 c 0,15,16
 152 66 152 66 108 114.5 c 128,-1,17
 64 163 64 163 64 259 c 2,18,-1
 64 555 l 1,19,-1
 244 555 l 1,20,-1
 244 271 l 2,21,22
 244 237 244 237 259 217 c 128,-1,23
 274 197 274 197 305 197 c 0,24,25
 337 197 337 197 355 218 c 128,-1,26
 373 239 373 239 373 278 c 2,27,-1
 373 555 l 1,28,-1
 553 555 l 1,29,-1
 553 88 l 2,30,31
 553 3 553 3 525 -47 c 128,-1,32
 497 -97 497 -97 443 -118.5 c 128,-1,33
 389 -140 389 -140 305 -140 c 0,34,0
 239 -140 239 -140 187.5 -122 c 128,-1,1
EndSplineSet
Validated: 1
EndChar

StartChar: ldot.ss06
Encoding: 65632 -1 510
Width: 454
GlyphClass: 2
Flags: W
AnchorPoint: "Anchor-3" 172 705 basechar 0
AnchorPoint: "Anchor-2" 172 0 basechar 0
LayerCount: 2
Fore
SplineSet
69 775 m 1,0,-1
 249 775 l 1,1,-1
 249 40 l 1,2,-1
 69 40 l 1,3,-1
 69 775 l 1,0,-1
317 351 m 1,4,-1
 317 519 l 1,5,-1
 399 519 l 1,6,-1
 481 519 l 1,7,-1
 481 351 l 1,8,-1
 399 351 l 1,9,-1
 317 351 l 1,4,-1
EndSplineSet
Validated: 1
EndChar

StartChar: l.ss07
Encoding: 65640 -1 518
Width: 332
GlyphClass: 2
Flags: W
AnchorPoint: "Anchor-3" 172 705 basechar 0
AnchorPoint: "Anchor-2" 188 0 basechar 0
LayerCount: 2
Fore
SplineSet
114.5 72.5 m 128,-1,1
 69 115 69 115 69 212 c 2,2,-1
 69 775 l 1,3,-1
 249 775 l 1,4,-1
 249 225 l 2,5,6
 249 205 249 205 260 195.5 c 128,-1,7
 271 186 271 186 291 186 c 0,8,9
 306 186 306 186 325 189 c 1,10,-1
 325 39 l 1,11,12
 283 30 283 30 240 30 c 0,13,0
 160 30 160 30 114.5 72.5 c 128,-1,1
EndSplineSet
Validated: 1
EndChar

StartChar: lcaron.ss07
Encoding: 65642 -1 520
Width: 332
GlyphClass: 2
Flags: W
AnchorPoint: "Anchor-3" 172 705 basechar 0
AnchorPoint: "Anchor-2" 188 0 basechar 0
LayerCount: 2
Fore
SplineSet
114.5 72.5 m 128,-1,1
 69 115 69 115 69 212 c 2,2,-1
 69 775 l 1,3,-1
 249 775 l 1,4,-1
 249 225 l 2,5,6
 249 205 249 205 260 195.5 c 128,-1,7
 271 186 271 186 291 186 c 0,8,9
 306 186 306 186 325 189 c 1,10,-1
 325 39 l 1,11,12
 283 30 283 30 240 30 c 0,13,0
 160 30 160 30 114.5 72.5 c 128,-1,1
359 745 m 1,14,-1
 501 745 l 1,15,-1
 439 595 l 1,16,-1
 324 595 l 1,17,-1
 359 745 l 1,14,-1
EndSplineSet
Validated: 1
EndChar

StartChar: ldot.ss07
Encoding: 65644 -1 522
Width: 468
GlyphClass: 2
Flags: W
AnchorPoint: "Anchor-3" 172 705 basechar 0
AnchorPoint: "Anchor-2" 188 0 basechar 0
LayerCount: 2
Fore
SplineSet
114.5 72.5 m 128,-1,1
 69 115 69 115 69 212 c 2,2,-1
 69 775 l 1,3,-1
 249 775 l 1,4,-1
 249 225 l 2,5,6
 249 205 249 205 260 195.5 c 128,-1,7
 271 186 271 186 291 186 c 0,8,9
 306 186 306 186 325 189 c 1,10,-1
 325 39 l 1,11,12
 283 30 283 30 240 30 c 0,13,0
 160 30 160 30 114.5 72.5 c 128,-1,1
346.5 367.5 m 128,-1,15
 319 395 319 395 319 434 c 256,16,17
 319 473 319 473 346.5 501 c 128,-1,18
 374 529 374 529 413 529 c 0,19,20
 451 529 451 529 479.5 500.5 c 128,-1,21
 508 472 508 472 508 434 c 0,22,23
 508 395 508 395 480 367.5 c 128,-1,24
 452 340 452 340 413 340 c 256,25,14
 374 340 374 340 346.5 367.5 c 128,-1,15
EndSplineSet
Validated: 1
EndChar

StartChar: uni24FF
Encoding: 9471 9471 529
Width: 1089
GlyphClass: 1
Flags: W
LayerCount: 2
Fore
SplineSet
279.5 -58 m 128,-1,1
 161 9 161 9 94 127 c 128,-1,2
 27 245 27 245 27 392 c 256,3,4
 27 539 27 539 94 657.5 c 128,-1,5
 161 776 161 776 279.5 843 c 128,-1,6
 398 910 398 910 545 910 c 256,7,8
 692 910 692 910 810 843 c 128,-1,9
 928 776 928 776 995 657.5 c 128,-1,10
 1062 539 1062 539 1062 392 c 256,11,12
 1062 245 1062 245 995 127 c 128,-1,13
 928 9 928 9 810 -58 c 128,-1,14
 692 -125 692 -125 545 -125 c 256,15,0
 398 -125 398 -125 279.5 -58 c 128,-1,1
655 145 m 128,-1,17
 704 173 704 173 733 235 c 128,-1,18
 762 297 762 297 762 393 c 256,19,20
 762 489 762 489 733 550.5 c 128,-1,21
 704 612 704 612 655 640 c 128,-1,22
 606 668 606 668 545 668 c 0,23,24
 450 668 450 668 389 601 c 128,-1,25
 328 534 328 534 328 393 c 0,26,27
 328 251 328 251 389 184 c 128,-1,28
 450 117 450 117 545 117 c 0,29,16
 606 117 606 117 655 145 c 128,-1,17
486 262 m 128,-1,31
 469 305 469 305 469 393 c 0,32,33
 469 480 469 480 486 522.5 c 128,-1,34
 503 565 503 565 545 565 c 256,35,36
 587 565 587 565 604 522.5 c 128,-1,37
 621 480 621 480 621 393 c 0,38,39
 621 304 621 304 604 261.5 c 128,-1,40
 587 219 587 219 545 219 c 256,41,30
 503 219 503 219 486 262 c 128,-1,31
EndSplineSet
Validated: 1
EndChar

StartChar: uni2776
Encoding: 10102 10102 530
Width: 1089
GlyphClass: 1
Flags: W
LayerCount: 2
Fore
SplineSet
279.5 -58 m 128,-1,1
 161 9 161 9 94 127 c 128,-1,2
 27 245 27 245 27 392 c 256,3,4
 27 539 27 539 94 657.5 c 128,-1,5
 161 776 161 776 279.5 843 c 128,-1,6
 398 910 398 910 545 910 c 256,7,8
 692 910 692 910 810 843 c 128,-1,9
 928 776 928 776 995 657.5 c 128,-1,10
 1062 539 1062 539 1062 392 c 256,11,12
 1062 245 1062 245 995 127 c 128,-1,13
 928 9 928 9 810 -58 c 128,-1,14
 692 -125 692 -125 545 -125 c 256,15,0
 398 -125 398 -125 279.5 -58 c 128,-1,1
638 129 m 1,16,-1
 638 658 l 1,17,-1
 531 658 l 1,18,19
 525 615 525 615 507.5 590.5 c 128,-1,20
 490 566 490 566 458.5 555 c 128,-1,21
 427 544 427 544 373 541 c 1,22,-1
 373 454 l 1,23,-1
 500 454 l 1,24,-1
 500 129 l 1,25,-1
 638 129 l 1,16,-1
EndSplineSet
Validated: 1
EndChar

StartChar: uni2777
Encoding: 10103 10103 531
Width: 1089
GlyphClass: 1
Flags: W
LayerCount: 2
Fore
SplineSet
279.5 -58 m 128,-1,1
 161 9 161 9 94 127 c 128,-1,2
 27 245 27 245 27 392 c 256,3,4
 27 539 27 539 94 657.5 c 128,-1,5
 161 776 161 776 279.5 843 c 128,-1,6
 398 910 398 910 545 910 c 256,7,8
 692 910 692 910 810 843 c 128,-1,9
 928 776 928 776 995 657.5 c 128,-1,10
 1062 539 1062 539 1062 392 c 256,11,12
 1062 245 1062 245 995 127 c 128,-1,13
 928 9 928 9 810 -58 c 128,-1,14
 692 -125 692 -125 545 -125 c 256,15,0
 398 -125 398 -125 279.5 -58 c 128,-1,1
737 129 m 1,16,-1
 737 231 l 1,17,-1
 494 231 l 1,18,19
 495 249 495 249 505 262 c 128,-1,20
 515 275 515 275 534 286 c 2,21,-1
 631 343 l 2,22,23
 685 375 685 375 711 416.5 c 128,-1,24
 737 458 737 458 737 510 c 0,25,26
 737 588 737 588 687.5 628.5 c 128,-1,27
 638 669 638 669 553 669 c 0,28,29
 462 669 462 669 409.5 627 c 128,-1,30
 357 585 357 585 343 500 c 1,31,-1
 484 500 l 1,32,33
 488 534 488 534 504 552 c 128,-1,34
 520 570 520 570 549 570 c 0,35,36
 576 570 576 570 590.5 554 c 128,-1,37
 605 538 605 538 605 509 c 0,38,39
 605 481 605 481 590.5 461.5 c 128,-1,40
 576 442 576 442 547 426 c 2,41,-1
 468 382 l 2,42,43
 400 344 400 344 373.5 294 c 128,-1,44
 347 244 347 244 347 177 c 0,45,46
 347 150 347 150 350 129 c 1,47,-1
 737 129 l 1,16,-1
EndSplineSet
Validated: 1
EndChar

StartChar: uni2778
Encoding: 10104 10104 532
Width: 1089
GlyphClass: 1
Flags: W
LayerCount: 2
Fore
SplineSet
279.5 -58 m 128,-1,1
 161 9 161 9 94 127 c 128,-1,2
 27 245 27 245 27 392 c 256,3,4
 27 539 27 539 94 657.5 c 128,-1,5
 161 776 161 776 279.5 843 c 128,-1,6
 398 910 398 910 545 910 c 256,7,8
 692 910 692 910 810 843 c 128,-1,9
 928 776 928 776 995 657.5 c 128,-1,10
 1062 539 1062 539 1062 392 c 256,11,12
 1062 245 1062 245 995 127 c 128,-1,13
 928 9 928 9 810 -58 c 128,-1,14
 692 -125 692 -125 545 -125 c 256,15,0
 398 -125 398 -125 279.5 -58 c 128,-1,1
686 161 m 128,-1,17
 744 204 744 204 744 279 c 0,18,19
 744 332 744 332 715 362.5 c 128,-1,20
 686 393 686 393 630 401 c 1,21,-1
 630 409 l 1,22,23
 681 420 681 420 708.5 451.5 c 128,-1,24
 736 483 736 483 736 528 c 0,25,26
 736 570 736 570 710.5 602 c 128,-1,27
 685 634 685 634 640 651.5 c 128,-1,28
 595 669 595 669 540 669 c 0,29,30
 453 669 453 669 399.5 629.5 c 128,-1,31
 346 590 346 590 339 520 c 1,32,-1
 482 520 l 1,33,34
 483 544 483 544 498.5 557.5 c 128,-1,35
 514 571 514 571 538 571 c 0,36,37
 564 571 564 571 579 555.5 c 128,-1,38
 594 540 594 540 594 512 c 0,39,40
 594 487 594 487 577 468.5 c 128,-1,41
 560 450 560 450 522 450 c 2,42,-1
 479 450 l 1,43,-1
 479 352 l 1,44,-1
 526 352 l 2,45,46
 567 352 567 352 584.5 333 c 128,-1,47
 602 314 602 314 602 281 c 0,48,49
 602 249 602 249 584.5 232 c 128,-1,50
 567 215 567 215 540 215 c 0,51,52
 512 215 512 215 496 229.5 c 128,-1,53
 480 244 480 244 475 269 c 1,54,-1
 332 269 l 1,55,56
 344 200 344 200 396 159 c 128,-1,57
 448 118 448 118 539 118 c 0,58,16
 628 118 628 118 686 161 c 128,-1,17
EndSplineSet
Validated: 1
EndChar

StartChar: uni2779
Encoding: 10105 10105 533
Width: 1089
GlyphClass: 1
Flags: W
LayerCount: 2
Fore
SplineSet
279.5 -58 m 128,-1,1
 161 9 161 9 94 127 c 128,-1,2
 27 245 27 245 27 392 c 256,3,4
 27 539 27 539 94 657.5 c 128,-1,5
 161 776 161 776 279.5 843 c 128,-1,6
 398 910 398 910 545 910 c 256,7,8
 692 910 692 910 810 843 c 128,-1,9
 928 776 928 776 995 657.5 c 128,-1,10
 1062 539 1062 539 1062 392 c 256,11,12
 1062 245 1062 245 995 127 c 128,-1,13
 928 9 928 9 810 -58 c 128,-1,14
 692 -125 692 -125 545 -125 c 256,15,0
 398 -125 398 -125 279.5 -58 c 128,-1,1
691 129 m 1,16,-1
 691 219 l 1,17,-1
 764 219 l 1,18,-1
 764 323 l 1,19,-1
 691 323 l 1,20,-1
 691 658 l 1,21,-1
 532 658 l 1,22,-1
 322 331 l 1,23,-1
 322 219 l 1,24,-1
 553 219 l 1,25,-1
 553 129 l 1,26,-1
 691 129 l 1,16,-1
518 479 m 0,28,29
 526 493 526 493 533.5 507.5 c 128,-1,30
 541 522 541 522 546 537 c 1,31,-1
 553 537 l 1,32,-1
 553 471 l 1,33,-1
 553 323 l 1,34,-1
 422 323 l 1,35,-1
 497 444 l 2,36,27
 508 462 508 462 518 479 c 0,28,29
EndSplineSet
Validated: 1
EndChar

StartChar: uni277A
Encoding: 10106 10106 534
Width: 1089
GlyphClass: 1
Flags: W
LayerCount: 2
Fore
SplineSet
279.5 -58 m 128,-1,1
 161 9 161 9 94 127 c 128,-1,2
 27 245 27 245 27 392 c 256,3,4
 27 539 27 539 94 657.5 c 128,-1,5
 161 776 161 776 279.5 843 c 128,-1,6
 398 910 398 910 545 910 c 256,7,8
 692 910 692 910 810 843 c 128,-1,9
 928 776 928 776 995 657.5 c 128,-1,10
 1062 539 1062 539 1062 392 c 256,11,12
 1062 245 1062 245 995 127 c 128,-1,13
 928 9 928 9 810 -58 c 128,-1,14
 692 -125 692 -125 545 -125 c 256,15,0
 398 -125 398 -125 279.5 -58 c 128,-1,1
638 139.5 m 128,-1,17
 683 161 683 161 709 203.5 c 128,-1,18
 735 246 735 246 735 309 c 0,19,20
 735 363 735 363 717.5 402 c 128,-1,21
 700 441 700 441 667.5 462 c 128,-1,22
 635 483 635 483 592 483 c 0,23,24
 557 483 557 483 531 471 c 128,-1,25
 505 459 505 459 489 431 c 1,26,-1
 481 431 l 1,27,-1
 500 552 l 1,28,-1
 720 552 l 1,29,-1
 720 658 l 1,30,-1
 405 658 l 1,31,-1
 358 365 l 1,32,-1
 497 365 l 1,33,34
 502 378 502 378 513.5 386.5 c 128,-1,35
 525 395 525 395 540 395 c 0,36,37
 568 395 568 395 581 373 c 128,-1,38
 594 351 594 351 594 308 c 0,39,40
 594 258 594 258 579 236.5 c 128,-1,41
 564 215 564 215 536 215 c 0,42,43
 517 215 517 215 504 224.5 c 128,-1,44
 491 234 491 234 486 257 c 1,45,-1
 345 257 l 1,46,47
 349 219 349 219 374 187.5 c 128,-1,48
 399 156 399 156 441 137 c 128,-1,49
 483 118 483 118 534 118 c 0,50,16
 593 118 593 118 638 139.5 c 128,-1,17
EndSplineSet
Validated: 1
EndChar

